<svg width="22" height="19" fill="none" xmlns="http://www.w3.org/2000/svg"><path d="M10.9203 18.79c-.3007 0-.5905-.1089-.8164-.3068-.85324-.746-1.67582-1.4471-2.40156-2.0656l-.0037-.0032c-2.12775-1.8132-3.96514-3.3791-5.24357-4.9216C1.02599 9.76835.360352 8.13333.360352 6.34718c0-1.7354.595061-3.33642 1.675458-4.50833C3.12909.65307 4.62923 0 6.26037 0 7.4795 0 8.59598.385429 9.57873 1.14549c.49597.38366.94557.8532 1.34157 1.40089.3962-.54769.8456-1.01723 1.3418-1.40089C13.2448.385429 14.3613 0 15.5804 0c1.631 0 3.1313.65307 4.2246 1.83885 1.0804 1.17191 1.6753 2.77293 1.6753 4.50833 0 1.78615-.6655 3.42117-2.0946 5.14542-1.2784 1.5427-3.1156 3.1084-5.2431 4.9215-.727.6194-1.5509 1.3216-2.406 2.0694-.2257.1976-.5158.3065-.8163.3065z" fill="#DB2526"/></svg>