<svg width="234" height="389" viewBox="0 0 234 389" fill="none" xmlns="http://www.w3.org/2000/svg">
<path d="M233.413 190.253C233.236 191.137 233.06 189.015 232.707 188.485C232.883 188.661 232.883 187.954 232.883 187.777C233.06 187.954 233.236 188.131 233.413 188.485C233.236 185.479 233.236 183.711 233.413 182.473C234.471 181.766 233.942 173.986 233.06 168.682C233.06 167.975 233.06 166.207 232.53 164.085C232.178 156.482 229.707 148.879 225.826 138.271C222.12 128.193 218.062 118.645 213.474 109.805C208.004 99.7267 202.005 90.8863 195.477 82.5763C188.948 74.2663 181.891 66.6635 174.127 59.2376C169.363 54.9942 164.246 50.574 158.953 46.5074C153.659 42.4408 148.366 38.9046 143.602 36.4293C137.25 32.1859 130.721 28.4729 124.193 25.1135C117.488 21.7542 110.606 18.5716 103.019 15.3891C103.019 15.5659 101.608 15.0355 101.078 14.8586C97.9022 13.621 94.7263 12.5601 91.1973 11.3225C78.8461 7.07908 65.6126 3.89652 51.8499 1.95163C38.2635 0.00673733 24.3243 -0.523688 10.738 0.537163C-1.78964 1.42121 -13.788 3.71971 -25.2569 6.37184C-27.7272 7.25588 -31.609 7.96312 -34.785 9.02397C-44.8425 12.0297 -55.6056 16.8035 -66.0159 21.931C-76.0734 26.8816 -85.0721 32.7163 -93.5415 38.1974C-93.8944 38.3742 -93.8944 38.3742 -94.4238 38.7278C-105.54 46.3306 -116.303 56.2318 -125.478 66.1331C-136.771 78.1561 -146.475 91.4167 -153.357 103.086C-155.121 106.622 -157.415 110.689 -159.532 114.579C-161.65 118.645 -163.238 122.535 -164.12 125.894C-163.414 123.419 -162.179 124.48 -161.473 122.181C-161.297 122.181 -161.297 122.181 -161.12 122.005C-160.591 121.121 -160.591 120.944 -160.591 120.59C-158.826 118.115 -158.297 115.993 -157.238 114.402C-156.886 114.932 -156.886 113.695 -156.003 113.164C-156.003 112.987 -156.18 113.164 -156.003 112.811C-156.003 113.341 -154.062 109.274 -154.768 111.042C-153.886 109.451 -153.533 108.39 -152.651 106.799C-151.769 106.269 -152.474 107.329 -151.945 107.153C-152.651 107.86 -151.945 107.506 -152.298 108.037C-152.651 108.39 -154.239 111.219 -154.415 111.573C-154.239 111.219 -154.768 112.457 -154.592 112.634C-155.121 113.518 -154.945 112.811 -155.474 113.518C-155.474 114.048 -154.945 113.164 -154.768 112.811C-155.474 113.871 -154.945 113.518 -155.298 114.225C-155.474 114.225 -155.65 114.579 -155.65 114.402C-155.474 114.048 -155.298 113.871 -155.474 113.871C-155.827 114.402 -156.18 114.755 -156.533 115.109C-156.709 115.993 -157.591 117.054 -157.768 118.115C-157.944 117.761 -158.65 119.176 -158.826 119.706C-158.826 119.352 -158.826 119.352 -159.179 119.883C-159.709 121.297 -160.415 122.712 -160.944 123.596C-161.473 124.657 -160.415 123.065 -160.944 123.949C-161.12 123.949 -161.473 124.833 -161.65 124.657C-161.473 124.126 -161.297 124.48 -161.12 123.773C-161.826 124.126 -162.532 127.662 -163.238 127.662C-164.296 129.784 -166.061 133.497 -166.237 132.967C-166.414 133.497 -166.414 133.674 -166.414 133.851C-166.943 134.381 -167.649 136.326 -167.649 135.796C-168.002 137.564 -168.531 137.564 -168.884 139.155C-169.237 139.509 -169.237 139.685 -169.413 139.332C-169.766 139.862 -169.766 140.393 -170.119 140.746C-170.119 141.1 -170.295 141.807 -170.295 141.984C-170.648 141.984 -171.178 143.045 -171.531 143.929C-171.531 143.929 -171.354 144.106 -171.531 144.636C-172.06 143.929 -173.648 150.824 -173.648 149.41C-175.942 157.189 -177.883 161.963 -179.294 169.566C-179.294 169.389 -179.118 168.859 -179.118 168.859C-179.294 170.096 -179.647 170.45 -180 171.334C-179.294 170.981 -179.294 170.273 -178.588 169.212C-177.353 164.615 -176.824 163.555 -175.589 160.018C-175.412 158.604 -174.53 157.013 -174.001 155.775C-174.001 155.775 -174.177 155.598 -174.001 155.068C-174.001 155.952 -173.295 153.3 -173.472 153.3C-173.119 153.123 -172.589 151.532 -172.589 150.824C-172.236 151.001 -172.06 149.41 -171.707 148.703C-171.354 147.819 -170.648 146.758 -170.119 145.52C-169.413 143.752 -169.237 143.575 -168.884 142.514C-168.884 143.045 -168.355 141.807 -168.531 142.691C-168.707 142.338 -168.884 143.222 -169.06 143.575C-168.707 143.752 -169.237 145.343 -169.06 145.874C-168.002 145.166 -168.178 147.288 -166.943 145.166C-167.296 146.404 -167.119 146.581 -167.296 147.288C-167.472 147.111 -168.531 151.001 -168.884 149.41C-168.884 149.94 -168.531 149.763 -168.707 150.471C-169.237 151.178 -168.707 151.001 -169.06 152.062C-169.413 151.885 -169.943 154.714 -170.295 154.361C-170.295 154.891 -170.119 154.891 -170.119 155.068C-170.648 155.952 -170.295 155.598 -170.648 157.189C-170.825 157.366 -170.648 156.659 -170.825 157.189C-171.001 157.543 -170.825 157.897 -170.825 158.427C-170.472 156.836 -171.707 160.195 -171.354 159.665V159.311C-171.531 160.018 -171.707 161.256 -172.06 162.317C-172.06 162.494 -172.06 161.786 -172.236 162.317C-172.589 163.378 -172.766 164.792 -173.119 166.03C-173.295 167.091 -173.824 167.621 -174.001 168.682C-174.53 170.45 -174.883 173.279 -175.236 175.401C-175.589 176.815 -175.942 178.406 -176.118 179.114C-177 184.064 -177.706 188.485 -178.059 191.844C-177.706 191.667 -178.059 193.612 -177.883 193.789C-176.824 190.076 -175.765 183.534 -174.354 177.169C-174.001 177.169 -173.472 174.693 -173.472 174.163C-173.119 173.986 -172.766 172.925 -172.589 173.102C-172.413 172.218 -172.589 171.511 -172.236 171.334C-172.236 171.688 -172.413 172.218 -172.236 172.218C-172.236 172.041 -172.06 171.688 -172.06 171.688C-172.06 171.865 -172.236 172.218 -172.06 172.218C-171.707 170.981 -172.236 171.334 -171.883 170.096C-171.883 170.804 -171.354 169.036 -171.354 170.273C-171.531 170.627 -171.531 170.096 -171.707 170.804C-172.06 172.041 -171.707 171.688 -171.883 172.925C-171.354 172.218 -171.178 171.865 -171.001 173.102C-171.001 173.102 -171.178 173.102 -171.178 173.456C-171.001 173.986 -171.178 174.163 -170.825 173.809C-171.001 174.693 -170.825 174.517 -170.825 175.047C-171.178 175.047 -170.825 175.224 -171.001 175.931C-171.178 176.462 -171.354 176.108 -171.354 176.815C-171.001 177.169 -171.531 178.23 -171.531 179.291C-171.354 179.291 -171.354 179.114 -171.354 179.114C-171.531 179.998 -171.531 180.528 -171.531 181.235C-171.707 181.943 -171.883 182.65 -172.06 183.003C-171.531 182.827 -172.413 185.125 -172.06 185.479C-172.413 186.54 -172.589 188.308 -172.942 189.015C-172.766 189.369 -173.119 190.076 -172.766 190.606C-173.295 194.142 -173.648 198.386 -173.295 199.8C-173.648 200.331 -173.295 202.629 -173.295 204.397C-173.119 203.867 -173.119 203.513 -172.766 203.513C-172.766 202.629 -172.589 202.629 -172.589 201.745C-171.883 201.215 -172.589 197.855 -171.707 197.502C-171.883 197.325 -171.531 196.618 -171.531 196.264C-171.707 195.203 -171.178 193.966 -171.001 192.551C-171.001 192.905 -171.001 193.435 -171.001 193.435C-170.648 190.606 -170.119 188.661 -169.943 185.832C-169.766 185.656 -169.237 184.772 -169.766 185.302C-169.59 185.125 -169.59 184.064 -169.413 184.064C-169.237 184.241 -169.59 186.009 -169.413 186.186C-169.59 186.54 -169.766 188.308 -169.943 188.485C-169.766 188.485 -169.766 188.485 -169.766 188.838C-170.825 194.319 -170.825 199.8 -170.472 204.751C-170.119 204.928 -169.766 203.513 -170.119 202.099C-169.766 202.983 -169.59 201.038 -169.413 200.861C-169.413 200.861 -169.59 200.508 -169.59 200.331C-169.413 200.331 -169.237 199.447 -169.06 199.093C-168.707 194.496 -167.825 191.49 -167.296 186.009C-167.119 185.302 -166.59 185.302 -166.414 184.948C-166.767 185.832 -166.237 185.302 -166.237 186.186C-166.414 186.716 -166.59 186.54 -166.59 187.424C-166.414 187.424 -166.414 187.424 -166.414 187.777C-166.59 187.954 -166.414 188.485 -166.59 189.015C-166.767 189.015 -166.767 189.015 -166.767 189.369C-166.767 189.369 -166.767 189.369 -166.767 189.722C-166.767 189.722 -166.767 189.899 -166.59 190.076C-166.414 189.192 -166.237 188.131 -166.237 187.777C-166.061 188.131 -165.884 186.716 -165.708 187.6C-165.531 186.363 -165.531 186.363 -165.355 186.716C-165.355 185.302 -164.473 183.534 -165.002 182.827C-164.826 183.003 -164.296 182.473 -164.473 181.943C-164.649 182.827 -164.473 181.412 -164.473 181.412C-164.12 181.235 -164.296 179.998 -163.943 179.114C-163.591 179.821 -163.061 177.346 -163.591 178.583C-163.414 176.992 -163.238 178.053 -163.061 177.169C-162.885 175.754 -162.708 175.047 -162.179 173.809C-162.355 173.809 -162.003 172.572 -162.003 172.041C-161.12 170.096 -160.062 166.737 -159.003 163.378C-157.944 159.842 -156.709 156.305 -155.65 153.476C-154.768 151.001 -153.357 147.288 -151.769 143.752C-151.769 142.868 -150.886 140.923 -150.534 140.569C-150.181 138.271 -148.416 135.972 -148.063 134.028C-147.534 133.144 -147.358 132.436 -146.828 132.259C-147.005 131.729 -145.946 130.491 -146.299 129.961C-146.299 130.491 -144.887 126.955 -145.24 128.546C-144.887 127.486 -144.887 127.309 -144.181 126.071C-144.358 126.071 -144.534 125.894 -144.181 125.364C-142.593 123.949 -142.417 121.474 -141.005 119.883C-140.123 118.115 -140.123 117.761 -139.77 116.877C-139.594 116.877 -139.594 117.054 -139.417 116.7C-139.241 115.993 -138.888 115.993 -137.653 114.048C-137.653 113.871 -138.006 114.048 -137.829 113.695C-137.477 113.518 -137.3 112.811 -137.124 112.457C-136.947 112.457 -136.771 112.28 -136.947 112.634C-136.594 111.573 -135.712 111.042 -135.359 110.158C-136.241 111.042 -134.124 107.506 -133.595 107.506C-133.418 106.445 -132.889 106.269 -132.36 104.854C-131.83 104.501 -131.301 103.793 -130.242 102.379C-130.595 102.379 -129.713 101.141 -129.007 100.434C-129.184 100.964 -126.89 97.9586 -127.066 97.7818C-126.184 96.8978 -125.831 96.3673 -124.772 95.1297C-125.125 94.9529 -124.42 94.5993 -124.596 94.2456C-124.42 94.4224 -124.067 93.7152 -124.067 93.5384C-123.89 93.7152 -123.008 92.4776 -122.655 92.4776C-122.479 91.9471 -120.891 90.179 -121.949 91.2399C-121.596 90.7095 -121.42 90.5327 -120.891 89.8254C-120.185 89.6486 -119.832 88.9414 -119.126 88.2342C-119.126 88.2342 -119.303 88.2342 -119.479 88.2342C-118.597 87.5269 -118.597 86.8197 -117.538 85.7588C-117.009 85.582 -116.127 84.698 -115.421 83.8139C-115.597 84.1676 -115.774 83.9908 -115.597 83.6371C-114.715 82.9299 -114.186 82.2227 -113.833 82.2227C-113.656 81.5154 -113.303 81.5154 -112.598 80.985C-112.951 80.985 -111.892 79.9242 -111.892 79.7473C-111.186 79.5705 -109.951 78.1561 -109.422 77.6256C-109.775 77.8025 -108.892 76.7416 -108.539 76.388C-107.657 75.8576 -106.775 74.9735 -105.893 74.4431C-105.893 74.0895 -105.54 73.7359 -105.363 73.3822C-105.011 73.5591 -105.363 73.2054 -104.658 72.8518C-103.07 71.9678 -102.893 71.4373 -101.305 70.0229C-100.776 70.0229 -98.8349 68.2548 -98.8349 68.962C-100.423 70.0229 -102.011 72.3214 -103.599 73.5591C-104.305 74.2663 -104.481 74.2663 -105.187 74.7967C-106.069 75.8576 -106.069 77.4488 -103.775 75.8576C-102.364 74.4431 -101.305 73.7359 -100.423 73.2054C-98.6584 71.2605 -97.5998 71.0837 -96.0118 70.0229C-95.8353 69.4925 -93.1887 67.7244 -93.718 68.2548C-92.6593 67.5476 -91.9535 66.8403 -91.6006 66.3099C-91.7771 66.8403 -90.3655 65.4259 -90.3655 65.6027C-91.4242 66.4867 -91.0713 66.4867 -91.9535 67.1939C-91.2477 67.0171 -91.9535 67.7244 -92.3064 68.078C-90.542 67.1939 -90.3655 66.8403 -87.8953 64.8954C-87.8953 65.0723 -87.7188 64.8954 -87.3659 64.8954C-87.5424 65.0723 -87.5424 65.2491 -87.7188 65.4259C-88.601 65.9563 -88.2481 65.4259 -88.9539 65.9563C-89.6597 66.8403 -90.0126 67.3708 -90.0126 67.7244L-90.3655 68.078V68.2548C-91.0713 68.7852 -91.4242 69.1388 -91.7771 69.1388C-91.7771 69.4925 -92.4829 70.5533 -93.1886 71.4374C-93.5415 71.791 -94.0709 72.1446 -94.2473 72.1446C-94.6002 72.8518 -95.306 73.5591 -95.4824 74.0895C-96.894 75.1503 -97.5998 76.2112 -98.3056 77.4488C-99.7171 78.5097 -100.423 79.7474 -100.952 80.8082C-102.011 81.3386 -102.893 82.7531 -103.423 83.8139C-104.128 84.5212 -104.305 84.5212 -105.011 85.2284C-105.716 86.2893 -106.422 87.5269 -107.304 88.2342C-108.01 89.295 -108.539 90.8863 -109.598 91.2399C-109.951 91.9471 -111.186 93.892 -111.892 94.5993C-112.951 96.8978 -114.539 99.3731 -116.127 101.848C-116.303 102.379 -116.832 104.677 -116.303 103.793C-116.127 103.97 -116.479 104.324 -116.479 104.677C-116.656 104.854 -117.009 104.854 -117.538 105.561C-118.068 106.799 -117.538 106.799 -117.362 107.153C-116.832 106.269 -116.479 105.561 -116.303 104.324C-113.48 100.964 -109.069 93.7152 -105.187 88.9414C-104.128 87.8805 -103.422 87.3501 -102.187 85.582C-101.658 85.0516 -101.305 84.8748 -100.776 84.5212C-100.07 83.1067 -98.6585 82.0459 -98.1291 82.2227C-97.5998 81.6922 -97.2469 81.1618 -97.0704 80.8082C-95.8353 79.7474 -95.1295 80.2778 -95.6589 80.985C-95.4824 80.985 -94.9531 80.2778 -94.7766 80.101C-94.4238 80.101 -95.1295 80.6314 -94.7766 80.6314C-94.4238 80.2778 -94.2473 79.7473 -93.8944 79.7473C-93.5415 79.0401 -93.718 79.0401 -93.5415 78.5097C-93.0122 77.9793 -92.8357 78.1561 -92.4828 77.6256C-92.8357 78.8633 -90.1891 76.2112 -90.3655 75.6808C-89.6597 75.5039 -88.9539 74.6199 -88.601 74.4431C-87.8953 73.3822 -87.013 72.4982 -86.1308 72.3214C-85.7779 71.791 -85.425 71.4374 -85.0721 71.2605C-84.8957 70.5533 -82.9548 69.6693 -81.3668 68.078C-79.7788 67.7244 -78.3671 65.2491 -76.4262 64.7186C-75.7205 64.365 -76.2498 64.365 -75.7205 64.0114C-72.1915 61.7129 -69.0155 59.4144 -65.4866 57.2927V57.4695C-64.9573 57.1159 -63.1928 56.055 -63.3693 56.055C-63.7221 56.2318 -64.075 56.4086 -64.2515 56.5854L-63.1928 55.8782C-62.8399 55.8782 -62.6635 56.055 -62.8399 56.2318C-63.7222 56.5854 -63.3693 56.4086 -63.5457 56.5854C-63.8986 56.7623 -63.8986 56.5854 -64.4279 56.7622C-65.1337 57.6463 -66.5453 58.7071 -66.3689 59.2376C-65.3102 58.884 -63.8986 59.0608 -63.1928 59.4144C-61.4283 58.5303 -59.311 57.9999 -57.5466 57.4695C-57.3701 57.9999 -59.1346 58.884 -58.4288 59.2376C-57.3701 58.7071 -57.5465 59.5912 -56.4879 59.0608C-56.135 58.884 -55.2528 58.1767 -54.7234 57.6463C-54.3705 57.6463 -53.4883 57.9999 -54.0176 58.5303C-48.0185 55.8782 -40.9606 53.0493 -33.7264 50.574C-33.7264 50.7508 -32.3148 50.0435 -32.6677 50.3971C-32.1384 50.2203 -31.609 49.8667 -31.4325 50.0435C-33.7263 51.2812 -37.0788 52.5188 -37.0788 53.4029C-37.0788 52.8725 -37.7846 53.9333 -37.0788 53.5797C-36.373 53.4029 -34.2557 52.8725 -33.197 52.1652C-31.609 51.9884 -30.5503 52.1652 -29.3152 51.458C-29.3152 51.8116 -28.2565 51.458 -28.2565 51.6348C-24.9041 50.0435 -24.3747 51.458 -26.4921 52.342C-27.9036 52.5188 -27.7272 52.8725 -28.6095 53.0493C-25.6099 52.6957 -21.3752 51.1044 -18.9049 51.2812C-15.1996 50.574 -12.3764 50.0435 -10.9649 50.574C-9.72975 50.3971 -9.37683 50.2203 -7.96527 50.0435C-7.08304 50.0435 -6.37724 50.0435 -5.14212 50.0435C-4.25989 49.3363 -2.49545 49.6899 -1.08389 49.5131C-0.731003 49.3363 0.15126 49.1595 0.15126 48.9827C0.85704 49.1595 2.09213 48.9827 3.1508 48.9827C3.1508 48.4523 4.56241 48.6291 5.62109 48.4523C5.62109 48.6291 5.79749 48.6291 5.79749 48.6291C4.56236 49.3363 1.73927 48.9827 1.91571 49.8667C1.91571 49.6899 2.09215 50.0435 1.73926 50.0435C2.79793 50.0435 2.62148 50.0435 3.32726 50.0435C3.50371 49.6899 3.50374 50.0435 3.85663 50.0435C3.85663 49.8667 4.91527 49.8667 5.09172 49.5131C6.32684 49.5131 6.85619 49.6899 7.91486 49.6899C8.09131 49.3363 9.14996 49.3363 9.3264 49.1595C9.3264 49.5131 9.67931 49.3363 10.3851 49.3363C10.3851 49.5131 10.0322 49.5131 10.2086 49.5131C11.0909 49.3363 11.0909 49.5131 11.7967 49.6899C12.1496 49.1595 14.9727 49.1595 14.6198 49.3363C16.3842 49.3363 16.2078 49.3363 17.0901 48.9827C19.3839 49.1595 19.9132 49.3363 21.3248 48.8059C22.9128 49.3363 24.5008 48.9827 25.9124 48.8059C26.971 49.1595 28.0297 49.1595 29.4413 49.1595C29.9706 48.9827 29.0884 48.9827 29.9706 48.9827C30.147 49.3363 31.0293 49.1595 31.3821 49.5131C31.735 49.3363 33.3231 49.6899 32.088 49.3363L33.3231 49.5131C33.4995 49.3363 32.9702 49.3363 33.3231 49.3363C33.6759 49.5131 34.5582 49.3363 34.7346 49.5131C34.3818 49.5131 34.3817 49.5131 34.2053 49.6899C34.9111 49.8667 36.6756 50.3971 36.4991 50.0435C36.4991 50.2203 35.7933 50.0435 35.7933 50.0435C37.3813 50.2203 37.2049 49.6899 37.0284 49.5131C37.3813 49.8667 37.9107 49.5131 38.2636 49.8667C37.9107 49.8667 37.7342 49.8667 37.7342 49.8667C38.44 50.0435 38.6165 50.2203 38.9693 50.3971C40.3809 50.574 41.0867 50.3971 41.9689 50.3971C41.4395 50.574 42.4983 50.7508 42.6747 50.9276C43.9098 51.2812 44.6156 50.9276 46.38 51.2812C46.38 51.458 46.7329 51.6348 47.2623 51.8116C48.8503 51.8116 50.0854 52.1652 51.6734 52.6957C52.3792 52.5188 54.3201 52.8725 54.8495 53.4029C55.9081 53.5797 56.261 53.4029 57.849 53.9333C58.0255 54.2869 59.0842 54.6405 59.9664 54.8174C60.3193 54.8174 60.1428 54.6405 60.4957 54.6405C61.5544 54.9942 62.7895 55.5246 63.4953 55.8782C63.6718 55.7014 64.3775 55.8782 64.554 55.8782C65.2598 56.2318 65.9656 56.7623 66.4949 56.5854C66.4949 56.7623 66.3184 56.7623 66.6713 56.9391C66.8477 56.9391 67.2007 57.1159 67.3771 57.1159C69.1416 56.9391 68.7887 57.6463 70.9061 58.3535C71.4354 58.3535 72.1411 58.5303 72.8469 58.7071C72.3176 59.0608 74.0821 59.0608 73.3763 59.2376C73.9056 59.4144 74.2585 59.5912 74.6114 59.768C74.9643 59.768 76.1994 59.768 77.0817 60.4752C76.7288 60.2984 76.3758 60.1216 76.3758 60.2984C77.0816 60.652 77.7874 61.0057 78.1403 61.3593C78.3167 61.0057 79.199 61.5361 79.9048 61.7129C81.1399 62.4201 82.1985 62.9506 83.4337 63.1274C85.0217 64.1882 86.0804 64.5418 87.6684 64.8954C88.7271 65.7795 89.7858 65.9563 91.1973 66.4867C92.256 67.5476 93.6675 67.5476 94.9026 68.2548C95.2555 68.4316 95.6084 68.962 95.9613 69.1388C96.6671 69.4925 99.4902 70.3765 99.4902 71.0837C100.549 71.6142 102.843 72.4982 103.549 73.7359C104.254 74.0895 104.607 74.0895 105.489 74.6199C106.019 74.9735 106.195 75.3271 106.372 75.6808C107.254 76.388 107.96 76.388 109.724 77.6256C109.548 77.8025 109.548 77.8025 109.901 78.1561C111.136 78.8633 112.724 79.5705 113.077 80.4546C114.135 81.3386 114.665 81.5154 115.194 81.869C115.9 82.5763 116.253 83.1067 116.782 83.6371C117.488 83.9908 118.37 84.5212 119.252 85.0516C119.076 85.2284 119.076 85.2284 119.252 85.4052C119.782 85.7588 120.134 86.2893 120.134 86.2893C119.958 86.1124 121.193 86.9965 122.075 87.5269C122.428 87.8805 122.252 88.0574 122.428 88.2342C123.487 89.295 123.84 89.1182 124.722 89.8254C125.428 90.5327 125.604 91.0631 126.134 91.5935C126.663 91.7703 127.016 92.1239 127.722 92.4776C128.427 93.7152 129.662 94.9529 130.368 95.1297C131.603 96.8978 132.133 97.4282 133.721 98.6659C133.015 98.489 135.132 100.257 133.897 99.5499C134.956 100.611 135.485 101.141 136.191 101.495C136.191 102.732 137.603 103.44 139.191 105.208C139.014 105.738 140.249 106.976 140.955 107.329C142.014 108.567 141.484 108.567 142.543 109.982C142.896 110.158 143.425 110.689 144.131 111.573C143.778 111.75 144.484 112.457 144.66 112.987C145.19 113.164 145.366 113.518 146.072 114.402C146.425 115.816 147.66 116.7 148.542 117.938C148.013 117.761 149.072 118.822 148.719 118.822C149.424 119.883 149.777 120.06 150.307 120.767C150.66 121.297 151.012 122.005 151.012 122.535C148.189 118.115 145.543 114.402 142.543 110.512C139.543 106.799 136.367 102.909 132.309 98.8427C131.956 98.3122 131.603 97.7818 131.074 97.2514C130.545 96.721 130.015 96.5442 129.663 96.1905C128.78 94.7761 127.192 93.7152 125.957 92.6544L126.134 92.4776C125.251 91.5935 124.722 91.2399 124.193 90.8863C124.016 90.8863 124.369 91.2399 124.193 91.4167C123.134 90.5327 122.252 89.6486 122.958 89.8254C122.781 89.4718 122.428 89.1182 121.899 88.7646C121.37 88.7646 122.075 89.1182 121.546 89.1182C120.84 88.411 120.664 88.411 120.134 88.0573C120.84 89.1182 120.84 88.9414 121.546 90.0022C120.487 88.9414 119.958 89.1182 119.076 87.7037C118.37 87.3501 117.311 86.2893 116.958 86.2893C117.311 86.8197 118.017 87.1733 117.488 87.1733C118.194 87.3501 119.076 88.2342 120.311 89.295C120.311 89.4718 120.134 89.4718 120.311 89.6486C121.37 90.179 122.428 91.5935 122.605 90.8863C122.075 90.3559 121.722 90.3559 121.722 90.0022C122.428 90.7095 122.428 90.3559 122.958 90.8863C122.958 91.2399 123.84 91.7703 124.193 92.4776C123.487 91.9471 123.31 91.7703 122.781 91.4167C123.31 92.8312 126.134 94.0688 126.487 95.4833C126.487 94.9529 127.898 96.721 128.957 97.2514C128.427 96.8978 129.133 97.605 128.957 97.605C129.839 98.6659 131.074 99.7267 131.78 100.08C131.427 99.9035 131.78 100.257 131.427 100.08C132.133 100.964 132.133 101.141 133.191 102.202C133.368 102.202 134.25 102.556 134.427 103.086C133.897 102.379 134.427 103.616 134.603 103.97C134.779 103.97 134.427 103.616 134.779 103.793C134.603 103.793 135.132 104.324 135.132 104.501C134.25 103.616 134.603 104.324 133.897 103.793C133.544 103.44 132.839 102.379 132.486 102.025C132.662 102.202 132.662 102.202 132.486 102.025C132.309 101.672 132.662 101.672 132.486 101.318C131.074 99.5499 132.133 101.672 131.78 100.611C132.133 101.141 132.133 101.318 132.309 101.495C130.545 99.9035 126.31 95.3065 122.958 92.1239C122.075 91.5935 122.958 92.8312 122.252 92.4776C122.605 92.3008 121.899 91.7703 122.428 91.9471C121.899 91.4167 121.899 91.2399 121.722 90.8863C120.664 90.3559 118.546 87.8805 116.253 86.4661C115.9 86.1125 115.723 85.7588 115.547 85.4052C115.37 85.2284 112.9 83.9908 112.547 83.1067C110.959 82.0459 111.312 82.2227 109.724 81.3386C109.195 80.2778 107.783 79.5705 106.725 79.2169C106.195 78.1561 103.372 77.272 102.666 76.2112C102.49 75.8576 101.961 76.0344 101.431 75.3271C100.372 75.1503 98.2551 73.7359 97.9023 73.2054C97.7258 73.3822 97.1964 73.0286 96.6671 72.8518C96.8435 72.675 94.3734 71.2605 92.9618 70.7301C92.7853 70.3765 92.256 70.3765 92.4324 70.1997C91.3737 70.0229 90.1386 68.962 89.08 68.6084C87.3155 67.1939 83.0808 65.9563 81.6692 64.7186C79.0225 63.8346 77.9639 63.3042 75.6701 62.4201C75.6701 62.7737 76.3758 62.7737 75.4936 62.7737C75.8465 62.9505 76.023 63.1274 76.1994 63.1274C75.3172 62.4201 76.0229 63.3042 74.7878 62.7737C75.3172 62.7737 74.2585 62.2433 75.3172 62.5969C74.0821 62.0665 75.1407 62.4201 75.1407 62.2433C74.435 62.0665 74.082 61.7129 73.0234 61.3593C72.494 61.3593 72.1412 61.5361 71.6118 61.5361C71.6118 61.3593 70.3767 61.0057 70.5531 60.8288C70.906 61.0057 71.2589 61.0057 71.2589 61.0057C70.906 60.8288 70.0238 60.652 70.2002 60.4752C70.7296 60.652 71.0825 60.8288 70.9061 60.4752L68.6122 59.5912C68.2593 59.768 68.7887 59.9448 68.9651 60.1216C68.4358 60.1216 69.1416 60.2984 68.2594 59.9448C67.9065 60.1216 68.9651 60.2984 68.6122 60.4752C68.2593 60.1216 67.2007 59.9448 66.8478 59.5912C67.2007 59.768 67.5535 59.768 67.5535 59.768C66.6713 59.4144 67.0242 59.2376 66.6713 59.0608C65.7891 58.884 64.9068 58.5303 64.9068 58.884C64.554 58.3535 64.9069 58.7071 64.2011 58.7071C63.1424 58.1767 62.7895 57.8231 62.2602 57.9999C62.4366 57.8231 61.5544 57.6463 61.0251 57.6463C61.2015 57.8231 61.3779 57.8231 61.3779 57.9999C61.025 57.8231 60.3193 57.6463 60.1428 57.8231C60.6722 57.9999 61.0251 57.8231 61.0251 58.1767C60.1428 58.1767 59.7899 57.8231 59.0842 57.4695C59.4371 57.4695 59.7899 57.6463 59.7899 57.6463C59.0842 57.4695 59.2606 57.2927 58.7312 57.1159C58.2019 57.1159 58.5548 57.1159 58.0255 56.9391C57.849 57.1159 56.7903 56.9391 56.261 56.9391C55.5552 56.7623 55.2024 56.4086 54.1437 56.2318C53.6144 56.2318 54.4966 56.5854 53.7908 56.4086C53.7908 56.2318 53.6143 56.2318 53.4379 56.055C53.6143 56.4086 52.7321 55.7014 52.3792 56.055L53.085 56.4086C52.2028 56.2318 52.0263 56.5854 52.2028 56.7622C52.2028 56.5854 52.5556 56.5854 52.7321 56.7622C52.5556 56.7622 52.3792 56.7622 52.0263 56.7622C51.8499 56.7622 51.6735 56.5854 51.497 56.5854C51.6735 56.4086 51.8499 56.4086 52.0263 56.2318C50.9677 55.8782 51.497 55.8782 52.0263 55.8782C51.497 55.7014 51.3206 55.5246 50.6148 55.5246C49.909 55.5246 50.9677 55.8782 50.2619 55.7014C50.6148 55.5246 49.7325 55.5246 49.3796 55.3478C48.6739 55.3478 49.0267 55.8782 48.321 55.7014C47.7916 55.8782 49.2032 56.2318 48.4974 56.055C48.4974 55.8782 47.6152 56.2318 47.4387 55.8782C48.321 55.7014 46.9094 55.7014 47.9681 55.5246C46.9094 55.3478 47.6152 55.3478 47.2623 54.9942C46.38 54.8174 45.4978 54.8174 44.792 54.8174C44.4391 55.171 44.9685 55.3478 43.9098 55.171C44.792 55.171 42.4983 54.8174 43.5569 54.6405C41.7925 54.1101 42.8511 54.6406 41.0867 54.2869C40.9102 54.6406 41.616 54.6405 40.5573 54.4637C40.2045 54.6405 40.9103 54.6405 40.9103 54.8174L39.6751 54.6405C39.6751 54.4637 39.1458 54.2869 39.3222 54.1101C37.9106 53.9333 36.852 53.9333 36.3226 54.1101C35.7933 53.9333 35.4404 53.7565 34.9111 53.7565C32.0879 53.9333 30.4999 53.2261 28.7354 53.5797C26.971 53.4029 25.7359 53.2261 24.8537 53.5797C21.8541 53.2261 16.7372 53.9333 14.0905 53.4029C13.3847 53.4029 13.7376 53.5797 12.6789 53.5797C13.3847 53.4029 12.326 53.5797 12.1496 53.4029C13.2082 53.4029 11.9731 53.2261 11.9731 53.0493C11.0909 53.2261 10.0322 52.8725 8.97354 53.2261C8.97354 53.0493 8.62062 53.0493 8.44418 53.0493C7.73839 53.2261 7.20911 53.0493 6.50331 53.0493C6.50331 53.0493 6.50331 53.2261 6.32686 53.2261C3.15083 53.2261 -1.26033 53.5797 -5.49504 54.1101C-9.90617 54.6405 -13.9644 55.3478 -16.7876 55.5246C-19.6107 55.7014 -23.6689 56.7623 -26.1392 56.9391C-30.9032 58.1767 -34.9615 59.0608 -38.8433 60.1216C-42.7251 61.1825 -46.6069 62.4201 -50.8416 64.365C-51.1945 64.5418 -51.0181 64.1882 -51.5474 64.5418C-51.5474 64.5418 -51.7238 64.7186 -51.9003 64.8954C-51.7238 65.2491 -51.5474 65.2491 -51.018 65.2491C-51.018 65.2491 -50.8416 65.0723 -50.6652 64.8954C-48.7243 64.8954 -46.0775 64.0114 -43.7838 63.6578C-43.7838 63.481 -42.9016 63.1274 -42.3722 62.9505C-41.8429 62.9505 -40.9606 62.5969 -40.6077 62.7737C-37.9611 61.5361 -38.6668 62.9506 -36.0201 61.7129C-35.4908 62.2433 -32.3148 60.652 -31.609 61.0057C-32.6677 61.7129 -32.8441 62.2433 -33.7264 62.9505C-40.7842 65.4259 -49.2536 69.1388 -54.7234 71.2605C-55.9585 71.9678 -56.6643 72.3214 -57.1936 72.675C-57.3701 72.4982 -58.0759 73.0286 -58.0759 73.0286C-59.311 73.9127 -60.5461 74.7967 -61.7812 75.1503C-62.8399 76.0344 -63.5457 76.7416 -65.1337 77.6256C-64.7808 77.6256 -65.6631 78.1561 -65.6631 78.3329C-64.0751 77.9793 -61.2519 76.7416 -59.6639 76.0344L-59.4875 76.2112C-61.0755 77.4488 -61.7813 78.5097 -63.7222 79.9242C-67.4275 82.5763 -71.8386 85.2284 -74.6618 88.0573C-77.4849 90.8863 -79.2494 93.3616 -82.249 96.3673C-85.9544 100.08 -89.1304 104.324 -92.4828 107.86C-93.8944 109.805 -95.306 111.926 -97.2469 114.402C-100.599 119.529 -103.423 124.126 -106.422 129.961C-106.422 130.845 -107.128 131.729 -107.834 133.144C-107.834 133.497 -107.657 133.497 -107.834 133.851C-109.245 136.326 -108.716 137.033 -110.127 139.509C-110.127 139.862 -110.304 140.746 -109.775 140.393C-109.775 140.746 -110.304 141.453 -110.48 142.161C-110.304 141.984 -110.127 141.63 -110.127 141.63C-110.48 142.514 -110.304 142.161 -110.127 142.161C-110.833 143.929 -111.539 147.111 -111.01 147.288C-111.186 146.581 -109.951 146.404 -109.775 145.166C-109.951 145.52 -109.598 144.636 -109.422 144.106C-108.892 143.929 -108.716 143.222 -108.363 142.691C-108.363 142.161 -108.187 141.807 -108.01 141.277C-107.481 140.569 -106.951 139.862 -106.775 140.216C-106.599 139.685 -106.775 140.039 -106.599 139.332C-106.775 139.509 -106.951 139.862 -106.951 139.862C-106.599 139.155 -106.775 138.625 -106.069 137.917C-106.422 138.801 -104.834 137.387 -104.481 136.68C-104.834 136.503 -103.246 134.558 -103.423 134.204C-102.893 133.674 -102.187 131.552 -101.129 130.668C-100.599 128.9 -98.8349 126.778 -98.1291 125.364C-97.5998 125.364 -97.4233 124.833 -97.0704 125.01C-97.7762 125.718 -97.4233 125.718 -97.7762 126.425C-97.9527 126.425 -98.1291 126.955 -98.8349 127.839C-98.6585 127.662 -99.5407 129.784 -99.1878 129.254C-100.599 131.022 -101.129 132.967 -102.717 134.735C-102.717 135.088 -102.364 135.088 -102.717 135.442C-103.07 135.796 -103.07 136.68 -103.599 136.68C-104.305 138.271 -104.128 138.801 -104.128 139.685C-104.481 139.862 -104.481 140.393 -104.834 140.746C-104.481 140.746 -105.187 141.984 -104.834 142.161C-105.187 142.868 -105.187 143.222 -105.716 143.929C-105.54 144.106 -105.893 144.813 -105.716 145.166C-105.54 144.813 -105.363 145.166 -105.187 144.99C-105.363 145.343 -105.54 145.52 -105.716 145.697C-105.363 145.697 -104.834 144.813 -104.658 145.166C-104.481 144.813 -104.481 144.636 -104.305 144.636C-104.481 145.343 -104.305 144.813 -103.952 144.813C-105.363 147.465 -105.011 151.355 -106.422 154.007C-106.069 154.361 -106.422 154.891 -106.069 155.245C-105.893 154.537 -105.716 154.891 -105.54 154.537C-105.54 154.537 -105.716 154.361 -105.54 154.007C-105.363 153.83 -105.187 153.83 -105.187 154.184C-104.834 153.3 -105.363 153.476 -105.187 152.946C-104.658 152.416 -104.481 151.885 -103.952 151.355C-103.952 151.885 -104.128 152.946 -103.599 152.416C-104.128 153.476 -103.952 153.653 -104.481 154.537C-104.128 155.421 -103.775 155.068 -102.893 153.83C-102.893 153.653 -103.07 153.653 -102.893 153.123C-102.717 153.3 -102.364 152.769 -102.187 152.592C-101.482 150.648 -100.952 148.703 -100.246 147.642C-100.599 147.642 -99.5407 146.051 -100.246 146.935C-99.8936 145.874 -99.5407 145.52 -99.0114 144.459C-99.1878 143.929 -98.482 143.222 -98.3056 142.691C-97.5998 142.338 -97.2469 141.277 -96.894 140.039C-96.5411 140.216 -95.1296 137.033 -95.4824 138.271C-95.1296 137.741 -95.1295 137.033 -94.7766 136.856C-94.6002 136.856 -94.7766 137.21 -94.4238 137.033C-94.9531 137.741 -94.9531 138.271 -95.306 138.448C-95.4824 140.746 -97.7762 144.459 -97.9527 146.935C-98.1291 146.935 -98.1291 146.758 -98.3056 147.111C-97.9527 147.288 -97.9527 147.288 -98.3056 147.819C-98.3056 148.172 -97.7762 147.465 -98.1291 147.995C-98.3056 148.172 -98.1291 148.172 -98.3056 148.349C-98.482 148.349 -98.3056 147.995 -98.482 148.349C-98.3056 148.349 -98.6584 148.879 -98.6584 149.056C-98.3056 148.526 -98.1291 148.526 -97.9527 148.172C-98.1291 148.172 -98.1291 147.995 -97.9527 147.642C-97.9527 147.642 -97.7762 147.819 -97.5998 147.465C-97.4233 147.111 -97.7762 147.111 -97.5998 146.404V146.581C-96.894 145.343 -95.8353 141.984 -95.1295 141.984C-95.1295 141.984 -95.306 142.514 -95.306 142.338C-95.1295 142.338 -95.1295 141.807 -94.9531 141.807C-94.7767 141.807 -94.9531 142.338 -94.4238 141.807C-95.1295 142.691 -94.4238 143.575 -94.2473 143.398C-94.2473 143.398 -93.3651 142.868 -93.1886 143.045C-93.1886 142.161 -92.13 141.63 -91.9535 140.746C-91.7771 140.746 -91.6006 140.393 -91.4242 140.569C-91.4242 141.1 -91.6006 141.277 -91.4242 141.277C-91.6006 141.63 -91.9535 142.161 -91.9535 142.161C-91.4242 141.1 -91.6006 142.161 -91.4242 141.807L-91.2477 141.1C-91.0713 141.277 -90.8948 140.923 -90.8948 140.923C-91.0713 141.277 -91.4242 141.453 -91.0713 141.453C-90.1891 139.862 -90.1891 139.685 -90.1891 138.978C-90.0126 138.801 -90.0126 138.978 -89.6597 138.448C-89.8362 138.271 -89.8362 138.271 -89.6597 137.917C-89.6597 138.094 -89.1304 137.741 -89.3068 137.741C-89.4833 138.271 -89.4833 137.387 -89.8362 137.917C-89.8362 137.917 -90.0126 138.094 -90.0126 138.271C-90.1891 138.801 -90.0126 138.448 -90.0126 138.801C-90.7184 139.332 -90.0126 138.625 -90.0126 138.094C-89.6597 137.917 -88.9539 137.21 -88.7775 137.387C-88.4246 136.326 -87.5424 135.088 -87.013 134.204C-86.8366 133.32 -86.8366 132.967 -86.1308 132.436C-86.1308 132.436 -86.3073 132.259 -86.1308 132.083C-85.9544 132.259 -85.9544 131.906 -85.6015 131.552C-85.6015 131.199 -85.425 131.199 -85.425 130.668L-84.8957 129.784C-84.3664 129.961 -84.8957 129.254 -84.0135 129.077C-84.0135 128.37 -82.4254 126.602 -82.4254 126.778C-82.0725 126.071 -81.8961 125.718 -81.3668 125.01C-81.1903 125.01 -80.8374 124.833 -80.4846 124.833C-80.661 125.187 -80.4845 125.187 -81.0139 125.718C-80.8374 125.718 -80.4845 126.248 -81.1903 126.425C-81.0139 126.248 -81.0139 125.894 -81.1903 126.248C-81.3668 126.778 -81.5432 126.955 -81.8961 127.486C-81.7197 127.839 -81.8961 128.016 -81.3668 128.193C-81.1903 128.016 -80.4845 127.132 -79.9552 126.602C-79.4258 125.718 -78.3671 124.126 -77.3085 123.065H-77.1321C-77.3085 123.242 -77.3085 123.242 -77.6614 123.419C-77.4849 123.949 -78.3672 125.01 -78.8965 125.894C-74.4854 119.176 -69.3684 112.987 -63.7222 107.506C-63.7222 107.506 -63.7222 107.329 -63.5457 107.153C-63.5457 107.153 -63.5457 107.153 -63.3693 107.153C-62.487 106.269 -61.7812 105.561 -60.899 104.854C-38.8433 83.9908 -9.02394 71.0837 23.795 71.0837C91.9031 71.0837 147.131 126.425 147.131 194.673C147.131 262.921 91.9031 318.262 23.795 318.262C7.38553 318.262 -8.31813 315.079 -22.6102 309.245C-23.316 309.422 -23.316 309.952 -22.6102 310.482C-21.728 311.013 -19.7871 311.366 -19.0813 312.074C-23.1396 311.013 -28.7859 308.184 -30.5503 308.538C-33.0206 307.83 -34.785 308.891 -33.0206 310.659C-31.2561 311.897 -29.3152 313.135 -28.0801 314.372C-28.9623 314.372 -29.8446 314.195 -31.0797 313.842C-27.7272 315.61 -25.0805 316.317 -22.2574 317.908C-21.3752 319.323 -17.3169 319.676 -15.9053 320.914C-15.9053 320.737 -15.5524 321.091 -15.0231 320.914C-14.4938 321.268 -14.4938 321.621 -13.4351 321.975C-13.788 321.975 -13.4351 322.329 -12.9057 322.505C-12.9057 322.329 -12.7293 322.329 -12.5529 322.329C-12.9058 323.036 -11.8471 323.743 -12.3764 324.097C-10.2591 326.218 -5.8479 326.572 -4.96567 328.517C-4.78922 328.87 -4.43636 329.224 -3.55412 329.578C-3.20123 329.578 -2.84833 329.578 -2.49544 329.578C-1.26031 330.285 1.38638 330.108 2.09216 331.169C1.91573 331.346 1.56284 331.346 1.20995 331.346C-3.55409 330.639 -7.25948 329.755 -11.4942 329.047C-12.0235 329.401 -12.9058 329.401 -14.3173 329.224C-14.3173 330.285 -16.2582 329.401 -16.6111 330.285C-16.964 331.523 -12.5528 333.114 -10.259 334.175C-10.7884 333.998 -10.0826 334.352 -10.259 334.528C-11.1413 334.528 -11.8471 334.528 -12.5529 334.352C-10.9649 335.766 -5.49504 336.65 -3.73058 337.888C-3.73058 338.241 -4.61278 338.241 -5.14212 338.241C-2.31898 339.302 1.20993 340.009 2.79794 341.07C4.73885 341.601 7.38554 341.954 9.15001 342.308C9.15001 342.485 9.50287 342.485 9.50287 342.485C9.14998 342.485 8.97351 342.662 9.3264 342.838C11.2673 342.485 12.5024 343.546 14.6198 343.369C14.4433 343.899 16.0313 343.722 15.502 344.253C14.0904 344.076 10.9144 344.076 9.85577 343.722C1.03348 342.838 -8.49463 340.893 -17.1405 337.888C-25.7863 335.059 -33.5499 331.346 -39.1962 327.81C-42.7251 326.042 -46.0776 323.566 -49.6065 321.091C-53.4883 318.439 -57.5466 315.433 -60.3697 312.427C-61.6048 311.543 -62.84 310.482 -63.0164 309.952C-64.2515 309.245 -64.7808 308.361 -65.4866 307.653C-67.2511 306.416 -69.192 303.94 -71.3093 301.819C-72.0151 300.935 -71.8386 300.227 -72.8973 299.52C-72.7209 299.874 -74.1325 298.283 -74.3089 297.929C-74.1325 298.106 -73.6031 298.813 -73.7795 298.459C-73.956 298.283 -74.3089 297.929 -74.4854 297.752C-74.3089 297.929 -74.1325 297.752 -74.4854 297.399C-75.8969 296.515 -76.4263 295.277 -76.7792 294.393C-76.9556 294.393 -77.6614 294.216 -77.8378 293.686C-77.132 294.746 -77.4849 292.978 -77.3085 293.332C-77.3085 293.155 -77.8378 292.625 -78.0143 292.271C-78.1907 292.448 -78.1907 292.271 -78.5436 292.094C-78.5436 292.094 -78.3671 292.271 -78.1907 292.094C-79.4258 290.857 -79.9552 290.68 -81.0139 289.265C-81.1903 289.442 -81.1903 289.265 -81.3668 288.912L-81.5432 289.089C-83.1312 287.497 -84.0135 286.967 -85.0721 285.729C-85.2486 285.729 -85.0721 286.083 -85.0721 286.26C-85.6015 285.729 -86.1308 284.845 -85.7779 285.729C-86.3073 284.845 -86.3073 285.376 -86.6602 284.668C-87.3659 284.315 -88.9539 283.431 -89.4833 282.547C-89.8362 282.547 -89.6597 283.431 -90.1891 282.723C-90.1891 282.547 -89.8362 282.547 -90.0126 282.37C-90.1891 282.37 -90.3655 281.839 -90.542 282.016C-90.542 282.193 -90.3655 282.37 -90.3655 282.37L-91.0713 281.309C-91.4242 281.132 -91.2477 281.663 -91.6006 281.486C-91.7771 280.779 -92.3064 280.779 -92.3064 280.779C-92.4829 280.248 -93.0122 280.071 -93.3651 279.364L-93.718 279.541C-94.4238 278.48 -95.1296 278.48 -95.4824 277.596C-95.306 278.126 -96.0118 277.242 -95.8353 277.773C-96.3647 277.066 -96.3647 277.419 -96.7176 276.535C-96.894 276.712 -97.2469 276.358 -97.5998 275.828C-97.7762 275.828 -97.5998 276.005 -97.5998 276.182C-98.482 274.767 -99.1878 274.944 -99.7171 273.883C-101.129 273.353 -102.717 271.231 -104.128 270.347C-104.128 270.347 -103.952 270.347 -103.952 269.993C-104.128 270.17 -104.481 269.993 -104.481 269.463C-105.011 269.463 -105.54 268.048 -105.716 268.579C-105.893 268.048 -106.246 268.048 -106.069 267.518C-106.422 267.872 -107.128 266.28 -107.304 266.811C-107.481 266.103 -108.01 266.28 -108.363 265.043C-108.539 265.043 -108.539 265.219 -108.716 265.043C-108.539 264.689 -109.069 264.159 -108.892 264.866C-109.422 263.628 -109.951 262.921 -110.657 262.744C-110.48 263.628 -110.48 263.982 -109.951 265.219C-110.657 265.573 -111.186 265.043 -111.186 265.75C-111.715 265.219 -112.245 264.512 -112.245 265.219C-111.892 265.219 -111.892 266.28 -111.539 266.988C-110.833 267.695 -110.657 268.225 -109.951 268.579C-109.069 270.17 -108.539 270.524 -107.657 271.585C-107.657 272.115 -107.304 272.292 -106.951 272.822C-107.128 272.822 -107.304 272.645 -106.951 273.176C-106.775 272.822 -105.893 275.474 -105.363 275.474C-105.893 275.298 -104.834 276.712 -105.363 276.535C-105.187 277.066 -104.834 277.242 -104.658 277.419C-104.658 277.596 -105.01 277.419 -104.834 277.773C-104.658 277.596 -104.481 277.596 -104.305 277.95C-104.481 277.95 -104.128 278.48 -104.305 278.48C-104.481 278.126 -104.658 277.95 -104.481 278.303C-104.481 278.126 -104.128 279.01 -104.128 279.187C-104.305 279.364 -105.011 279.187 -104.658 279.718C-105.54 279.718 -106.246 277.596 -107.304 276.889C-107.128 276.712 -107.481 276.535 -107.657 276.005C-107.834 276.005 -107.657 276.358 -107.834 276.182C-107.834 276.005 -108.01 276.005 -108.187 275.651C-107.834 275.828 -109.069 274.237 -109.245 273.353C-109.422 272.999 -109.422 273.353 -109.598 272.999C-109.422 272.645 -110.48 270.7 -111.01 270.347C-111.186 269.286 -111.363 269.64 -111.892 268.932C-111.539 268.932 -112.245 268.048 -112.245 268.048C-112.245 267.695 -112.421 267.164 -112.774 266.811C-112.421 266.811 -113.303 265.75 -112.774 265.573C-113.656 263.805 -113.833 263.628 -114.891 261.683C-115.068 261.683 -115.068 261.86 -115.244 261.33C-115.597 261.153 -115.068 262.037 -115.421 261.86C-115.774 261.153 -115.774 261.86 -116.127 261.153C-116.127 261.683 -115.421 262.567 -115.95 262.037C-115.774 262.744 -115.597 262.567 -115.421 263.275C-115.774 263.451 -114.362 265.573 -113.833 267.518C-113.656 268.048 -113.48 267.518 -113.127 268.225C-112.951 268.756 -113.48 268.225 -112.951 268.932C-112.774 268.932 -112.421 269.64 -111.892 270.524C-111.539 270.701 -111.892 270.17 -111.892 269.993C-111.539 270.524 -111.715 270.524 -111.539 270.877L-111.715 270.701C-111.363 271.408 -111.01 271.938 -110.657 272.469C-110.833 272.645 -110.304 273.883 -109.598 274.767C-110.304 274.237 -109.069 275.828 -109.245 276.182C-109.422 276.535 -110.48 275.474 -110.48 275.828C-111.01 274.59 -111.539 274.237 -112.068 273.706C-111.363 274.767 -111.715 274.767 -111.715 275.121C-111.186 275.474 -111.715 275.297 -111.539 275.651C-111.363 275.651 -111.186 276.005 -111.01 276.182C-111.539 275.651 -110.657 277.242 -111.363 276.358C-111.01 277.066 -111.363 276.535 -111.186 277.066C-111.363 277.066 -111.892 276.535 -111.715 277.066C-111.539 277.066 -111.539 277.066 -111.363 277.419C-111.539 277.242 -111.892 276.889 -112.068 277.242C-111.539 278.126 -112.068 277.95 -111.539 278.834C-110.127 280.248 -107.304 283.254 -107.128 285.022C-104.481 288.205 -105.716 289.089 -106.951 288.028C-106.422 288.381 -107.481 287.497 -107.657 287.32L-107.304 287.674C-108.01 286.79 -108.363 286.26 -109.598 284.845C-109.598 284.315 -110.657 282.9 -111.01 282.547C-110.833 282.723 -110.657 282.723 -111.01 282.193C-111.186 282.193 -111.539 281.132 -111.715 281.486C-110.304 283.607 -109.598 286.26 -108.187 288.381C-107.834 288.912 -106.951 289.973 -106.775 290.68C-106.599 290.503 -106.246 291.387 -105.893 291.564C-106.599 291.21 -105.011 292.802 -105.363 292.978C-105.187 292.802 -104.834 293.155 -104.481 293.332C-103.422 294.923 -102.187 296.514 -101.482 296.868C-101.305 297.399 -100.599 298.459 -100.07 299.167C-100.776 298.106 -100.599 299.167 -100.246 299.343C-100.423 299.167 -100.246 298.99 -100.07 299.167C-100.246 299.52 -100.776 299.167 -100.246 300.228C-100.423 300.051 -100.776 299.874 -100.952 299.874C-100.07 300.758 -100.246 300.758 -99.5407 301.642C-99.5407 301.642 -99.3642 301.465 -99.1878 301.819C-99.1878 301.819 -99.1878 301.819 -99.0114 301.996C-99.3643 301.819 -99.8936 301.465 -100.246 300.758C-100.423 300.581 -100.07 301.465 -100.423 300.935C-100.599 300.227 -102.187 298.636 -103.775 296.691C-105.363 294.746 -106.951 292.625 -107.304 290.857C-108.01 290.149 -108.01 289.973 -108.363 289.265C-108.187 289.442 -108.01 289.619 -108.01 289.619C-108.187 289.442 -108.187 289.265 -108.187 289.089C-108.716 288.558 -108.363 288.912 -108.716 288.028C-108.892 288.028 -108.716 288.381 -108.892 288.381C-111.539 284.668 -113.656 280.248 -115.597 277.773C-115.421 277.066 -116.832 274.237 -117.538 274.413C-118.068 273.529 -117.891 273.706 -118.067 272.822C-118.244 272.822 -118.95 271.761 -118.773 272.645C-118.773 272.645 -118.597 272.822 -118.773 272.822C-118.244 273.883 -117.891 274.413 -117.891 275.121C-118.244 276.358 -117.538 278.303 -116.832 280.425C-118.068 278.48 -118.244 277.596 -119.303 276.358C-119.479 275.298 -120.008 274.767 -120.361 273.883C-120.538 273.883 -120.891 273.353 -121.244 272.999C-121.067 272.292 -121.949 271.231 -122.126 270.347C-123.361 268.756 -123.184 267.341 -124.596 265.396C-124.772 263.628 -126.537 262.214 -126.713 259.738C-127.772 257.97 -128.831 254.965 -129.713 251.605C-130.772 248.423 -131.654 244.886 -132.713 242.765C-132.713 242.234 -132.889 241.527 -132.889 240.997C-133.595 240.643 -133.771 238.168 -133.771 237.284C-134.477 235.692 -135.359 231.449 -135.536 230.388C-135.889 229.858 -135.889 227.382 -136.241 225.614C-136.418 225.614 -136.418 225.614 -136.418 225.084C-136.947 225.084 -137.124 225.791 -137.3 224.377C-137.3 223.669 -136.771 223.846 -137.3 223.316C-136.947 223.316 -136.418 224.553 -136.418 222.962C-136.594 223.493 -136.771 221.725 -136.771 222.432C-136.594 222.432 -136.594 223.316 -136.771 223.139C-136.771 222.432 -137.124 222.962 -137.124 222.432C-137.124 222.078 -137.124 222.078 -137.124 221.725C-137.653 220.84 -138.182 220.84 -138.535 219.603C-139.065 219.78 -138.888 221.725 -138.888 223.316C-138.888 224.907 -138.888 226.322 -139.417 225.084C-139.594 223.846 -139.77 223.846 -139.594 222.962C-140.3 222.078 -140.476 216.951 -140.476 215.536C-140.476 215.713 -140.653 214.652 -140.653 213.945C-140.653 213.591 -141.005 213.945 -141.005 213.415V212.884C-141.005 213.591 -141.182 214.299 -141.358 213.415C-141.182 214.299 -141.358 214.475 -141.182 215.536C-141.358 215.536 -141.358 215.89 -141.535 215.89C-141.358 219.072 -141.888 220.487 -141.358 223.669C-142.064 224.377 -142.417 219.426 -143.123 217.481C-142.946 216.774 -143.299 214.829 -143.652 214.652C-143.652 212.53 -144.358 209.171 -144.358 206.519C-144.534 206.873 -144.887 205.812 -145.064 206.873C-144.887 205.989 -145.24 206.165 -145.064 205.281C-145.24 205.812 -145.77 205.812 -145.946 207.226C-145.946 205.989 -146.122 206.519 -146.122 207.049C-146.299 206.165 -146.299 206.519 -146.652 205.989C-147.005 206.519 -146.828 208.11 -147.005 208.464C-146.652 210.939 -147.358 211.47 -147.181 213.768C-147.005 213.945 -147.005 213.415 -147.005 213.768C-147.358 214.122 -147.358 216.067 -147.534 216.951C-147.358 217.128 -147.181 218.188 -147.181 219.072C-147.358 218.719 -147.534 220.133 -147.181 220.487C-147.358 220.487 -147.358 220.487 -147.534 220.84C-147.358 222.255 -147.005 223.139 -147.181 224.023C-147.181 223.669 -147.181 223.316 -147.358 223.139C-147.181 224.2 -147.71 224.023 -147.534 224.73C-147.887 224.2 -147.887 224.73 -148.063 225.438C-147.887 226.852 -147.71 226.145 -147.534 226.498C-147.71 226.498 -147.71 226.675 -147.71 226.852C-147.887 226.852 -147.887 226.322 -148.063 226.145C-148.24 227.029 -147.534 227.206 -147.71 228.09C-148.063 227.382 -148.063 228.266 -148.416 228.974C-148.416 228.974 -148.24 228.974 -148.24 229.151C-148.416 229.327 -148.416 230.211 -148.593 230.211C-148.593 231.095 -148.416 231.272 -148.24 231.803C-148.593 232.863 -148.24 235.162 -148.063 236.4C-148.416 235.869 -147.887 237.46 -148.24 237.284C-148.063 237.107 -147.887 238.168 -147.71 238.521C-148.063 238.168 -147.71 239.229 -147.887 239.052C-148.063 238.168 -148.24 236.576 -148.416 236.93C-148.063 237.46 -148.416 237.991 -148.416 238.875C-148.24 239.229 -147.887 240.997 -148.24 240.997C-148.063 242.058 -147.887 242.765 -147.71 243.649C-148.063 242.234 -147.358 244.886 -147.534 244.179C-147.358 245.063 -147.534 245.947 -147.534 246.478C-147.005 247.715 -146.828 250.368 -146.122 252.312C-145.946 253.196 -145.946 253.727 -145.77 254.788C-145.064 258.324 -143.476 262.214 -143.476 264.159C-142.241 266.103 -142.417 267.518 -141.182 270.17C-141.358 270.524 -141.358 270.347 -141.888 270.17C-141.711 270.701 -141.711 271.054 -141.711 271.408C-141.888 270.877 -142.064 270.877 -142.241 271.054C-142.064 271.585 -142.064 272.292 -141.711 272.999C-142.064 272.115 -142.064 271.585 -142.064 271.231C-141.535 272.469 -142.241 271.408 -141.711 272.645C-141.535 272.645 -141.535 272.469 -141.358 272.822C-141.358 272.999 -141.711 272.822 -141.535 273.176C-141.182 273.529 -140.829 274.59 -141.182 273.529C-140.3 275.297 -141.005 274.413 -141.005 274.944C-140.829 274.944 -140.653 275.651 -140.653 275.651C-141.182 274.767 -140.476 276.358 -140.476 276.182C-141.005 275.651 -141.711 273.706 -142.241 272.999C-142.064 272.999 -141.888 273.706 -141.888 273.353C-142.593 272.292 -142.77 271.054 -143.123 269.816C-143.652 269.463 -144.181 267.164 -144.181 266.634C-144.887 266.457 -144.711 265.043 -145.24 263.982C-145.064 264.335 -144.887 264.689 -145.064 264.866C-145.77 263.275 -145.24 263.805 -145.24 263.451C-145.593 262.567 -145.417 262.921 -145.593 262.39C-145.77 262.39 -145.77 262.567 -145.946 262.214L-147.887 255.495H-147.71C-148.24 254.788 -147.887 254.08 -148.416 253.373C-148.063 253.196 -148.416 253.196 -148.593 252.843C-148.416 252.666 -148.946 250.721 -148.769 251.959C-149.122 250.898 -148.769 251.252 -148.946 250.544C-149.298 250.544 -148.946 250.368 -149.122 250.014C-149.298 250.014 -149.298 250.191 -149.475 249.837H-149.298C-149.475 248.776 -149.651 249.66 -149.651 249.13C-149.475 248.069 -150.181 246.831 -150.181 244.71C-150.357 244.71 -150.357 244.886 -150.534 244.533C-150.357 243.826 -150.71 242.765 -150.886 242.942C-150.886 242.588 -150.71 242.588 -150.71 242.234C-151.063 240.289 -151.592 239.052 -151.769 237.284C-151.769 237.637 -151.592 237.991 -151.592 238.168C-151.592 237.46 -151.769 237.107 -151.769 236.576C-152.122 236.93 -152.122 234.985 -152.651 234.985C-152.474 235.869 -152.298 236.046 -152.122 237.107C-152.298 237.461 -151.945 238.875 -152.298 239.052C-151.945 239.405 -151.769 240.289 -151.592 240.82C-151.769 240.82 -151.769 240.113 -151.945 240.289C-151.769 241.35 -151.769 241.527 -151.416 242.411C-151.416 243.118 -151.769 242.942 -151.592 243.826C-151.416 244.002 -151.239 243.826 -151.063 244.356C-151.063 245.063 -150.886 244.71 -150.71 245.24C-151.063 245.24 -150.357 247.362 -150.357 247.539L-150.71 247.715C-150.534 248.069 -150.534 248.776 -150.357 248.776C-150.357 248.423 -150.534 248.069 -150.534 247.892C-150.357 248.599 -150.357 248.423 -150.004 248.953C-150.181 248.953 -150.181 249.66 -149.828 250.368C-149.828 250.014 -150.004 249.66 -150.004 249.483C-149.828 250.544 -149.651 250.368 -149.475 250.721C-149.828 250.544 -149.828 251.075 -149.475 251.605C-149.651 251.605 -149.475 252.136 -149.828 251.959C-149.122 252.843 -149.298 254.788 -148.769 254.965C-148.946 255.141 -148.593 255.495 -148.593 255.849C-149.122 255.141 -148.416 256.733 -148.416 257.263C-148.946 255.318 -148.593 257.97 -148.416 257.793C-148.416 257.44 -148.593 257.086 -148.593 256.909C-148.063 258.678 -148.063 257.44 -147.71 258.324C-147.534 259.208 -148.24 257.617 -148.063 258.501C-147.887 258.501 -147.534 259.385 -147.71 259.562C-148.063 258.324 -147.534 260.269 -148.063 259.031C-147.887 259.915 -147.71 259.562 -147.358 260.622C-147.534 260.622 -147.887 259.562 -147.887 260.446C-147.534 260.976 -147.358 261.86 -147.005 262.214C-147.181 261.86 -147.181 261.506 -147.005 261.86C-146.828 262.567 -147.005 262.744 -146.652 263.628C-146.475 263.628 -146.475 263.451 -146.299 263.805C-146.299 263.982 -146.122 264.335 -145.946 264.689C-146.299 264.159 -145.593 265.927 -146.299 264.512C-145.769 265.573 -146.299 265.396 -145.77 266.457C-145.417 266.811 -144.534 269.109 -144.534 269.64C-144.711 269.109 -144.887 268.932 -145.064 268.932C-144.711 269.816 -144.711 269.993 -144.711 270.347C-144.534 270.524 -144.358 270.347 -144.181 270.701C-144.181 271.408 -143.652 272.645 -143.476 272.469C-143.476 272.999 -143.476 273.529 -143.829 273.529C-144.005 273.176 -145.24 269.993 -145.064 269.816C-145.77 268.579 -145.946 267.695 -146.475 266.634C-145.77 267.341 -147.005 264.689 -146.299 265.396C-146.828 264.689 -146.828 264.335 -147.005 264.689C-147.181 264.335 -147.181 264.159 -147.358 263.982C-146.652 264.335 -148.416 261.506 -147.534 262.567C-148.063 261.33 -147.71 261.86 -148.063 260.976C-148.24 260.976 -148.24 261.153 -148.416 260.799C-148.593 259.915 -148.946 259.208 -148.593 258.854C-148.769 258.677 -148.946 258.324 -149.122 257.617C-148.769 258.147 -149.475 256.202 -149.475 256.025C-149.298 256.733 -150.004 255.495 -149.651 256.379C-149.651 257.263 -148.946 259.385 -148.24 261.153C-148.416 261.153 -148.416 260.799 -148.593 260.976C-148.24 262.037 -148.063 263.628 -147.358 264.689C-147.534 265.219 -146.828 266.457 -147.005 266.457C-146.652 266.987 -146.475 268.225 -145.946 268.756C-145.77 269.816 -145.417 270.877 -144.887 272.292C-144.711 272.115 -144.534 272.469 -144.358 272.999C-144.711 273.176 -143.652 274.59 -144.005 274.767C-143.476 275.651 -143.652 275.828 -143.123 276.889C-142.946 276.889 -142.946 276.712 -142.77 277.066C-143.299 277.066 -141.358 280.425 -142.417 279.01C-141.711 280.425 -141.358 280.602 -141.711 280.779C-141.535 281.132 -141.358 280.602 -141.005 281.486C-141.005 282.193 -140.3 283.784 -139.417 285.376C-139.241 285.199 -139.417 285.199 -139.241 284.668C-139.77 283.784 -139.947 283.077 -140.123 282.193C-141.005 280.955 -141.888 278.48 -141.711 277.596C-142.064 277.242 -141.535 278.834 -142.064 278.126C-142.064 277.596 -142.241 277.419 -142.241 277.95C-143.123 276.182 -142.946 275.651 -143.652 274.767C-143.476 274.59 -143.299 273.706 -142.77 274.413C-142.593 275.121 -142.417 275.297 -142.946 274.767C-142.593 275.828 -142.417 275.121 -142.064 276.182C-142.241 276.712 -141.358 278.126 -141.182 278.834C-140.829 279.01 -140.829 279.01 -140.653 279.187C-140.653 279.718 -140.653 279.718 -141.005 279.364C-140.653 280.248 -140.653 279.541 -140.123 280.602C-140.3 281.309 -138.888 283.077 -138.712 284.315C-138.359 284.668 -138.182 285.022 -137.653 285.376C-137.829 285.376 -137.653 285.729 -137.653 285.906C-137.829 285.906 -138.182 285.022 -138.359 285.022C-138.006 285.552 -137.829 285.729 -137.653 286.26C-137.477 286.26 -137.477 285.729 -137.124 286.26C-137.477 286.436 -137.3 286.436 -136.947 286.79L-137.124 286.967C-136.594 287.674 -136.241 288.912 -136.065 288.735C-135.889 288.558 -136.418 288.205 -136.771 287.497C-136.594 287.497 -136.594 287.32 -136.594 287.144C-136.594 287.32 -136.065 288.028 -136.241 288.205C-136.418 288.028 -136.594 287.674 -136.594 287.674C-136.241 288.205 -136.065 288.381 -135.712 289.089C-136.065 288.735 -135.889 289.265 -135.536 289.619L-135.712 289.796C-135.183 290.68 -134.83 291.21 -134.477 292.094C-133.948 292.625 -134.477 291.564 -134.653 291.21C-133.948 292.094 -134.477 291.918 -134.124 292.625C-133.771 292.802 -134.301 291.917 -133.948 292.448C-133.948 292.625 -133.418 293.686 -133.418 293.862C-133.595 293.862 -134.301 292.802 -133.948 293.509C-133.595 294.039 -133.418 293.862 -133.065 294.393C-133.242 294.57 -133.418 294.039 -133.595 294.393C-133.065 295.277 -133.242 294.746 -133.065 295.277C-132.713 295.63 -132.713 295.1 -132.36 295.63C-132.536 295.807 -133.065 295.277 -132.713 296.161C-132.713 295.454 -131.301 297.929 -131.477 297.399C-131.654 297.222 -132.36 296.161 -132.36 295.984C-131.83 296.338 -130.948 297.929 -130.595 298.813C-129.889 300.404 -127.772 302.88 -127.596 303.587C-127.596 303.41 -127.772 303.764 -127.596 303.94C-128.125 303.587 -129.184 301.642 -129.36 301.112C-129.36 301.465 -129.36 301.465 -129.713 301.112C-129.36 301.819 -128.831 302.703 -128.125 303.41C-127.948 304.117 -127.772 304.117 -127.596 304.824C-127.419 304.471 -126.713 305.178 -126.713 305.001C-127.066 304.294 -127.066 305.001 -127.419 304.471C-127.243 303.94 -126.36 305.001 -126.184 305.709C-126.36 305.709 -126.537 305.355 -126.36 305.885C-126.008 305.709 -125.478 306.946 -125.125 307.123C-125.302 307.123 -125.125 307.477 -125.125 307.477C-125.125 307.123 -126.008 306.593 -125.655 306.416C-126.184 305.885 -126.537 305.178 -126.89 305.178C-126.36 306.239 -125.831 306.769 -125.125 307.653C-125.125 307.653 -125.302 307.653 -125.478 307.477C-124.949 308.184 -123.008 310.659 -123.89 309.068C-124.067 309.068 -123.714 309.598 -124.067 309.245C-124.596 308.537 -124.949 308.007 -124.772 307.653C-123.89 308.891 -123.714 309.068 -123.184 309.952C-122.655 310.306 -123.184 309.598 -122.832 310.129C-122.832 310.482 -122.479 310.836 -122.302 311.013C-122.302 311.013 -122.479 310.836 -122.655 310.836C-122.126 311.543 -121.42 312.074 -121.244 312.604C-121.596 312.604 -121.42 312.781 -121.773 312.604C-121.067 313.311 -121.244 313.488 -121.596 313.135C-120.538 314.372 -119.656 315.256 -119.479 315.787C-119.479 315.256 -118.773 316.317 -118.597 316.14C-119.126 315.61 -119.303 315.256 -119.656 314.726C-118.95 315.787 -119.656 314.372 -119.126 315.079C-118.773 315.433 -118.42 316.317 -118.067 316.494C-118.244 316.14 -118.244 316.317 -118.067 316.494C-117.715 317.201 -117.715 317.201 -118.067 317.201C-118.244 316.671 -118.773 316.317 -119.126 315.963C-118.597 317.024 -119.479 316.317 -118.95 316.847C-119.303 316.14 -117.715 318.085 -118.597 316.847C-117.891 317.555 -118.42 317.378 -118.067 317.908C-118.244 317.378 -116.832 318.969 -117.362 318.792C-117.538 318.616 -117.715 318.262 -117.891 318.085C-117.538 318.792 -115.95 320.207 -116.303 320.56C-115.244 321.621 -115.244 322.152 -114.362 323.036C-115.068 322.505 -115.244 322.682 -116.127 321.798C-115.597 321.975 -116.656 321.445 -116.656 321.091C-116.656 321.268 -117.009 320.914 -117.185 320.737C-117.009 321.091 -116.479 321.444 -116.479 321.621C-116.832 321.268 -117.185 320.737 -117.362 320.737C-117.009 321.444 -116.656 321.445 -116.479 321.975C-116.303 321.975 -116.303 321.798 -116.127 321.975C-116.303 322.152 -115.421 322.859 -116.303 322.152C-113.656 325.688 -109.775 330.639 -106.246 333.998C-106.246 334.175 -105.716 334.528 -106.069 334.528C-99.7171 341.07 -92.3064 348.319 -82.7783 355.215C-64.7808 368.122 -43.4309 378.73 -19.9636 384.212C-4.78922 387.748 10.738 389.162 26.6181 388.985C45.1449 388.632 63.4953 385.803 81.1399 380.145C98.7845 374.487 115.547 366.177 130.721 354.861C139.72 348.143 148.719 340.009 156.129 331.699C167.069 319.676 177.126 305.355 184.89 289.796C192.654 274.237 198.3 257.263 201.3 240.643C201.3 240.643 201.123 240.643 201.123 240.289C202.888 230.919 204.123 221.194 204.123 211.47L204.299 211.823C204.652 208.818 204.299 200.861 204.123 196.971C203.77 184.772 201.829 170.804 198.123 156.659C194.418 142.691 188.595 128.546 181.714 115.993C181.538 115.816 181.361 115.816 181.185 115.639C181.361 115.639 181.185 115.463 181.185 115.286C179.42 112.28 177.479 108.567 175.715 105.915C175.538 105.915 175.538 106.092 175.362 105.738C175.538 105.738 175.186 105.385 175.186 105.208C171.48 99.3731 167.245 93.3616 162.658 87.7037C158.07 82.0459 153.483 76.9184 149.424 73.0286C148.719 72.1446 147.836 71.4373 147.66 70.9069C146.778 70.1997 146.601 70.1997 145.719 69.4925C146.072 69.3157 145.896 68.962 146.248 68.6084C145.719 67.7244 143.249 65.4259 143.778 65.4259C142.896 64.5418 141.308 63.3042 140.955 62.7737L142.719 64.365C144.66 65.4259 147.307 67.7244 149.601 69.8461C155.424 74.4431 161.246 79.9242 166.54 85.9356C170.245 89.8254 174.833 94.7761 178.538 100.08C181.361 103.44 183.126 105.915 185.596 109.628C189.831 116.17 193.712 122.712 197.065 129.431C200.417 136.149 203.417 143.398 206.064 151.178C207.122 153.83 208.357 157.897 208.887 160.902C210.828 166.56 211.71 172.925 213.121 178.583C213.121 180.528 214.004 182.119 214.004 184.948C214.356 186.186 214.886 188.485 214.709 190.429C215.592 193.966 215.945 199.27 216.827 201.922C217.533 202.099 218.062 205.281 218.238 209.348C218.415 213.415 218.415 218.012 218.591 221.017C219.297 220.84 220.179 220.487 220.179 223.846C220.532 223.493 220.885 223.316 221.238 223.316C221.238 222.432 221.414 222.609 221.414 222.078C221.061 221.901 221.414 222.785 221.238 222.785C220.885 222.078 220.885 220.84 221.061 219.426C221.591 218.365 222.826 218.542 222.297 220.133C222.473 220.31 222.473 220.487 222.473 220.133C222.473 226.498 221.944 231.803 221.767 237.107C222.473 236.93 221.238 243.649 222.473 242.058C222.297 243.295 223.002 242.588 222.649 244.533C223.179 243.295 223.708 243.649 223.885 244.71C224.943 240.997 225.825 236.223 226.355 231.626C226.531 231.803 226.531 231.272 226.708 230.919C227.237 231.095 227.237 233.04 227.413 234.101C228.296 232.863 228.119 227.559 228.649 223.139C229.002 220.664 229.354 220.664 229.354 218.365C229.884 218.365 230.237 216.243 230.413 214.652C230.942 215.536 230.766 217.658 231.119 217.481C231.295 212.53 231.472 204.751 230.942 199.27C230.942 198.386 231.119 197.855 231.295 197.502C231.825 198.563 232.354 199.623 232.53 201.922C232.354 201.922 232.354 201.392 232.354 202.276C232.354 202.452 232.707 202.806 232.883 203.336C233.236 198.563 233.06 192.728 233.413 190.253Z" fill="#F6F6F6"/>
</svg>
