<svg width="214" height="389" viewBox="0 0 214 389" fill="none" xmlns="http://www.w3.org/2000/svg">
<path d="M413.413 190.253C413.236 191.137 413.06 189.015 412.707 188.485C412.883 188.661 412.883 187.954 412.883 187.777C413.06 187.954 413.236 188.131 413.413 188.485C413.236 185.479 413.236 183.711 413.413 182.473C414.471 181.766 413.942 173.986 413.06 168.682C413.06 167.975 413.06 166.207 412.53 164.085C412.178 156.482 409.707 148.879 405.826 138.271C402.12 128.193 398.062 118.645 393.474 109.805C388.004 99.7267 382.005 90.8863 375.477 82.5763C368.948 74.2663 361.891 66.6635 354.127 59.2376C349.363 54.9942 344.246 50.574 338.953 46.5074C333.659 42.4408 328.366 38.9046 323.602 36.4293C317.25 32.1859 310.721 28.4729 304.193 25.1135C297.488 21.7542 290.606 18.5716 283.019 15.3891C283.019 15.5659 281.608 15.0355 281.078 14.8586C277.902 13.621 274.726 12.5601 271.197 11.3225C258.846 7.07908 245.613 3.89652 231.85 1.95163C218.264 0.00673733 204.324 -0.523688 190.738 0.537163C178.21 1.42121 166.212 3.71971 154.743 6.37184C152.273 7.25588 148.391 7.96312 145.215 9.02397C135.158 12.0297 124.394 16.8035 113.984 21.931C103.927 26.8816 94.9279 32.7163 86.4585 38.1974C86.1056 38.3742 86.1056 38.3742 85.5762 38.7278C74.4602 46.3306 63.6969 56.2318 54.5218 66.1331C43.2292 78.1561 33.5247 91.4167 26.6433 103.086C24.8789 106.622 22.5851 110.689 20.4677 114.579C18.3504 118.645 16.7624 122.535 15.8801 125.894C16.5859 123.419 17.821 124.48 18.5268 122.181C18.7033 122.181 18.7033 122.181 18.8797 122.005C19.409 121.121 19.409 120.944 19.409 120.59C21.1735 118.115 21.7028 115.993 22.7615 114.402C23.1144 114.932 23.1144 113.695 23.9966 113.164C23.9966 112.987 23.8202 113.164 23.9966 112.811C23.9966 113.341 25.9375 109.274 25.2318 111.042C26.114 109.451 26.4669 108.39 27.3491 106.799C28.2313 106.269 27.5255 107.329 28.0549 107.153C27.3491 107.86 28.0549 107.506 27.702 108.037C27.3491 108.39 25.7611 111.219 25.5846 111.573C25.7611 111.219 25.2317 112.457 25.4082 112.634C24.8789 113.518 25.0553 112.811 24.526 113.518C24.526 114.048 25.0553 113.164 25.2318 112.811C24.526 113.871 25.0553 113.518 24.7024 114.225C24.526 114.225 24.3495 114.579 24.3495 114.402C24.526 114.048 24.7024 113.871 24.526 113.871C24.1731 114.402 23.8202 114.755 23.4673 115.109C23.2909 115.993 22.4086 117.054 22.2322 118.115C22.0557 117.761 21.3499 119.176 21.1735 119.706C21.1735 119.352 21.1735 119.352 20.8206 119.883C20.2913 121.297 19.5855 122.712 19.0562 123.596C18.5268 124.657 19.5855 123.065 19.0562 123.949C18.8797 123.949 18.5268 124.833 18.3504 124.657C18.5268 124.126 18.7033 124.48 18.8797 123.773C18.1739 124.126 17.4681 127.662 16.7624 127.662C15.7037 129.784 13.9392 133.497 13.7628 132.967C13.5863 133.497 13.5863 133.674 13.5863 133.851C13.057 134.381 12.3512 136.326 12.3512 135.796C11.9983 137.564 11.469 137.564 11.1161 139.155C10.7632 139.509 10.7632 139.685 10.5868 139.332C10.2339 139.862 10.2339 140.393 9.88098 140.746C9.88098 141.1 9.70452 141.807 9.70452 141.984C9.35163 141.984 8.8223 143.045 8.46941 143.929C8.46941 143.929 8.64585 144.106 8.46941 144.636C7.94007 143.929 6.35206 150.824 6.35206 149.41C4.05827 157.189 2.11734 161.963 0.705773 169.566C0.705773 169.389 0.882229 168.859 0.882229 168.859C0.705783 170.096 0.352892 170.45 0 171.334C0.705783 170.981 0.705789 170.273 1.41157 169.212C2.64669 164.615 3.17603 163.555 4.41115 160.018C4.58759 158.604 5.46981 157.013 5.99915 155.775C5.99915 155.775 5.8227 155.598 5.99915 155.068C5.99915 155.952 6.70494 153.3 6.52849 153.3C6.88138 153.123 7.41072 151.532 7.41072 150.824C7.76361 151.001 7.94006 149.41 8.29295 148.703C8.64584 147.819 9.35164 146.758 9.88098 145.52C10.5868 143.752 10.7632 143.575 11.1161 142.514C11.1161 143.045 11.6454 141.807 11.469 142.691C11.2925 142.338 11.1161 143.222 10.9396 143.575C11.2925 143.752 10.7632 145.343 10.9396 145.874C11.9983 145.166 11.8219 147.288 13.057 145.166C12.7041 146.404 12.8805 146.581 12.7041 147.288C12.5276 147.111 11.469 151.001 11.1161 149.41C11.1161 149.94 11.469 149.763 11.2925 150.471C10.7632 151.178 11.2925 151.001 10.9396 152.062C10.5867 151.885 10.0574 154.714 9.70452 154.361C9.70452 154.891 9.88098 154.891 9.88098 155.068C9.35164 155.952 9.70453 155.598 9.35164 157.189C9.17519 157.366 9.35162 156.659 9.17518 157.189C8.99873 157.543 9.17518 157.897 9.17518 158.427C9.52807 156.836 8.29294 160.195 8.64584 159.665V159.311C8.46939 160.018 8.29296 161.256 7.94006 162.317C7.94006 162.494 7.94005 161.786 7.76361 162.317C7.41072 163.378 7.23427 164.792 6.88138 166.03C6.70493 167.091 6.17559 167.621 5.99915 168.682C5.46981 170.45 5.11692 173.279 4.76403 175.401C4.41114 176.815 4.05825 178.406 3.8818 179.114C2.99957 184.064 2.29381 188.485 1.94092 191.844C2.29381 191.667 1.9409 193.612 2.11734 193.789C3.17602 190.076 4.23469 183.534 5.64626 177.169C5.99915 177.169 6.52849 174.693 6.52849 174.163C6.88138 173.986 7.23427 172.925 7.41072 173.102C7.58717 172.218 7.41072 171.511 7.76361 171.334C7.76361 171.688 7.58716 172.218 7.76361 172.218C7.76361 172.041 7.94006 171.688 7.94006 171.688C7.94006 171.865 7.76362 172.218 7.94006 172.218C8.29296 170.981 7.76363 171.334 8.11652 170.096C8.11652 170.804 8.64584 169.036 8.64584 170.273C8.46939 170.627 8.4694 170.096 8.29295 170.804C7.94006 172.041 8.29297 171.688 8.11652 172.925C8.64586 172.218 8.8223 171.865 8.99875 173.102C8.99875 173.102 8.82229 173.102 8.82229 173.456C8.99874 173.986 8.82229 174.163 9.17518 173.809C8.99873 174.693 9.17518 174.517 9.17518 175.047C8.82229 175.047 9.17519 175.224 8.99875 175.931C8.8223 176.462 8.64584 176.108 8.64584 176.815C8.99873 177.169 8.46941 178.23 8.46941 179.291C8.64585 179.291 8.64584 179.114 8.64584 179.114C8.46939 179.998 8.46941 180.528 8.46941 181.235C8.29296 181.943 8.11651 182.65 7.94006 183.003C8.4694 182.827 7.58717 185.125 7.94006 185.479C7.58717 186.54 7.41073 188.308 7.05783 189.015C7.23428 189.369 6.8814 190.076 7.23429 190.606C6.70495 194.142 6.35206 198.386 6.70495 199.8C6.35206 200.331 6.70495 202.629 6.70495 204.397C6.88139 203.867 6.8814 203.513 7.23429 203.513C7.23429 202.629 7.41072 202.629 7.41072 201.745C8.1165 201.215 7.41072 197.855 8.29295 197.502C8.1165 197.325 8.46941 196.618 8.46941 196.264C8.29296 195.203 8.8223 193.966 8.99875 192.551C8.99875 192.905 8.99875 193.435 8.99875 193.435C9.35164 190.606 9.88096 188.661 10.0574 185.832C10.2339 185.656 10.7632 184.772 10.2339 185.302C10.4103 185.125 10.4103 184.064 10.5868 184.064C10.7632 184.241 10.4103 186.009 10.5868 186.186C10.4103 186.54 10.2339 188.308 10.0574 188.485C10.2339 188.485 10.2339 188.485 10.2339 188.838C9.17519 194.319 9.17517 199.8 9.52807 204.751C9.88096 204.928 10.2339 203.513 9.88098 202.099C10.2339 202.983 10.4103 201.038 10.5868 200.861C10.5868 200.861 10.4103 200.508 10.4103 200.331C10.5867 200.331 10.7632 199.447 10.9396 199.093C11.2925 194.496 12.1748 191.49 12.7041 186.009C12.8805 185.302 13.4099 185.302 13.5863 184.948C13.2334 185.832 13.7628 185.302 13.7628 186.186C13.5863 186.716 13.4099 186.54 13.4099 187.424C13.5863 187.424 13.5863 187.424 13.5863 187.777C13.4099 187.954 13.5863 188.485 13.4099 189.015C13.2334 189.015 13.2334 189.015 13.2334 189.369C13.2334 189.369 13.2334 189.369 13.2334 189.722C13.2334 189.722 13.2334 189.899 13.4099 190.076C13.5863 189.192 13.7628 188.131 13.7628 187.777C13.9392 188.131 14.1157 186.716 14.2921 187.6C14.4686 186.363 14.4686 186.363 14.645 186.716C14.645 185.302 15.5272 183.534 14.9979 182.827C15.1743 183.003 15.7037 182.473 15.5272 181.943C15.3508 182.827 15.5272 181.412 15.5272 181.412C15.8801 181.235 15.7037 179.998 16.0566 179.114C16.4095 179.821 16.9388 177.346 16.4095 178.583C16.5859 176.992 16.7624 178.053 16.9388 177.169C17.1153 175.754 17.2917 175.047 17.821 173.809C17.6446 173.809 17.9975 172.572 17.9975 172.041C18.8797 170.096 19.9384 166.737 20.997 163.378C22.0557 159.842 23.2909 156.305 24.3495 153.476C25.2318 151.001 26.6433 147.288 28.2313 143.752C28.2313 142.868 29.1136 140.923 29.4665 140.569C29.8193 138.271 31.5838 135.972 31.9367 134.028C32.466 133.144 32.6425 132.436 33.1718 132.259C32.9954 131.729 34.0541 130.491 33.7012 129.961C33.7012 130.491 35.1127 126.955 34.7598 128.546C35.1127 127.486 35.1127 127.309 35.8185 126.071C35.6421 126.071 35.4656 125.894 35.8185 125.364C37.4065 123.949 37.583 121.474 38.9945 119.883C39.8768 118.115 39.8768 117.761 40.2297 116.877C40.4061 116.877 40.4061 117.054 40.5825 116.7C40.759 115.993 41.1119 115.993 42.347 114.048C42.347 113.871 41.9941 114.048 42.1705 113.695C42.5234 113.518 42.6999 112.811 42.8763 112.457C43.0528 112.457 43.2292 112.28 43.0528 112.634C43.4057 111.573 44.2879 111.042 44.6408 110.158C43.7586 111.042 45.8759 107.506 46.4053 107.506C46.5817 106.445 47.111 106.269 47.6404 104.854C48.1697 104.501 48.6991 103.793 49.7577 102.379C49.4048 102.379 50.2871 101.141 50.9928 100.434C50.8164 100.964 53.1102 97.9586 52.9338 97.7818C53.816 96.8978 54.1689 96.3673 55.2276 95.1297C54.8747 94.9529 55.5804 94.5993 55.404 94.2456C55.5804 94.4224 55.9333 93.7152 55.9333 93.5384C56.1098 93.7152 56.992 92.4776 57.3449 92.4776C57.5213 91.9471 59.1094 90.179 58.0507 91.2399C58.4036 90.7095 58.58 90.5327 59.1094 89.8254C59.8151 89.6486 60.168 88.9414 60.8738 88.2342C60.8738 88.2342 60.6974 88.2342 60.5209 88.2342C61.4032 87.5269 61.4031 86.8197 62.4618 85.7588C62.9912 85.582 63.8734 84.698 64.5792 83.8139C64.4027 84.1676 64.2263 83.9908 64.4027 83.6371C65.285 82.9299 65.8143 82.2227 66.1672 82.2227C66.3436 81.5154 66.6965 81.5154 67.4023 80.985C67.0494 80.985 68.1081 79.9242 68.1081 79.7473C68.8139 79.5705 70.049 78.1561 70.5783 77.6256C70.2254 77.8025 71.1077 76.7416 71.4606 76.388C72.3428 75.8576 73.225 74.9735 74.1073 74.4431C74.1073 74.0895 74.4602 73.7359 74.6366 73.3822C74.9895 73.5591 74.6366 73.2054 75.3424 72.8518C76.9304 71.9678 77.1068 71.4373 78.6949 70.0229C79.2242 70.0229 81.1651 68.2548 81.1651 68.962C79.5771 70.0229 77.9891 72.3214 76.4011 73.5591C75.6953 74.2663 75.5188 74.2663 74.813 74.7967C73.9308 75.8576 73.9308 77.4488 76.2246 75.8576C77.6362 74.4431 78.6949 73.7359 79.5771 73.2054C81.3416 71.2605 82.4002 71.0837 83.9882 70.0229C84.1647 69.4925 86.8113 67.7244 86.282 68.2548C87.3407 67.5476 88.0465 66.8403 88.3994 66.3099C88.2229 66.8403 89.6345 65.4259 89.6345 65.6027C88.5758 66.4867 88.9287 66.4867 88.0465 67.1939C88.7523 67.0171 88.0465 67.7244 87.6936 68.078C89.458 67.1939 89.6345 66.8403 92.1047 64.8954C92.1047 65.0723 92.2812 64.8954 92.6341 64.8954C92.4576 65.0723 92.4576 65.2491 92.2812 65.4259C91.399 65.9563 91.7519 65.4259 91.0461 65.9563C90.3403 66.8403 89.9874 67.3708 89.9874 67.7244L89.6345 68.078V68.2548C88.9287 68.7852 88.5758 69.1388 88.2229 69.1388C88.2229 69.4925 87.5171 70.5533 86.8114 71.4374C86.4585 71.791 85.9291 72.1446 85.7527 72.1446C85.3998 72.8518 84.694 73.5591 84.5176 74.0895C83.106 75.1503 82.4002 76.2112 81.6944 77.4488C80.2829 78.5097 79.5771 79.7474 79.0477 80.8082C77.9891 81.3386 77.1068 82.7531 76.5775 83.8139C75.8717 84.5212 75.6953 84.5212 74.9895 85.2284C74.2837 86.2893 73.5779 87.5269 72.6957 88.2342C71.9899 89.295 71.4606 90.8863 70.4019 91.2399C70.049 91.9471 68.8139 93.892 68.1081 94.5993C67.0494 96.8978 65.4614 99.3731 63.8734 101.848C63.6969 102.379 63.1676 104.677 63.697 103.793C63.8734 103.97 63.5205 104.324 63.5205 104.677C63.3441 104.854 62.9912 104.854 62.4618 105.561C61.9325 106.799 62.4618 106.799 62.6383 107.153C63.1676 106.269 63.5205 105.561 63.697 104.324C66.5201 100.964 70.9312 93.7152 74.813 88.9414C75.8717 87.8805 76.5775 87.3501 77.8126 85.582C78.342 85.0516 78.6948 84.8748 79.2242 84.5212C79.93 83.1067 81.3415 82.0459 81.8709 82.2227C82.4002 81.6922 82.7531 81.1618 82.9296 80.8082C84.1647 79.7474 84.8705 80.2778 84.3411 80.985C84.5176 80.985 85.0469 80.2778 85.2234 80.101C85.5762 80.101 84.8705 80.6314 85.2234 80.6314C85.5762 80.2778 85.7527 79.7473 86.1056 79.7473C86.4585 79.0401 86.282 79.0401 86.4585 78.5097C86.9878 77.9793 87.1643 78.1561 87.5172 77.6256C87.1643 78.8633 89.8109 76.2112 89.6345 75.6808C90.3403 75.5039 91.0461 74.6199 91.399 74.4431C92.1047 73.3822 92.987 72.4982 93.8692 72.3214C94.2221 71.791 94.575 71.4374 94.9279 71.2605C95.1043 70.5533 97.0452 69.6693 98.6332 68.078C100.221 67.7244 101.633 65.2491 103.574 64.7186C104.28 64.365 103.75 64.365 104.28 64.0114C107.808 61.7129 110.984 59.4144 114.513 57.2927V57.4695C115.043 57.1159 116.807 56.055 116.631 56.055C116.278 56.2318 115.925 56.4086 115.749 56.5854L116.807 55.8782C117.16 55.8782 117.337 56.055 117.16 56.2318C116.278 56.5854 116.631 56.4086 116.454 56.5854C116.101 56.7623 116.101 56.5854 115.572 56.7622C114.866 57.6463 113.455 58.7071 113.631 59.2376C114.69 58.884 116.101 59.0608 116.807 59.4144C118.572 58.5303 120.689 57.9999 122.453 57.4695C122.63 57.9999 120.865 58.884 121.571 59.2376C122.63 58.7071 122.453 59.5912 123.512 59.0608C123.865 58.884 124.747 58.1767 125.277 57.6463C125.629 57.6463 126.512 57.9999 125.982 58.5303C131.982 55.8782 139.039 53.0493 146.274 50.574C146.274 50.7508 147.685 50.0435 147.332 50.3971C147.862 50.2203 148.391 49.8667 148.567 50.0435C146.274 51.2812 142.921 52.5188 142.921 53.4029C142.921 52.8725 142.215 53.9333 142.921 53.5797C143.627 53.4029 145.744 52.8725 146.803 52.1652C148.391 51.9884 149.45 52.1652 150.685 51.458C150.685 51.8116 151.743 51.458 151.743 51.6348C155.096 50.0435 155.625 51.458 153.508 52.342C152.096 52.5188 152.273 52.8725 151.391 53.0493C154.39 52.6957 158.625 51.1044 161.095 51.2812C164.8 50.574 167.624 50.0435 169.035 50.574C170.27 50.3971 170.623 50.2203 172.035 50.0435C172.917 50.0435 173.623 50.0435 174.858 50.0435C175.74 49.3363 177.505 49.6899 178.916 49.5131C179.269 49.3363 180.151 49.1595 180.151 48.9827C180.857 49.1595 182.092 48.9827 183.151 48.9827C183.151 48.4523 184.562 48.6291 185.621 48.4523C185.621 48.6291 185.797 48.6291 185.797 48.6291C184.562 49.3363 181.739 48.9827 181.916 49.8667C181.916 49.6899 182.092 50.0435 181.739 50.0435C182.798 50.0435 182.621 50.0435 183.327 50.0435C183.504 49.6899 183.504 50.0435 183.857 50.0435C183.857 49.8667 184.915 49.8667 185.092 49.5131C186.327 49.5131 186.856 49.6899 187.915 49.6899C188.091 49.3363 189.15 49.3363 189.326 49.1595C189.326 49.5131 189.679 49.3363 190.385 49.3363C190.385 49.5131 190.032 49.5131 190.209 49.5131C191.091 49.3363 191.091 49.5131 191.797 49.6899C192.15 49.1595 194.973 49.1595 194.62 49.3363C196.384 49.3363 196.208 49.3363 197.09 48.9827C199.384 49.1595 199.913 49.3363 201.325 48.8059C202.913 49.3363 204.501 48.9827 205.912 48.8059C206.971 49.1595 208.03 49.1595 209.441 49.1595C209.971 48.9827 209.088 48.9827 209.971 48.9827C210.147 49.3363 211.029 49.1595 211.382 49.5131C211.735 49.3363 213.323 49.6899 212.088 49.3363L213.323 49.5131C213.499 49.3363 212.97 49.3363 213.323 49.3363C213.676 49.5131 214.558 49.3363 214.735 49.5131C214.382 49.5131 214.382 49.5131 214.205 49.6899C214.911 49.8667 216.676 50.3971 216.499 50.0435C216.499 50.2203 215.793 50.0435 215.793 50.0435C217.381 50.2203 217.205 49.6899 217.028 49.5131C217.381 49.8667 217.911 49.5131 218.264 49.8667C217.911 49.8667 217.734 49.8667 217.734 49.8667C218.44 50.0435 218.616 50.2203 218.969 50.3971C220.381 50.574 221.087 50.3971 221.969 50.3971C221.44 50.574 222.498 50.7508 222.675 50.9276C223.91 51.2812 224.616 50.9276 226.38 51.2812C226.38 51.458 226.733 51.6348 227.262 51.8116C228.85 51.8116 230.085 52.1652 231.673 52.6957C232.379 52.5188 234.32 52.8725 234.849 53.4029C235.908 53.5797 236.261 53.4029 237.849 53.9333C238.025 54.2869 239.084 54.6405 239.966 54.8174C240.319 54.8174 240.143 54.6405 240.496 54.6405C241.554 54.9942 242.79 55.5246 243.495 55.8782C243.672 55.7014 244.378 55.8782 244.554 55.8782C245.26 56.2318 245.966 56.7623 246.495 56.5854C246.495 56.7623 246.318 56.7623 246.671 56.9391C246.848 56.9391 247.201 57.1159 247.377 57.1159C249.142 56.9391 248.789 57.6463 250.906 58.3535C251.435 58.3535 252.141 58.5303 252.847 58.7071C252.318 59.0608 254.082 59.0608 253.376 59.2376C253.906 59.4144 254.258 59.5912 254.611 59.768C254.964 59.768 256.199 59.768 257.082 60.4752C256.729 60.2984 256.376 60.1216 256.376 60.2984C257.082 60.652 257.787 61.0057 258.14 61.3593C258.317 61.0057 259.199 61.5361 259.905 61.7129C261.14 62.4201 262.199 62.9506 263.434 63.1274C265.022 64.1882 266.08 64.5418 267.668 64.8954C268.727 65.7795 269.786 65.9563 271.197 66.4867C272.256 67.5476 273.668 67.5476 274.903 68.2548C275.256 68.4316 275.608 68.962 275.961 69.1388C276.667 69.4925 279.49 70.3765 279.49 71.0837C280.549 71.6142 282.843 72.4982 283.549 73.7359C284.254 74.0895 284.607 74.0895 285.489 74.6199C286.019 74.9735 286.195 75.3271 286.372 75.6808C287.254 76.388 287.96 76.388 289.724 77.6256C289.548 77.8025 289.548 77.8025 289.901 78.1561C291.136 78.8633 292.724 79.5705 293.077 80.4546C294.135 81.3386 294.665 81.5154 295.194 81.869C295.9 82.5763 296.253 83.1067 296.782 83.6371C297.488 83.9908 298.37 84.5212 299.252 85.0516C299.076 85.2284 299.076 85.2284 299.252 85.4052C299.782 85.7588 300.134 86.2893 300.134 86.2893C299.958 86.1124 301.193 86.9965 302.075 87.5269C302.428 87.8805 302.252 88.0574 302.428 88.2342C303.487 89.295 303.84 89.1182 304.722 89.8254C305.428 90.5327 305.604 91.0631 306.134 91.5935C306.663 91.7703 307.016 92.1239 307.722 92.4776C308.427 93.7152 309.662 94.9529 310.368 95.1297C311.603 96.8978 312.133 97.4282 313.721 98.6659C313.015 98.489 315.132 100.257 313.897 99.5499C314.956 100.611 315.485 101.141 316.191 101.495C316.191 102.732 317.603 103.44 319.191 105.208C319.014 105.738 320.249 106.976 320.955 107.329C322.014 108.567 321.484 108.567 322.543 109.982C322.896 110.158 323.425 110.689 324.131 111.573C323.778 111.75 324.484 112.457 324.66 112.987C325.19 113.164 325.366 113.518 326.072 114.402C326.425 115.816 327.66 116.7 328.542 117.938C328.013 117.761 329.072 118.822 328.719 118.822C329.424 119.883 329.777 120.06 330.307 120.767C330.66 121.297 331.012 122.005 331.012 122.535C328.189 118.115 325.543 114.402 322.543 110.512C319.543 106.799 316.367 102.909 312.309 98.8427C311.956 98.3122 311.603 97.7818 311.074 97.2514C310.545 96.721 310.015 96.5442 309.663 96.1905C308.78 94.7761 307.192 93.7152 305.957 92.6544L306.134 92.4776C305.251 91.5935 304.722 91.2399 304.193 90.8863C304.016 90.8863 304.369 91.2399 304.193 91.4167C303.134 90.5327 302.252 89.6486 302.958 89.8254C302.781 89.4718 302.428 89.1182 301.899 88.7646C301.37 88.7646 302.075 89.1182 301.546 89.1182C300.84 88.411 300.664 88.411 300.134 88.0573C300.84 89.1182 300.84 88.9414 301.546 90.0022C300.487 88.9414 299.958 89.1182 299.076 87.7037C298.37 87.3501 297.311 86.2893 296.958 86.2893C297.311 86.8197 298.017 87.1733 297.488 87.1733C298.194 87.3501 299.076 88.2342 300.311 89.295C300.311 89.4718 300.134 89.4718 300.311 89.6486C301.37 90.179 302.428 91.5935 302.605 90.8863C302.075 90.3559 301.722 90.3559 301.722 90.0022C302.428 90.7095 302.428 90.3559 302.958 90.8863C302.958 91.2399 303.84 91.7703 304.193 92.4776C303.487 91.9471 303.31 91.7703 302.781 91.4167C303.31 92.8312 306.134 94.0688 306.487 95.4833C306.487 94.9529 307.898 96.721 308.957 97.2514C308.427 96.8978 309.133 97.605 308.957 97.605C309.839 98.6659 311.074 99.7267 311.78 100.08C311.427 99.9035 311.78 100.257 311.427 100.08C312.133 100.964 312.133 101.141 313.191 102.202C313.368 102.202 314.25 102.556 314.427 103.086C313.897 102.379 314.427 103.616 314.603 103.97C314.779 103.97 314.427 103.616 314.779 103.793C314.603 103.793 315.132 104.324 315.132 104.501C314.25 103.616 314.603 104.324 313.897 103.793C313.544 103.44 312.839 102.379 312.486 102.025C312.662 102.202 312.662 102.202 312.486 102.025C312.309 101.672 312.662 101.672 312.486 101.318C311.074 99.5499 312.133 101.672 311.78 100.611C312.133 101.141 312.133 101.318 312.309 101.495C310.545 99.9035 306.31 95.3065 302.958 92.1239C302.075 91.5935 302.958 92.8312 302.252 92.4776C302.605 92.3008 301.899 91.7703 302.428 91.9471C301.899 91.4167 301.899 91.2399 301.722 90.8863C300.664 90.3559 298.546 87.8805 296.253 86.4661C295.9 86.1125 295.723 85.7588 295.547 85.4052C295.37 85.2284 292.9 83.9908 292.547 83.1067C290.959 82.0459 291.312 82.2227 289.724 81.3386C289.195 80.2778 287.783 79.5705 286.725 79.2169C286.195 78.1561 283.372 77.272 282.666 76.2112C282.49 75.8576 281.961 76.0344 281.431 75.3271C280.372 75.1503 278.255 73.7359 277.902 73.2054C277.726 73.3822 277.196 73.0286 276.667 72.8518C276.844 72.675 274.373 71.2605 272.962 70.7301C272.785 70.3765 272.256 70.3765 272.432 70.1997C271.374 70.0229 270.139 68.962 269.08 68.6084C267.315 67.1939 263.081 65.9563 261.669 64.7186C259.023 63.8346 257.964 63.3042 255.67 62.4201C255.67 62.7737 256.376 62.7737 255.494 62.7737C255.846 62.9505 256.023 63.1274 256.199 63.1274C255.317 62.4201 256.023 63.3042 254.788 62.7737C255.317 62.7737 254.259 62.2433 255.317 62.5969C254.082 62.0665 255.141 62.4201 255.141 62.2433C254.435 62.0665 254.082 61.7129 253.023 61.3593C252.494 61.3593 252.141 61.5361 251.612 61.5361C251.612 61.3593 250.377 61.0057 250.553 60.8288C250.906 61.0057 251.259 61.0057 251.259 61.0057C250.906 60.8288 250.024 60.652 250.2 60.4752C250.73 60.652 251.083 60.8288 250.906 60.4752L248.612 59.5912C248.259 59.768 248.789 59.9448 248.965 60.1216C248.436 60.1216 249.142 60.2984 248.259 59.9448C247.906 60.1216 248.965 60.2984 248.612 60.4752C248.259 60.1216 247.201 59.9448 246.848 59.5912C247.201 59.768 247.554 59.768 247.554 59.768C246.671 59.4144 247.024 59.2376 246.671 59.0608C245.789 58.884 244.907 58.5303 244.907 58.884C244.554 58.3535 244.907 58.7071 244.201 58.7071C243.142 58.1767 242.79 57.8231 242.26 57.9999C242.437 57.8231 241.554 57.6463 241.025 57.6463C241.202 57.8231 241.378 57.8231 241.378 57.9999C241.025 57.8231 240.319 57.6463 240.143 57.8231C240.672 57.9999 241.025 57.8231 241.025 58.1767C240.143 58.1767 239.79 57.8231 239.084 57.4695C239.437 57.4695 239.79 57.6463 239.79 57.6463C239.084 57.4695 239.261 57.2927 238.731 57.1159C238.202 57.1159 238.555 57.1159 238.025 56.9391C237.849 57.1159 236.79 56.9391 236.261 56.9391C235.555 56.7623 235.202 56.4086 234.144 56.2318C233.614 56.2318 234.497 56.5854 233.791 56.4086C233.791 56.2318 233.614 56.2318 233.438 56.055C233.614 56.4086 232.732 55.7014 232.379 56.055L233.085 56.4086C232.203 56.2318 232.026 56.5854 232.203 56.7622C232.203 56.5854 232.556 56.5854 232.732 56.7622C232.556 56.7622 232.379 56.7622 232.026 56.7622C231.85 56.7622 231.673 56.5854 231.497 56.5854C231.673 56.4086 231.85 56.4086 232.026 56.2318C230.968 55.8782 231.497 55.8782 232.026 55.8782C231.497 55.7014 231.321 55.5246 230.615 55.5246C229.909 55.5246 230.968 55.8782 230.262 55.7014C230.615 55.5246 229.733 55.5246 229.38 55.3478C228.674 55.3478 229.027 55.8782 228.321 55.7014C227.792 55.8782 229.203 56.2318 228.497 56.055C228.497 55.8782 227.615 56.2318 227.439 55.8782C228.321 55.7014 226.909 55.7014 227.968 55.5246C226.909 55.3478 227.615 55.3478 227.262 54.9942C226.38 54.8174 225.498 54.8174 224.792 54.8174C224.439 55.171 224.968 55.3478 223.91 55.171C224.792 55.171 222.498 54.8174 223.557 54.6405C221.792 54.1101 222.851 54.6406 221.087 54.2869C220.91 54.6406 221.616 54.6405 220.557 54.4637C220.204 54.6405 220.91 54.6405 220.91 54.8174L219.675 54.6405C219.675 54.4637 219.146 54.2869 219.322 54.1101C217.911 53.9333 216.852 53.9333 216.323 54.1101C215.793 53.9333 215.44 53.7565 214.911 53.7565C212.088 53.9333 210.5 53.2261 208.735 53.5797C206.971 53.4029 205.736 53.2261 204.854 53.5797C201.854 53.2261 196.737 53.9333 194.09 53.4029C193.385 53.4029 193.738 53.5797 192.679 53.5797C193.385 53.4029 192.326 53.5797 192.15 53.4029C193.208 53.4029 191.973 53.2261 191.973 53.0493C191.091 53.2261 190.032 52.8725 188.974 53.2261C188.974 53.0493 188.621 53.0493 188.444 53.0493C187.738 53.2261 187.209 53.0493 186.503 53.0493C186.503 53.0493 186.503 53.2261 186.327 53.2261C183.151 53.2261 178.74 53.5797 174.505 54.1101C170.094 54.6405 166.036 55.3478 163.212 55.5246C160.389 55.7014 156.331 56.7623 153.861 56.9391C149.097 58.1767 145.039 59.0608 141.157 60.1216C137.275 61.1825 133.393 62.4201 129.158 64.365C128.806 64.5418 128.982 64.1882 128.453 64.5418C128.453 64.5418 128.276 64.7186 128.1 64.8954C128.276 65.2491 128.453 65.2491 128.982 65.2491C128.982 65.2491 129.158 65.0723 129.335 64.8954C131.276 64.8954 133.922 64.0114 136.216 63.6578C136.216 63.481 137.098 63.1274 137.628 62.9505C138.157 62.9505 139.039 62.5969 139.392 62.7737C142.039 61.5361 141.333 62.9506 143.98 61.7129C144.509 62.2433 147.685 60.652 148.391 61.0057C147.332 61.7129 147.156 62.2433 146.274 62.9505C139.216 65.4259 130.746 69.1388 125.277 71.2605C124.041 71.9678 123.336 72.3214 122.806 72.675C122.63 72.4982 121.924 73.0286 121.924 73.0286C120.689 73.9127 119.454 74.7967 118.219 75.1503C117.16 76.0344 116.454 76.7416 114.866 77.6256C115.219 77.6256 114.337 78.1561 114.337 78.3329C115.925 77.9793 118.748 76.7416 120.336 76.0344L120.513 76.2112C118.925 77.4488 118.219 78.5097 116.278 79.9242C112.572 82.5763 108.161 85.2284 105.338 88.0573C102.515 90.8863 100.751 93.3616 97.751 96.3673C94.0456 100.08 90.8696 104.324 87.5172 107.86C86.1056 109.805 84.694 111.926 82.7531 114.402C79.4006 119.529 76.5775 124.126 73.5779 129.961C73.5779 130.845 72.8721 131.729 72.1663 133.144C72.1663 133.497 72.3428 133.497 72.1663 133.851C70.7548 136.326 71.2841 137.033 69.8726 139.509C69.8726 139.862 69.6961 140.746 70.2255 140.393C70.2255 140.746 69.6961 141.453 69.5197 142.161C69.6961 141.984 69.8726 141.63 69.8726 141.63C69.5197 142.514 69.6961 142.161 69.8726 142.161C69.1668 143.929 68.461 147.111 68.9903 147.288C68.8139 146.581 70.049 146.404 70.2255 145.166C70.049 145.52 70.4019 144.636 70.5783 144.106C71.1077 143.929 71.2841 143.222 71.637 142.691C71.637 142.161 71.8135 141.807 71.9899 141.277C72.5192 140.569 73.0486 139.862 73.225 140.216C73.4015 139.685 73.225 140.039 73.4015 139.332C73.225 139.509 73.0486 139.862 73.0486 139.862C73.4015 139.155 73.225 138.625 73.9308 137.917C73.5779 138.801 75.1659 137.387 75.5188 136.68C75.1659 136.503 76.7539 134.558 76.5775 134.204C77.1068 133.674 77.8126 131.552 78.8713 130.668C79.4006 128.9 81.1651 126.778 81.8709 125.364C82.4002 125.364 82.5767 124.833 82.9296 125.01C82.2238 125.718 82.5767 125.718 82.2238 126.425C82.0473 126.425 81.8709 126.955 81.1651 127.839C81.3415 127.662 80.4593 129.784 80.8122 129.254C79.4006 131.022 78.8713 132.967 77.2833 134.735C77.2833 135.088 77.6362 135.088 77.2833 135.442C76.9304 135.796 76.9304 136.68 76.4011 136.68C75.6953 138.271 75.8717 138.801 75.8717 139.685C75.5188 139.862 75.5188 140.393 75.1659 140.746C75.5188 140.746 74.813 141.984 75.1659 142.161C74.813 142.868 74.813 143.222 74.2837 143.929C74.4602 144.106 74.1073 144.813 74.2837 145.166C74.4602 144.813 74.6366 145.166 74.813 144.99C74.6366 145.343 74.4602 145.52 74.2837 145.697C74.6366 145.697 75.1659 144.813 75.3424 145.166C75.5188 144.813 75.5188 144.636 75.6953 144.636C75.5188 145.343 75.6953 144.813 76.0482 144.813C74.6366 147.465 74.9895 151.355 73.5779 154.007C73.9308 154.361 73.5779 154.891 73.9308 155.245C74.1072 154.537 74.2837 154.891 74.4601 154.537C74.4601 154.537 74.2837 154.361 74.4601 154.007C74.6366 153.83 74.813 153.83 74.813 154.184C75.1659 153.3 74.6366 153.476 74.813 152.946C75.3424 152.416 75.5188 151.885 76.0482 151.355C76.0482 151.885 75.8717 152.946 76.4011 152.416C75.8717 153.476 76.0482 153.653 75.5188 154.537C75.8717 155.421 76.2246 155.068 77.1068 153.83C77.1068 153.653 76.9304 153.653 77.1068 153.123C77.2833 153.3 77.6362 152.769 77.8126 152.592C78.5184 150.648 79.0477 148.703 79.7535 147.642C79.4006 147.642 80.4593 146.051 79.7535 146.935C80.1064 145.874 80.4593 145.52 80.9886 144.459C80.8122 143.929 81.518 143.222 81.6944 142.691C82.4002 142.338 82.7531 141.277 83.106 140.039C83.4589 140.216 84.8704 137.033 84.5176 138.271C84.8704 137.741 84.8705 137.033 85.2234 136.856C85.3998 136.856 85.2234 137.21 85.5762 137.033C85.0469 137.741 85.0469 138.271 84.694 138.448C84.5176 140.746 82.2238 144.459 82.0473 146.935C81.8709 146.935 81.8709 146.758 81.6944 147.111C82.0473 147.288 82.0473 147.288 81.6944 147.819C81.6944 148.172 82.2238 147.465 81.8709 147.995C81.6944 148.172 81.8709 148.172 81.6944 148.349C81.518 148.349 81.6944 147.995 81.518 148.349C81.6944 148.349 81.3416 148.879 81.3416 149.056C81.6944 148.526 81.8709 148.526 82.0473 148.172C81.8709 148.172 81.8709 147.995 82.0473 147.642C82.0473 147.642 82.2238 147.819 82.4002 147.465C82.5767 147.111 82.2238 147.111 82.4002 146.404V146.581C83.106 145.343 84.1647 141.984 84.8705 141.984C84.8705 141.984 84.694 142.514 84.694 142.338C84.8705 142.338 84.8705 141.807 85.0469 141.807C85.2233 141.807 85.0469 142.338 85.5762 141.807C84.8705 142.691 85.5762 143.575 85.7527 143.398C85.7527 143.398 86.6349 142.868 86.8114 143.045C86.8114 142.161 87.87 141.63 88.0465 140.746C88.2229 140.746 88.3994 140.393 88.5758 140.569C88.5758 141.1 88.3994 141.277 88.5758 141.277C88.3994 141.63 88.0465 142.161 88.0465 142.161C88.5758 141.1 88.3994 142.161 88.5758 141.807L88.7523 141.1C88.9287 141.277 89.1052 140.923 89.1052 140.923C88.9287 141.277 88.5758 141.453 88.9287 141.453C89.8109 139.862 89.8109 139.685 89.8109 138.978C89.9874 138.801 89.9874 138.978 90.3403 138.448C90.1638 138.271 90.1638 138.271 90.3403 137.917C90.3403 138.094 90.8696 137.741 90.6932 137.741C90.5167 138.271 90.5167 137.387 90.1638 137.917C90.1638 137.917 89.9874 138.094 89.9874 138.271C89.8109 138.801 89.9874 138.448 89.9874 138.801C89.2816 139.332 89.9874 138.625 89.9874 138.094C90.3403 137.917 91.0461 137.21 91.2225 137.387C91.5754 136.326 92.4576 135.088 92.987 134.204C93.1634 133.32 93.1634 132.967 93.8692 132.436C93.8692 132.436 93.6927 132.259 93.8692 132.083C94.0456 132.259 94.0456 131.906 94.3985 131.552C94.3985 131.199 94.575 131.199 94.575 130.668L95.1043 129.784C95.6336 129.961 95.1043 129.254 95.9865 129.077C95.9865 128.37 97.5746 126.602 97.5746 126.778C97.9275 126.071 98.1039 125.718 98.6332 125.01C98.8097 125.01 99.1626 124.833 99.5154 124.833C99.339 125.187 99.5155 125.187 98.9861 125.718C99.1626 125.718 99.5155 126.248 98.8097 126.425C98.9861 126.248 98.9861 125.894 98.8097 126.248C98.6332 126.778 98.4568 126.955 98.1039 127.486C98.2803 127.839 98.1039 128.016 98.6332 128.193C98.8097 128.016 99.5155 127.132 100.045 126.602C100.574 125.718 101.633 124.126 102.692 123.065H102.868C102.691 123.242 102.692 123.242 102.339 123.419C102.515 123.949 101.633 125.01 101.103 125.894C105.515 119.176 110.632 112.987 116.278 107.506C116.278 107.506 116.278 107.329 116.454 107.153C116.454 107.153 116.454 107.153 116.631 107.153C117.513 106.269 118.219 105.561 119.101 104.854C141.157 83.9908 170.976 71.0837 203.795 71.0837C271.903 71.0837 327.131 126.425 327.131 194.673C327.131 262.921 271.903 318.262 203.795 318.262C187.386 318.262 171.682 315.079 157.39 309.245C156.684 309.422 156.684 309.952 157.39 310.482C158.272 311.013 160.213 311.366 160.919 312.074C156.86 311.013 151.214 308.184 149.45 308.538C146.979 307.83 145.215 308.891 146.979 310.659C148.744 311.897 150.685 313.135 151.92 314.372C151.038 314.372 150.155 314.195 148.92 313.842C152.273 315.61 154.919 316.317 157.743 317.908C158.625 319.323 162.683 319.676 164.095 320.914C164.095 320.737 164.448 321.091 164.977 320.914C165.506 321.268 165.506 321.621 166.565 321.975C166.212 321.975 166.565 322.329 167.094 322.505C167.094 322.329 167.271 322.329 167.447 322.329C167.094 323.036 168.153 323.743 167.624 324.097C169.741 326.218 174.152 326.572 175.034 328.517C175.211 328.87 175.564 329.224 176.446 329.578C176.799 329.578 177.152 329.578 177.505 329.578C178.74 330.285 181.386 330.108 182.092 331.169C181.916 331.346 181.563 331.346 181.21 331.346C176.446 330.639 172.741 329.755 168.506 329.047C167.976 329.401 167.094 329.401 165.683 329.224C165.683 330.285 163.742 329.401 163.389 330.285C163.036 331.523 167.447 333.114 169.741 334.175C169.212 333.998 169.917 334.352 169.741 334.528C168.859 334.528 168.153 334.528 167.447 334.352C169.035 335.766 174.505 336.65 176.269 337.888C176.269 338.241 175.387 338.241 174.858 338.241C177.681 339.302 181.21 340.009 182.798 341.07C184.739 341.601 187.386 341.954 189.15 342.308C189.15 342.485 189.503 342.485 189.503 342.485C189.15 342.485 188.974 342.662 189.326 342.838C191.267 342.485 192.502 343.546 194.62 343.369C194.443 343.899 196.031 343.722 195.502 344.253C194.09 344.076 190.914 344.076 189.856 343.722C181.033 342.838 171.505 340.893 162.86 337.888C154.214 335.059 146.45 331.346 140.804 327.81C137.275 326.042 133.922 323.566 130.394 321.091C126.512 318.439 122.453 315.433 119.63 312.427C118.395 311.543 117.16 310.482 116.984 309.952C115.748 309.245 115.219 308.361 114.513 307.653C112.749 306.416 110.808 303.94 108.691 301.819C107.985 300.935 108.161 300.227 107.103 299.52C107.279 299.874 105.868 298.283 105.691 297.929C105.868 298.106 106.397 298.813 106.22 298.459C106.044 298.283 105.691 297.929 105.515 297.752C105.691 297.929 105.868 297.752 105.515 297.399C104.103 296.515 103.574 295.277 103.221 294.393C103.044 294.393 102.339 294.216 102.162 293.686C102.868 294.746 102.515 292.978 102.692 293.332C102.692 293.155 102.162 292.625 101.986 292.271C101.809 292.448 101.809 292.271 101.456 292.094C101.456 292.094 101.633 292.271 101.809 292.094C100.574 290.857 100.045 290.68 98.9861 289.265C98.8097 289.442 98.8097 289.265 98.6332 288.912L98.4568 289.089C96.8688 287.497 95.9865 286.967 94.9279 285.729C94.7514 285.729 94.9279 286.083 94.9279 286.26C94.3985 285.729 93.8692 284.845 94.2221 285.729C93.6927 284.845 93.6927 285.376 93.3398 284.668C92.6341 284.315 91.0461 283.431 90.5167 282.547C90.1638 282.547 90.3403 283.431 89.8109 282.723C89.8109 282.547 90.1638 282.547 89.9874 282.37C89.8109 282.37 89.6345 281.839 89.458 282.016C89.458 282.193 89.6345 282.37 89.6345 282.37L88.9287 281.309C88.5758 281.132 88.7523 281.663 88.3994 281.486C88.2229 280.779 87.6936 280.779 87.6936 280.779C87.5171 280.248 86.9878 280.071 86.6349 279.364L86.282 279.541C85.5762 278.48 84.8704 278.48 84.5176 277.596C84.694 278.126 83.9882 277.242 84.1647 277.773C83.6353 277.066 83.6353 277.419 83.2824 276.535C83.106 276.712 82.7531 276.358 82.4002 275.828C82.2238 275.828 82.4002 276.005 82.4002 276.182C81.518 274.767 80.8122 274.944 80.2829 273.883C78.8713 273.353 77.2833 271.231 75.8717 270.347C75.8717 270.347 76.0482 270.347 76.0482 269.993C75.8717 270.17 75.5188 269.993 75.5188 269.463C74.9895 269.463 74.4602 268.048 74.2837 268.579C74.1073 268.048 73.7544 268.048 73.9308 267.518C73.5779 267.872 72.8721 266.28 72.6957 266.811C72.5192 266.103 71.9899 266.28 71.637 265.043C71.4606 265.043 71.4606 265.219 71.2841 265.043C71.4606 264.689 70.9312 264.159 71.1077 264.866C70.5783 263.628 70.049 262.921 69.3432 262.744C69.5197 263.628 69.5197 263.982 70.049 265.219C69.3432 265.573 68.8139 265.043 68.8139 265.75C68.2845 265.219 67.7552 264.512 67.7552 265.219C68.1081 265.219 68.1081 266.28 68.461 266.988C69.1668 267.695 69.3432 268.225 70.049 268.579C70.9312 270.17 71.4606 270.524 72.3428 271.585C72.3428 272.115 72.6957 272.292 73.0486 272.822C72.8721 272.822 72.6957 272.645 73.0486 273.176C73.225 272.822 74.1073 275.474 74.6366 275.474C74.1073 275.298 75.1659 276.712 74.6366 276.535C74.813 277.066 75.1659 277.242 75.3424 277.419C75.3424 277.596 74.9895 277.419 75.1659 277.773C75.3424 277.596 75.5188 277.596 75.6953 277.95C75.5188 277.95 75.8717 278.48 75.6953 278.48C75.5188 278.126 75.3424 277.95 75.5188 278.303C75.5188 278.126 75.8717 279.01 75.8717 279.187C75.6953 279.364 74.9895 279.187 75.3424 279.718C74.4601 279.718 73.7544 277.596 72.6957 276.889C72.8721 276.712 72.5192 276.535 72.3428 276.005C72.1664 276.005 72.3428 276.358 72.1663 276.182C72.1663 276.005 71.9899 276.005 71.8135 275.651C72.1664 275.828 70.9312 274.237 70.7548 273.353C70.5784 272.999 70.5783 273.353 70.4019 272.999C70.5783 272.645 69.5197 270.7 68.9903 270.347C68.8139 269.286 68.6375 269.64 68.1081 268.932C68.461 268.932 67.7552 268.048 67.7552 268.048C67.7552 267.695 67.5788 267.164 67.2259 266.811C67.5788 266.811 66.6965 265.75 67.2259 265.573C66.3437 263.805 66.1672 263.628 65.1085 261.683C64.9321 261.683 64.9321 261.86 64.7556 261.33C64.4027 261.153 64.9321 262.037 64.5792 261.86C64.2263 261.153 64.2263 261.86 63.8734 261.153C63.8734 261.683 64.5792 262.567 64.0499 262.037C64.2263 262.744 64.4027 262.567 64.5792 263.275C64.2263 263.451 65.6379 265.573 66.1672 267.518C66.3436 268.048 66.5201 267.518 66.873 268.225C67.0494 268.756 66.5201 268.225 67.0494 268.932C67.2259 268.932 67.5788 269.64 68.1081 270.524C68.461 270.701 68.1081 270.17 68.1081 269.993C68.461 270.524 68.2846 270.524 68.461 270.877L68.2845 270.701C68.6374 271.408 68.9903 271.938 69.3432 272.469C69.1668 272.645 69.6961 273.883 70.4019 274.767C69.6961 274.237 70.9312 275.828 70.7548 276.182C70.5784 276.535 69.5197 275.474 69.5197 275.828C68.9903 274.59 68.461 274.237 67.9317 273.706C68.6374 274.767 68.2845 274.767 68.2845 275.121C68.8139 275.474 68.2846 275.297 68.461 275.651C68.6374 275.651 68.8139 276.005 68.9903 276.182C68.461 275.651 69.3432 277.242 68.6374 276.358C68.9903 277.066 68.6374 276.535 68.8139 277.066C68.6374 277.066 68.1081 276.535 68.2845 277.066C68.461 277.066 68.461 277.066 68.6374 277.419C68.461 277.242 68.1081 276.889 67.9317 277.242C68.461 278.126 67.9317 277.95 68.461 278.834C69.8726 280.248 72.6957 283.254 72.8721 285.022C75.5188 288.205 74.2837 289.089 73.0486 288.028C73.5779 288.381 72.5192 287.497 72.3428 287.32L72.6957 287.674C71.9899 286.79 71.637 286.26 70.4019 284.845C70.4019 284.315 69.3432 282.9 68.9903 282.547C69.1668 282.723 69.3432 282.723 68.9903 282.193C68.8139 282.193 68.461 281.132 68.2845 281.486C69.6961 283.607 70.4019 286.26 71.8135 288.381C72.1664 288.912 73.0486 289.973 73.225 290.68C73.4015 290.503 73.7544 291.387 74.1073 291.564C73.4015 291.21 74.9895 292.802 74.6366 292.978C74.813 292.802 75.1659 293.155 75.5188 293.332C76.5775 294.923 77.8126 296.514 78.5184 296.868C78.6948 297.399 79.4006 298.459 79.93 299.167C79.2242 298.106 79.4006 299.167 79.7535 299.343C79.5771 299.167 79.7535 298.99 79.93 299.167C79.7535 299.52 79.2242 299.167 79.7535 300.228C79.5771 300.051 79.2242 299.874 79.0477 299.874C79.93 300.758 79.7535 300.758 80.4593 301.642C80.4593 301.642 80.6358 301.465 80.8122 301.819C80.8122 301.819 80.8122 301.819 80.9886 301.996C80.6357 301.819 80.1064 301.465 79.7535 300.758C79.5771 300.581 79.93 301.465 79.5771 300.935C79.4006 300.227 77.8126 298.636 76.2246 296.691C74.6366 294.746 73.0486 292.625 72.6957 290.857C71.9899 290.149 71.9899 289.973 71.637 289.265C71.8135 289.442 71.9899 289.619 71.9899 289.619C71.8135 289.442 71.8135 289.265 71.8135 289.089C71.2841 288.558 71.637 288.912 71.2841 288.028C71.1077 288.028 71.2841 288.381 71.1077 288.381C68.461 284.668 66.3436 280.248 64.4027 277.773C64.5792 277.066 63.1676 274.237 62.4618 274.413C61.9325 273.529 62.109 273.706 61.9325 272.822C61.7561 272.822 61.0503 271.761 61.2267 272.645C61.2267 272.645 61.4032 272.822 61.2267 272.822C61.756 273.883 62.1089 274.413 62.1089 275.121C61.756 276.358 62.4618 278.303 63.1676 280.425C61.9325 278.48 61.756 277.596 60.6974 276.358C60.5209 275.298 59.9916 274.767 59.6387 273.883C59.4623 273.883 59.1094 273.353 58.7565 272.999C58.9329 272.292 58.0507 271.231 57.8742 270.347C56.6391 268.756 56.8156 267.341 55.404 265.396C55.2275 263.628 53.4631 262.214 53.2866 259.738C52.228 257.97 51.1693 254.965 50.2871 251.605C49.2284 248.423 48.3462 244.886 47.2875 242.765C47.2875 242.234 47.111 241.527 47.111 240.997C46.4053 240.643 46.2288 238.168 46.2288 237.284C45.523 235.692 44.6408 231.449 44.4644 230.388C44.1115 229.858 44.1115 227.382 43.7586 225.614C43.5821 225.614 43.5821 225.614 43.5821 225.084C43.0528 225.084 42.8763 225.791 42.6999 224.377C42.6999 223.669 43.2292 223.846 42.6999 223.316C43.0528 223.316 43.5821 224.553 43.5821 222.962C43.4057 223.493 43.2292 221.725 43.2292 222.432C43.4057 222.432 43.4057 223.316 43.2292 223.139C43.2292 222.432 42.8763 222.962 42.8763 222.432C42.8763 222.078 42.8763 222.078 42.8763 221.725C42.347 220.84 41.8177 220.84 41.4648 219.603C40.9354 219.78 41.1119 221.725 41.1119 223.316C41.1119 224.907 41.1119 226.322 40.5825 225.084C40.4061 223.846 40.2296 223.846 40.4061 222.962C39.7003 222.078 39.5239 216.951 39.5239 215.536C39.5239 215.713 39.3474 214.652 39.3474 213.945C39.3474 213.591 38.9945 213.945 38.9945 213.415V212.884C38.9945 213.591 38.8181 214.299 38.6416 213.415C38.8181 214.299 38.6416 214.475 38.8181 215.536C38.6416 215.536 38.6416 215.89 38.4652 215.89C38.6416 219.072 38.1123 220.487 38.6416 223.669C37.9358 224.377 37.583 219.426 36.8772 217.481C37.0536 216.774 36.7007 214.829 36.3479 214.652C36.3479 212.53 35.6421 209.171 35.6421 206.519C35.4656 206.873 35.1127 205.812 34.9363 206.873C35.1127 205.989 34.7598 206.165 34.9363 205.281C34.7598 205.812 34.2305 205.812 34.0541 207.226C34.0541 205.989 33.8776 206.519 33.8776 207.049C33.7012 206.165 33.7011 206.519 33.3483 205.989C32.9954 206.519 33.1718 208.11 32.9954 208.464C33.3483 210.939 32.6425 211.47 32.8189 213.768C32.9954 213.945 32.9954 213.415 32.9954 213.768C32.6425 214.122 32.6425 216.067 32.466 216.951C32.6425 217.128 32.8189 218.188 32.8189 219.072C32.6425 218.719 32.466 220.133 32.8189 220.487C32.6425 220.487 32.6425 220.487 32.466 220.84C32.6425 222.255 32.9954 223.139 32.8189 224.023C32.8189 223.669 32.8189 223.316 32.6425 223.139C32.8189 224.2 32.2896 224.023 32.466 224.73C32.1131 224.2 32.1132 224.73 31.9367 225.438C32.1132 226.852 32.2896 226.145 32.466 226.498C32.2896 226.498 32.2896 226.675 32.2896 226.852C32.1132 226.852 32.1132 226.322 31.9367 226.145C31.7603 227.029 32.466 227.206 32.2896 228.09C31.9367 227.382 31.9367 228.266 31.5838 228.974C31.5838 228.974 31.7603 228.974 31.7603 229.151C31.5838 229.327 31.5838 230.211 31.4074 230.211C31.4074 231.095 31.5838 231.272 31.7603 231.803C31.4074 232.863 31.7603 235.162 31.9367 236.4C31.5838 235.869 32.1131 237.46 31.7603 237.284C31.9367 237.107 32.1132 238.168 32.2896 238.521C31.9367 238.168 32.2896 239.229 32.1131 239.052C31.9367 238.168 31.7602 236.576 31.5838 236.93C31.9367 237.46 31.5838 237.991 31.5838 238.875C31.7602 239.229 32.1131 240.997 31.7603 240.997C31.9367 242.058 32.1132 242.765 32.2896 243.649C31.9367 242.234 32.6425 244.886 32.466 244.179C32.6425 245.063 32.466 245.947 32.466 246.478C32.9954 247.715 33.1718 250.368 33.8776 252.312C34.054 253.196 34.054 253.727 34.2305 254.788C34.9363 258.324 36.5243 262.214 36.5243 264.159C37.7594 266.103 37.583 267.518 38.8181 270.17C38.6416 270.524 38.6417 270.347 38.1123 270.17C38.2888 270.701 38.2887 271.054 38.2887 271.408C38.1123 270.877 37.9358 270.877 37.7594 271.054C37.9358 271.585 37.9359 272.292 38.2887 272.999C37.9359 272.115 37.9359 271.585 37.9359 271.231C38.4652 272.469 37.7594 271.408 38.2887 272.645C38.4652 272.645 38.4652 272.469 38.6416 272.822C38.6416 272.999 38.2888 272.822 38.4652 273.176C38.8181 273.529 39.171 274.59 38.8181 273.529C39.7003 275.297 38.9945 274.413 38.9945 274.944C39.171 274.944 39.3474 275.651 39.3474 275.651C38.8181 274.767 39.5239 276.358 39.5239 276.182C38.9945 275.651 38.2887 273.706 37.7594 272.999C37.9358 272.999 38.1123 273.706 38.1123 273.353C37.4065 272.292 37.2301 271.054 36.8772 269.816C36.3478 269.463 35.8185 267.164 35.8185 266.634C35.1127 266.457 35.2892 265.043 34.7598 263.982C34.9363 264.335 35.1127 264.689 34.9363 264.866C34.2305 263.275 34.7598 263.805 34.7598 263.451C34.4069 262.567 34.5834 262.921 34.4069 262.39C34.2305 262.39 34.2305 262.567 34.0541 262.214L32.1131 255.495H32.2896C31.7603 254.788 32.1131 254.08 31.5838 253.373C31.9367 253.196 31.5838 253.196 31.4074 252.843C31.5838 252.666 31.0545 250.721 31.2309 251.959C30.878 250.898 31.2309 251.252 31.0545 250.544C30.7016 250.544 31.0545 250.368 30.878 250.014C30.7016 250.014 30.7016 250.191 30.5251 249.837H30.7016C30.5251 248.776 30.3487 249.66 30.3487 249.13C30.5251 248.069 29.8193 246.831 29.8193 244.71C29.6429 244.71 29.6429 244.886 29.4665 244.533C29.6429 243.826 29.29 242.765 29.1136 242.942C29.1136 242.588 29.29 242.588 29.29 242.234C28.9371 240.289 28.4078 239.052 28.2313 237.284C28.2313 237.637 28.4078 237.991 28.4078 238.168C28.4078 237.46 28.2313 237.107 28.2313 236.576C27.8784 236.93 27.8784 234.985 27.3491 234.985C27.5256 235.869 27.702 236.046 27.8785 237.107C27.702 237.461 28.0549 238.875 27.702 239.052C28.0549 239.405 28.2313 240.289 28.4078 240.82C28.2313 240.82 28.2313 240.113 28.0549 240.289C28.2313 241.35 28.2313 241.527 28.5842 242.411C28.5842 243.118 28.2313 242.942 28.4078 243.826C28.5842 244.002 28.7607 243.826 28.9371 244.356C28.9371 245.063 29.1136 244.71 29.29 245.24C28.9371 245.24 29.6429 247.362 29.6429 247.539L29.29 247.715C29.4665 248.069 29.4665 248.776 29.6429 248.776C29.6429 248.423 29.4665 248.069 29.4665 247.892C29.6429 248.599 29.6429 248.423 29.9958 248.953C29.8193 248.953 29.8194 249.66 30.1723 250.368C30.1723 250.014 29.9958 249.66 29.9958 249.483C30.1722 250.544 30.3487 250.368 30.5251 250.721C30.1722 250.544 30.1722 251.075 30.5251 251.605C30.3487 251.605 30.5251 252.136 30.1723 251.959C30.878 252.843 30.7016 254.788 31.2309 254.965C31.0545 255.141 31.4074 255.495 31.4074 255.849C30.878 255.141 31.5838 256.733 31.5838 257.263C31.0545 255.318 31.4074 257.97 31.5838 257.793C31.5838 257.44 31.4074 257.086 31.4074 256.909C31.9367 258.678 31.9367 257.44 32.2896 258.324C32.466 259.208 31.7603 257.617 31.9367 258.501C32.1132 258.501 32.466 259.385 32.2896 259.562C31.9367 258.324 32.466 260.269 31.9367 259.031C32.1132 259.915 32.2896 259.562 32.6425 260.622C32.466 260.622 32.1131 259.562 32.1131 260.446C32.466 260.976 32.6425 261.86 32.9954 262.214C32.8189 261.86 32.8189 261.506 32.9954 261.86C33.1718 262.567 32.9954 262.744 33.3483 263.628C33.5247 263.628 33.5247 263.451 33.7012 263.805C33.7012 263.982 33.8776 264.335 34.0541 264.689C33.7012 264.159 34.407 265.927 33.7012 264.512C34.2305 265.573 33.7011 265.396 34.2305 266.457C34.5834 266.811 35.4656 269.109 35.4656 269.64C35.2892 269.109 35.1127 268.932 34.9363 268.932C35.2892 269.816 35.2892 269.993 35.2892 270.347C35.4656 270.524 35.6421 270.347 35.8185 270.701C35.8185 271.408 36.3478 272.645 36.5243 272.469C36.5243 272.999 36.5243 273.529 36.1714 273.529C35.995 273.176 34.7598 269.993 34.9363 269.816C34.2305 268.579 34.0541 267.695 33.5247 266.634C34.2305 267.341 32.9954 264.689 33.7012 265.396C33.1718 264.689 33.1718 264.335 32.9954 264.689C32.8189 264.335 32.8189 264.159 32.6425 263.982C33.3483 264.335 31.5838 261.506 32.466 262.567C31.9367 261.33 32.2896 261.86 31.9367 260.976C31.7603 260.976 31.7602 261.153 31.5838 260.799C31.4074 259.915 31.0545 259.208 31.4074 258.854C31.2309 258.677 31.0545 258.324 30.878 257.617C31.2309 258.147 30.5251 256.202 30.5251 256.025C30.7016 256.733 29.9958 255.495 30.3487 256.379C30.3487 257.263 31.0545 259.385 31.7603 261.153C31.5838 261.153 31.5838 260.799 31.4074 260.976C31.7603 262.037 31.9367 263.628 32.6425 264.689C32.466 265.219 33.1718 266.457 32.9954 266.457C33.3483 266.987 33.5247 268.225 34.0541 268.756C34.2305 269.816 34.5834 270.877 35.1127 272.292C35.2892 272.115 35.4656 272.469 35.6421 272.999C35.2892 273.176 36.3478 274.59 35.9949 274.767C36.5243 275.651 36.3478 275.828 36.8772 276.889C37.0536 276.889 37.0536 276.712 37.2301 277.066C36.7007 277.066 38.6416 280.425 37.583 279.01C38.2888 280.425 38.6416 280.602 38.2887 280.779C38.4652 281.132 38.6417 280.602 38.9945 281.486C38.9945 282.193 39.7003 283.784 40.5825 285.376C40.759 285.199 40.5826 285.199 40.759 284.668C40.2297 283.784 40.0532 283.077 39.8768 282.193C38.9945 280.955 38.1123 278.48 38.2887 277.596C37.9359 277.242 38.4652 278.834 37.9359 278.126C37.9359 277.596 37.7594 277.419 37.7594 277.95C36.8772 276.182 37.0536 275.651 36.3479 274.767C36.5243 274.59 36.7007 273.706 37.2301 274.413C37.4065 275.121 37.583 275.297 37.0536 274.767C37.4065 275.828 37.583 275.121 37.9359 276.182C37.7594 276.712 38.6416 278.126 38.8181 278.834C39.171 279.01 39.171 279.01 39.3474 279.187C39.3474 279.718 39.3474 279.718 38.9945 279.364C39.3474 280.248 39.3474 279.541 39.8768 280.602C39.7003 281.309 41.1119 283.077 41.2883 284.315C41.6412 284.668 41.8177 285.022 42.347 285.376C42.1706 285.376 42.347 285.729 42.347 285.906C42.1706 285.906 41.8177 285.022 41.6412 285.022C41.9941 285.552 42.1706 285.729 42.347 286.26C42.5234 286.26 42.5235 285.729 42.8763 286.26C42.5235 286.436 42.6999 286.436 43.0528 286.79L42.8763 286.967C43.4057 287.674 43.7586 288.912 43.935 288.735C44.1115 288.558 43.5821 288.205 43.2292 287.497C43.4057 287.497 43.4057 287.32 43.4057 287.144C43.4057 287.32 43.935 288.028 43.7586 288.205C43.5821 288.028 43.4057 287.674 43.4057 287.674C43.7586 288.205 43.935 288.381 44.2879 289.089C43.935 288.735 44.1115 289.265 44.4644 289.619L44.2879 289.796C44.8173 290.68 45.1701 291.21 45.523 292.094C46.0524 292.625 45.523 291.564 45.3466 291.21C46.0524 292.094 45.523 291.918 45.8759 292.625C46.2288 292.802 45.6995 291.917 46.0524 292.448C46.0524 292.625 46.5817 293.686 46.5817 293.862C46.4053 293.862 45.6995 292.802 46.0524 293.509C46.4053 294.039 46.5817 293.862 46.9346 294.393C46.7582 294.57 46.5817 294.039 46.4053 294.393C46.9346 295.277 46.7582 294.746 46.9346 295.277C47.2875 295.63 47.2875 295.1 47.6404 295.63C47.4639 295.807 46.9346 295.277 47.2875 296.161C47.2875 295.454 48.6991 297.929 48.5226 297.399C48.3462 297.222 47.6404 296.161 47.6404 295.984C48.1697 296.338 49.0519 297.929 49.4048 298.813C50.1106 300.404 52.228 302.88 52.4044 303.587C52.4044 303.41 52.228 303.764 52.4044 303.94C51.8751 303.587 50.8164 301.642 50.64 301.112C50.64 301.465 50.64 301.465 50.2871 301.112C50.64 301.819 51.1693 302.703 51.8751 303.41C52.0515 304.117 52.228 304.117 52.4044 304.824C52.5809 304.471 53.2866 305.178 53.2866 305.001C52.9338 304.294 52.9338 305.001 52.5809 304.471C52.7573 303.94 53.6395 305.001 53.816 305.709C53.6395 305.709 53.4631 305.355 53.6395 305.885C53.9924 305.709 54.5218 306.946 54.8747 307.123C54.6982 307.123 54.8747 307.477 54.8747 307.477C54.8747 307.123 53.9924 306.593 54.3453 306.416C53.816 305.885 53.4631 305.178 53.1102 305.178C53.6395 306.239 54.1689 306.769 54.8747 307.653C54.8747 307.653 54.6982 307.653 54.5218 307.477C55.0511 308.184 56.992 310.659 56.1098 309.068C55.9333 309.068 56.2862 309.598 55.9333 309.245C55.404 308.537 55.0511 308.007 55.2276 307.653C56.1098 308.891 56.2862 309.068 56.8156 309.952C57.3449 310.306 56.8156 309.598 57.1684 310.129C57.1684 310.482 57.5213 310.836 57.6978 311.013C57.6978 311.013 57.5213 310.836 57.3449 310.836C57.8742 311.543 58.58 312.074 58.7565 312.604C58.4036 312.604 58.58 312.781 58.2271 312.604C58.9329 313.311 58.7565 313.488 58.4036 313.135C59.4623 314.372 60.3445 315.256 60.5209 315.787C60.5209 315.256 61.2267 316.317 61.4032 316.14C60.8738 315.61 60.6974 315.256 60.3445 314.726C61.0503 315.787 60.3445 314.372 60.8738 315.079C61.2267 315.433 61.5796 316.317 61.9325 316.494C61.7561 316.14 61.7561 316.317 61.9325 316.494C62.2854 317.201 62.2854 317.201 61.9325 317.201C61.7561 316.671 61.2267 316.317 60.8738 315.963C61.4032 317.024 60.5209 316.317 61.0503 316.847C60.6974 316.14 62.2854 318.085 61.4032 316.847C62.1089 317.555 61.5796 317.378 61.9325 317.908C61.7561 317.378 63.1676 318.969 62.6383 318.792C62.4618 318.616 62.2854 318.262 62.1089 318.085C62.4618 318.792 64.0499 320.207 63.697 320.56C64.7556 321.621 64.7556 322.152 65.6379 323.036C64.9321 322.505 64.7556 322.682 63.8734 321.798C64.4027 321.975 63.3441 321.445 63.3441 321.091C63.3441 321.268 62.9912 320.914 62.8147 320.737C62.9912 321.091 63.5205 321.444 63.5205 321.621C63.1676 321.268 62.8147 320.737 62.6383 320.737C62.9912 321.444 63.3441 321.445 63.5205 321.975C63.697 321.975 63.6969 321.798 63.8734 321.975C63.6969 322.152 64.5792 322.859 63.697 322.152C66.3437 325.688 70.2255 330.639 73.7544 333.998C73.7544 334.175 74.2837 334.528 73.9308 334.528C80.2829 341.07 87.6936 348.319 97.2217 355.215C115.219 368.122 136.569 378.73 160.036 384.212C175.211 387.748 190.738 389.162 206.618 388.985C225.145 388.632 243.495 385.803 261.14 380.145C278.784 374.487 295.547 366.177 310.721 354.861C319.72 348.143 328.719 340.009 336.129 331.699C347.069 319.676 357.126 305.355 364.89 289.796C372.654 274.237 378.3 257.263 381.3 240.643C381.3 240.643 381.123 240.643 381.123 240.289C382.888 230.919 384.123 221.194 384.123 211.47L384.299 211.823C384.652 208.818 384.299 200.861 384.123 196.971C383.77 184.772 381.829 170.804 378.123 156.659C374.418 142.691 368.595 128.546 361.714 115.993C361.538 115.816 361.361 115.816 361.185 115.639C361.361 115.639 361.185 115.463 361.185 115.286C359.42 112.28 357.479 108.567 355.715 105.915C355.538 105.915 355.538 106.092 355.362 105.738C355.538 105.738 355.186 105.385 355.186 105.208C351.48 99.3731 347.245 93.3616 342.658 87.7037C338.07 82.0459 333.483 76.9184 329.424 73.0286C328.719 72.1446 327.836 71.4373 327.66 70.9069C326.778 70.1997 326.601 70.1997 325.719 69.4925C326.072 69.3157 325.896 68.962 326.248 68.6084C325.719 67.7244 323.249 65.4259 323.778 65.4259C322.896 64.5418 321.308 63.3042 320.955 62.7737L322.719 64.365C324.66 65.4259 327.307 67.7244 329.601 69.8461C335.424 74.4431 341.246 79.9242 346.54 85.9356C350.245 89.8254 354.833 94.7761 358.538 100.08C361.361 103.44 363.126 105.915 365.596 109.628C369.831 116.17 373.712 122.712 377.065 129.431C380.417 136.149 383.417 143.398 386.064 151.178C387.122 153.83 388.357 157.897 388.887 160.902C390.828 166.56 391.71 172.925 393.121 178.583C393.121 180.528 394.004 182.119 394.004 184.948C394.356 186.186 394.886 188.485 394.709 190.429C395.592 193.966 395.945 199.27 396.827 201.922C397.533 202.099 398.062 205.281 398.238 209.348C398.415 213.415 398.415 218.012 398.591 221.017C399.297 220.84 400.179 220.487 400.179 223.846C400.532 223.493 400.885 223.316 401.238 223.316C401.238 222.432 401.414 222.609 401.414 222.078C401.061 221.901 401.414 222.785 401.238 222.785C400.885 222.078 400.885 220.84 401.061 219.426C401.591 218.365 402.826 218.542 402.297 220.133C402.473 220.31 402.473 220.487 402.473 220.133C402.473 226.498 401.944 231.803 401.767 237.107C402.473 236.93 401.238 243.649 402.473 242.058C402.297 243.295 403.002 242.588 402.649 244.533C403.179 243.295 403.708 243.649 403.885 244.71C404.943 240.997 405.825 236.223 406.355 231.626C406.531 231.803 406.531 231.272 406.708 230.919C407.237 231.095 407.237 233.04 407.413 234.101C408.296 232.863 408.119 227.559 408.649 223.139C409.002 220.664 409.354 220.664 409.354 218.365C409.884 218.365 410.237 216.243 410.413 214.652C410.942 215.536 410.766 217.658 411.119 217.481C411.295 212.53 411.472 204.751 410.942 199.27C410.942 198.386 411.119 197.855 411.295 197.502C411.825 198.563 412.354 199.623 412.53 201.922C412.354 201.922 412.354 201.392 412.354 202.276C412.354 202.452 412.707 202.806 412.883 203.336C413.236 198.563 413.06 192.728 413.413 190.253Z" fill="#F6F6F6"/>
</svg>
