<svg width="105" height="52" fill="none" xmlns="http://www.w3.org/2000/svg">
  <path d="M88.81 8.38l6.35 16.58H82.34l6.47-16.58zM26.9 45.14l1.44 3.63H25.4l1.49-3.63zm3.03 5.2l-2.65-6.14c-.08-.18-.2-.28-.38-.28-.19 0-.3.1-.4.28l-2.64 6.15c-.03.1-.06.18-.06.27 0 .2.18.4.4.4a.4.4 0 00.39-.27l.52-1.24h3.54l.55 1.24c.09.17.2.27.4.27.21 0 .41-.19.41-.4a.97.97 0 00-.08-.27zM19.29 51c.23 0 .4-.18.4-.42v-6.23a.41.41 0 00-.4-.42c-.24 0-.4.19-.4.42v6.23c-.02.24.15.42.4.42zm-7.03 0c1.32 0 2.23-.79 2.23-1.9 0-.83-.46-1.37-1.62-1.92l-.76-.37c-.9-.42-1.11-.67-1.11-1.15 0-.6.49-1 1.23-1 .54 0 1.01.21 1.4.63.08.08.18.13.28.13.2 0 .4-.18.4-.37 0-.1-.04-.2-.16-.33a2.48 2.48 0 00-1.9-.82c-1.2 0-2.08.75-2.08 1.8 0 .76.46 1.31 1.55 1.83l.78.37c.9.42 1.15.7 1.15 1.2 0 .68-.56 1.15-1.4 1.15a2.2 2.2 0 01-1.72-.9.4.4 0 00-.32-.14c-.2 0-.39.17-.39.37 0 .1.03.18.1.25A2.97 2.97 0 0012.26 51zM3.1 45.14l1.45 3.63H1.62l1.48-3.63zm3.03 5.2L3.5 44.2c-.09-.18-.2-.28-.39-.28s-.3.1-.39.28L.07 50.35c-.04.1-.07.18-.07.27 0 .2.19.4.4.4a.4.4 0 00.4-.27l.51-1.24h3.54l.56 1.24c.08.17.2.27.4.27s.4-.19.4-.4c-.01-.09-.03-.17-.08-.27zm36.83.66c1.31 0 2.22-.79 2.22-1.9 0-.83-.45-1.37-1.62-1.92l-.75-.37c-.9-.42-1.12-.67-1.12-1.15 0-.6.5-1 1.23-1 .54 0 1.01.21 1.4.63.09.08.19.13.29.13.2 0 .39-.18.39-.37 0-.1-.04-.2-.16-.33a2.48 2.48 0 00-1.9-.82c-1.2 0-2.07.75-2.07 1.8 0 .76.45 1.31 1.55 1.83l.77.37c.9.42 1.15.7 1.15 1.2 0 .68-.56 1.15-1.4 1.15a2.2 2.2 0 01-1.72-.9.4.4 0 00-.32-.14c-.2 0-.39.17-.39.37 0 .1.04.18.1.25A2.97 2.97 0 0042.97 51zm8.82-3.7v-2.53h1.59c.86 0 1.38.49 1.38 1.27 0 .79-.52 1.28-1.38 1.28h-1.59v-.02zm-.4 3.7c.24 0 .4-.18.4-.42v-2.56h1.62c1.32 0 2.2-.8 2.2-2.01 0-1.19-.88-2-2.2-2h-2a.4.4 0 00-.42.43v6.14c0 .24.16.42.4.42zm10.16-.1h3.84c.2 0 .37-.17.37-.37 0-.2-.17-.37-.37-.37h-3.4v-2.58h2.44c.2 0 .37-.16.37-.36 0-.2-.17-.37-.37-.37h-2.44v-2.1h3.26c.2 0 .37-.15.37-.37 0-.2-.16-.36-.37-.36h-3.7a.36.36 0 00-.37.36v6.12c0 .23.15.4.37.4zm12.73.1c1.08 0 2.08-.45 2.68-1.22.12-.15.15-.24.15-.34 0-.2-.18-.37-.38-.37a.4.4 0 00-.34.17 2.6 2.6 0 01-2.1 1.02 2.71 2.71 0 01-2.75-2.8c0-1.58 1.18-2.79 2.74-2.79.85 0 1.55.33 2.1 1.02.11.12.21.17.35.17.2 0 .38-.17.38-.37 0-.1-.03-.2-.15-.33a3.44 3.44 0 00-2.68-1.23 3.52 3.52 0 00-3.58 3.55A3.52 3.52 0 0074.27 51zm8.95 0c.23 0 .4-.18.4-.42v-6.23a.41.41 0 00-.4-.42c-.24 0-.4.19-.4.42v6.23c0 .24.16.42.4.42zm9.01-5.86l1.45 3.63h-2.93l1.48-3.63zm3.03 5.2l-2.64-6.14c-.09-.18-.2-.28-.39-.28-.18 0-.3.1-.39.28l-2.64 6.15c-.04.1-.07.18-.07.27 0 .2.19.4.4.4a.4.4 0 00.4-.27l.52-1.24h3.53l.56 1.24c.08.17.2.27.4.27s.4-.19.4-.4a.61.61 0 00-.08-.27zm6.03.56h3.32c.22 0 .37-.17.37-.37 0-.2-.15-.37-.37-.37h-2.93v-5.83a.41.41 0 00-.4-.41c-.24 0-.4.18-.4.41v6.13a.4.4 0 00.41.44zM73.16 18.02c-.02.09-.03-.11-.07-.17.02.02.02-.05.02-.06l.05.06a3.07 3.07 0 010-.56c.1-.07.05-.8-.03-1.31 0-.07 0-.24-.05-.44a8.34 8.34 0 00-.64-2.44c-.36-.96-.74-1.86-1.18-2.7-.52-.95-1.1-1.79-1.72-2.58-.62-.78-1.3-1.5-2.04-2.2-.45-.41-.94-.83-1.45-1.21-.5-.39-1-.72-1.46-.96-.61-.4-1.23-.75-1.86-1.07-.64-.32-1.3-.62-2.02-.92l-.18-.05c-.3-.12-.6-.22-.95-.34-1.18-.4-2.44-.7-3.75-.89C54.53 0 53.2-.05 51.9.05c-1.2.08-2.34.3-3.43.55-.24.09-.61.15-.91.25a20 20 0 00-2.99 1.23c-.96.47-1.82 1.02-2.62 1.54l-.09.05a20.47 20.47 0 00-5.63 6.1c-.16.33-.38.72-.58 1.08-.2.39-.36.76-.44 1.08.07-.24.18-.14.25-.36l.03-.01c.05-.09.05-.1.05-.14.17-.23.22-.43.32-.58.04.05.04-.07.12-.12v-.03c0 .05.19-.34.12-.17l.2-.4c.09-.05.02.05.07.03-.07.07 0 .03-.03.08-.04.04-.19.3-.2.34.01-.03-.04.08-.02.1-.05.08-.04.02-.09.08 0 .05.05-.03.07-.06-.07.1-.02.06-.05.13-.02 0-.03.03-.03.02.01-.04.03-.05.01-.05a.73.73 0 01-.1.11c-.01.09-.1.19-.12.29-.01-.03-.08.1-.1.15 0-.03 0-.03-.03.02-.05.13-.12.26-.17.35-.05.1.05-.05 0 .03-.02 0-.05.09-.07.07.02-.05.04-.02.05-.09-.06.04-.13.37-.2.37-.1.2-.27.56-.28.5l-.02.09c-.05.05-.12.23-.12.18-.03.17-.08.17-.12.32-.03.04-.03.05-.05.02-.03.05-.03.1-.07.13l-.01.12c-.04 0-.09.1-.12.18 0 0 .02.02 0 .07-.05-.07-.2.59-.2.45-.22.74-.4 1.2-.54 1.91l.02-.06c-.02.11-.05.15-.09.23.07-.03.07-.1.14-.2.11-.44.16-.54.28-.87.02-.14.1-.29.15-.4 0 0-.01-.02 0-.07 0 .08.07-.17.05-.17.04-.01.09-.17.09-.23.03.01.05-.14.08-.2l.16-.3.11-.29c0 .05.05-.07.04.02-.02-.04-.04.05-.05.08.03.02-.02.17 0 .22.1-.07.08.13.2-.07-.04.12-.02.14-.04.2-.01-.01-.11.35-.15.2 0 .05.04.04.02.1-.05.07 0 .05-.03.15-.04-.01-.09.26-.12.22 0 .05.02.05.02.07-.06.08-.02.05-.06.2-.01.02 0-.05-.01 0-.02.03 0 .07 0 .12.03-.15-.09.17-.05.11v-.03l-.07.29c0 .01 0-.05-.02 0l-.08.35c-.02.1-.07.15-.09.25-.05.17-.08.43-.11.64l-.09.35c-.08.47-.15.88-.18 1.2.03-.01 0 .17.01.19.1-.35.2-.97.34-1.58.03 0 .08-.23.08-.28.04-.02.07-.12.09-.1.02-.09 0-.15.03-.17v.08l.02-.05c0 .02-.02.05 0 .05.03-.11-.02-.08.02-.2 0 .07.05-.1.05.02-.02.03-.02-.02-.04.05-.03.12 0 .08-.01.2.05-.07.06-.1.08.02 0 0-.02 0-.02.03.02.05 0 .07.04.03-.02.09 0 .07 0 .12-.04 0 0 .02-.02.09-.02.05-.03.01-.03.08.03.03-.02.13-.02.23l.02-.01c-.02.08-.02.13-.02.2l-.05.17c.05-.02-.03.2 0 .23-.03.1-.05.27-.08.34.01.03-.02.1.01.15a3.4 3.4 0 00-.05.87c-.03.05 0 .26 0 .43.02-.05.02-.08.05-.08 0-.09.02-.09.02-.17.07-.05 0-.37.08-.4-.01-.02.02-.08.02-.12-.02-.1.03-.22.05-.35v.08c.03-.26.09-.45.1-.72.02-.01.07-.1.02-.05.02-.01.02-.11.03-.11.02.01-.01.18 0 .2-.01.03-.03.2-.05.21.02 0 .02 0 .02.04-.1.52-.1 1.04-.07 1.5.03.02.07-.11.03-.25.04.09.06-.1.07-.11l-.01-.05.05-.12c.03-.44.11-.72.16-1.24.02-.07.07-.07.09-.1-.03.08.02.03.02.12-.02.05-.04.03-.04.11.02 0 .02 0 .02.04-.02.01 0 .06-.02.12l-.01.03v.03l.01.04.04-.22c.01.03.03-.1.05-.02.01-.12.01-.12.03-.08 0-.14.08-.3.03-.37.02.02.07-.03.05-.08v-.06c.04-.01.02-.13.05-.21.04.06.09-.17.04-.05.02-.15.03-.05.05-.14.02-.13.03-.2.08-.32l.02-.16c.08-.19.19-.5.29-.82a15.07 15.07 0 01.69-1.86.7.7 0 01.11-.3c.04-.22.2-.44.24-.62.05-.09.07-.15.12-.17-.02-.05.08-.17.05-.22 0 .05.13-.28.1-.13.03-.1.03-.12.1-.24-.02 0-.03-.01 0-.06.15-.14.17-.37.3-.52.09-.17.09-.2.12-.29.02 0 .02.02.04-.02.01-.06.05-.06.16-.25 0-.01-.03 0-.01-.03.03-.02.05-.08.07-.12.01 0 .03-.01.01.02.04-.1.12-.15.15-.23-.08.08.12-.26.17-.26.02-.1.07-.11.12-.25.05-.03.1-.1.2-.23-.03 0 .05-.12.12-.19-.02.05.2-.23.19-.25l.21-.25c-.03-.02.04-.05.02-.08.02.01.05-.05.05-.07.02.02.1-.1.14-.1.01-.05.16-.22.06-.12l.1-.13c.07-.02.1-.08.17-.15h-.03c.08-.07.08-.14.19-.24.05-.01.13-.1.2-.18-.02.03-.04.02-.02-.02.08-.06.14-.13.17-.13.02-.07.05-.07.12-.12-.04 0 .06-.1.06-.12.07-.01.19-.15.24-.2-.03.02.05-.08.08-.11.09-.05.17-.14.26-.19 0-.03.03-.07.05-.1.03.02 0-.02.06-.05.16-.08.17-.13.32-.27.06 0 .24-.16.24-.1-.15.1-.3.32-.45.44-.07.07-.09.07-.16.12-.08.1-.08.25.14.1.13-.14.23-.2.32-.26.17-.18.27-.2.42-.3.02-.05.27-.21.22-.16.1-.07.17-.14.2-.19-.02.05.12-.08.12-.07-.1.09-.07.09-.15.16.07-.02 0 .05-.04.08.17-.08.19-.12.43-.3h.05l-.04.05c-.08.05-.05 0-.12.05-.06.08-.1.13-.1.17l-.03.03v.02c-.07.05-.1.08-.14.08 0 .03-.06.13-.13.22-.03.03-.08.06-.1.06l-.12.19c-.13.1-.2.2-.27.32-.13.1-.2.21-.25.31-.1.06-.19.19-.24.29-.06.07-.08.07-.15.13-.07.1-.13.22-.22.29-.07.1-.12.25-.22.28a1.8 1.8 0 01-.22.32c-.1.22-.25.45-.4.69-.02.05-.07.27-.02.18.02.02-.01.05-.01.09-.02.01-.05.01-.1.08-.06.12 0 .12.01.15a.64.64 0 00.1-.27c.27-.32.7-1 1.06-1.45.1-.1.17-.16.3-.32.04-.05.07-.07.13-.1.06-.14.2-.24.25-.22.05-.05.08-.1.1-.14.12-.1.18-.05.13.02.02 0 .07-.07.09-.08.03 0-.04.05 0 .05.03-.04.05-.09.08-.09.04-.06.02-.06.04-.11.05-.05.06-.04.1-.09-.04.12.22-.13.2-.18.07-.02.13-.1.17-.12.07-.1.15-.18.23-.2a.29.29 0 01.1-.1c.02-.07.2-.15.36-.3.15-.03.28-.27.47-.32.07-.03.02-.03.07-.07.33-.21.64-.43.97-.63v.01c.06-.03.22-.13.2-.13a.37.37 0 00-.08.05l.1-.07c.04 0 .05.02.04.04-.09.03-.05.01-.07.03-.03.02-.03 0-.08.02-.07.08-.2.18-.19.23.1-.03.24-.02.3.02.17-.09.37-.14.54-.19.02.05-.15.14-.08.17.1-.05.08.03.18-.02a.97.97 0 00.17-.13c.04 0 .12.03.07.08.57-.25 1.25-.51 1.94-.75 0 .02.13-.05.1-.02.05-.01.1-.05.12-.03-.22.12-.54.24-.54.32 0-.05-.07.05 0 .02.06-.02.27-.07.37-.14.15-.02.25 0 .37-.07 0 .04.1 0 .1.02.32-.15.37-.02.17.07-.14.02-.12.05-.2.07.28-.04.69-.19.92-.17.36-.07.63-.12.76-.07l.29-.05h.27c.08-.07.25-.03.38-.05.04-.02.12-.03.12-.05.07.02.19 0 .29 0 0-.05.13-.03.23-.05 0 .02.02.02.02.02-.12.06-.39.03-.37.11 0-.01.02.02-.02.02h.15c.02-.03.02 0 .05 0 0-.02.1-.02.12-.05l.27.02c.02-.04.12-.04.14-.05 0 .03.03.01.1.01 0 .02-.04.02-.02.02.09-.02.09 0 .15.02.04-.05.3-.05.27-.04.17 0 .15 0 .24-.03.22.02.27.03.4-.02.15.05.3.02.44 0 .1.04.2.04.34.04.05-.02-.04-.02.05-.02.02.03.1.02.13.05.04-.02.19.02.07-.02l.12.02c.02-.02-.04-.02 0-.02.03.02.12 0 .13.02-.03 0-.03 0-.05.02.07.01.24.06.22.03 0 .02-.07 0-.07 0 .16.02.14-.03.12-.05.04.03.09 0 .12.03h-.05l.12.05c.13.02.2 0 .28 0-.05.02.05.04.07.05.12.04.19 0 .35.04l.09.05c.15 0 .27.03.42.08.07-.01.25.02.3.07.1.02.14 0 .29.05.02.03.12.07.2.08l.05-.01.29.11h.1c.07.04.13.09.19.07 0 .02-.02.02.01.03l.07.02c.17-.02.13.05.34.12l.18.03c-.05.03.12.03.05.05l.12.05c.03 0 .15 0 .24.07l-.07-.02.17.1c.01-.03.1.02.17.04.11.06.21.11.33.13.15.1.26.13.4.17.1.08.2.1.34.15.1.1.24.1.36.17.03.01.06.06.1.08.07.03.34.12.34.18.1.05.32.14.38.25l.19.09c.05.03.07.07.08.1.09.07.15.07.32.18-.01.02-.01.02.02.05.12.07.27.14.3.22.1.09.15.1.2.14l.16.16.23.14v.03c.05.03.09.08.09.08l.18.12c.04.03.02.05.04.07.1.1.13.08.21.15l.14.17c.05.01.08.05.15.08.07.12.19.23.25.25.12.17.17.22.32.34-.06-.02.14.15.02.08.1.1.15.15.22.18 0 .12.13.19.29.36-.02.05.1.16.16.2.1.11.05.11.16.25a.6.6 0 01.15.15c-.04.02.03.08.05.13.05.02.07.05.13.14.04.13.15.21.24.33-.05-.01.05.09.02.09.06.1.1.11.15.18.03.05.06.12.06.17a15.18 15.18 0 00-1.9-2.4c-.05-.05-.1-.06-.13-.1-.09-.13-.24-.23-.36-.33l.02-.02a1.04 1.04 0 00-.19-.15c-.01 0 .02.03 0 .05-.1-.08-.18-.17-.11-.15a.28.28 0 00-.1-.1c-.06 0 .01.03-.04.03l-.13-.1.13.19c-.1-.1-.15-.09-.23-.22-.07-.04-.17-.14-.2-.14.03.05.1.09.04.09.07.01.16.1.27.2v.03c.1.05.2.19.22.12-.05-.05-.08-.05-.08-.08.07.06.07.03.12.08 0 .03.08.08.11.15l-.13-.1c.05.13.32.25.35.38 0-.05.14.12.24.17-.05-.03.02.04 0 .04.08.1.2.2.27.23-.04-.02 0 .02-.04 0 .07.08.07.1.17.2.02 0 .1.03.12.09-.05-.07 0 .05.02.08.01 0-.02-.03.01-.02l.04.07c-.09-.08-.05-.02-.12-.07l-.13-.17c.01.02.01.02 0 0-.02-.03.01-.03 0-.06-.14-.17-.04.03-.07-.07.03.05.03.07.05.08-.17-.15-.57-.58-.9-.88-.08-.05 0 .06-.06.03.03-.02-.04-.07.02-.05-.06-.05-.06-.07-.07-.1-.1-.05-.3-.29-.52-.42a.35.35 0 01-.07-.1c-.02-.02-.25-.13-.29-.22l-.27-.16c-.05-.1-.18-.17-.28-.2-.05-.1-.32-.19-.4-.3 0-.02-.06 0-.1-.07a.82.82 0 01-.35-.2c-.01.01-.06-.02-.11-.04.01-.02-.22-.15-.36-.2-.01-.03-.07-.03-.05-.05-.1-.02-.22-.12-.32-.15-.17-.13-.57-.25-.7-.37-.26-.08-.36-.13-.58-.22 0 .04.07.04-.02.04l.07.03c-.08-.07-.02.02-.13-.03.05 0-.05-.05.05-.02-.12-.05-.02-.02-.02-.03-.07-.02-.1-.05-.2-.09l-.14.02c0-.02-.11-.05-.1-.07l.07.02c-.03-.02-.12-.03-.1-.05.05.02.08.03.07 0l-.22-.09c-.04.02.01.04.03.06-.05 0 .02.01-.07-.02-.03.02.07.03.04.05-.04-.03-.14-.05-.17-.09.03.02.07.02.07.02-.09-.03-.05-.05-.09-.07-.08-.01-.17-.05-.17-.01-.03-.05 0-.02-.06-.02-.1-.05-.14-.08-.19-.07.02-.01-.07-.03-.12-.03l.04.03c-.04-.01-.1-.03-.12-.01.05.01.08 0 .08.03-.08 0-.11-.03-.18-.07l.07.02c-.07-.02-.06-.03-.1-.05-.06 0-.02 0-.07-.02-.02.02-.12 0-.17 0-.07-.01-.1-.05-.2-.06-.05 0 .03.03-.04.01l-.03-.03c.02.03-.07-.03-.1 0l.06.03c-.08-.01-.1.02-.08.04 0-.02.03-.02.05 0h-.07l-.05-.02.05-.03c-.1-.04-.05-.04 0-.04-.05-.01-.06-.03-.13-.03s.03.03-.03.02c.03-.02-.06-.02-.09-.04-.07 0-.03.05-.1.04-.05.01.08.05.02.03 0-.02-.09.02-.1-.02.08-.01-.05-.01.05-.03-.1-.02-.04-.02-.07-.05-.09-.02-.17-.02-.24-.02-.03.04.02.05-.08.04.08 0-.14-.04-.03-.05-.17-.05-.07 0-.24-.04-.02.04.05.04-.05.02-.03.02.03.02.03.03l-.12-.01c0-.02-.05-.04-.03-.05a.78.78 0 00-.29 0c-.05-.02-.08-.04-.13-.04-.27.02-.42-.05-.59-.01-.17-.02-.29-.04-.37 0-.29-.04-.78.03-1.03-.02-.07 0-.03.02-.13.02.06-.02-.04 0-.05-.02.1 0-.02-.02-.02-.03-.08.01-.19-.02-.29.01l-.05-.01h-.18l-.02.01c-.3 0-.72.04-1.13.09-.42.05-.8.11-1.08.13-.27.02-.65.12-.89.13l-1.21.3c-.37.1-.74.22-1.15.4-.03.02-.01-.01-.06.02l-.04.04c.02.03.04.03.09.03l.03-.03c.18 0 .44-.09.66-.12 0-.02.08-.05.13-.07.05 0 .14-.03.17-.01.25-.12.19.01.44-.1.05.05.35-.1.42-.07-.1.07-.12.12-.2.18-.68.24-1.49.59-2 .79l-.24.13c-.02-.01-.09.04-.09.04-.12.08-.23.17-.35.2-.1.08-.17.15-.32.23.03 0-.05.05-.05.07a4 4 0 00.57-.22l.02.02c-.15.12-.22.22-.4.35-.36.25-.78.5-1.05.77s-.44.5-.73.79c-.35.35-.65.75-.97 1.09l-.46.62c-.32.48-.59.92-.87 1.47 0 .08-.07.17-.14.3 0 .04.02.04 0 .07-.13.23-.08.3-.22.54 0 .03-.01.11.04.08 0 .03-.05.1-.07.17l.03-.05c-.03.08-.01.05 0 .05-.06.16-.13.47-.08.48-.02-.06.1-.08.12-.2-.02.03.01-.05.03-.1.05-.02.07-.08.1-.13 0-.05.02-.09.03-.14.06-.06.1-.13.12-.1l.02-.08-.03.05c.03-.07.01-.12.08-.19-.03.09.12-.05.15-.11-.03-.02.12-.2.1-.24.05-.05.12-.25.22-.33.05-.17.22-.37.29-.5.05 0 .07-.05.1-.04-.07.07-.03.07-.07.14-.02 0-.03.05-.1.13.02-.02-.07.18-.03.13-.14.17-.19.36-.34.52 0 .04.03.04 0 .07-.03.03-.03.12-.08.12-.07.15-.05.2-.05.28-.04.02-.04.07-.07.1.03 0-.04.12 0 .14-.04.06-.04.1-.09.16.02.02-.01.09 0 .12.02-.03.04 0 .05-.02a.23.23 0 01-.05.07c.04 0 .09-.08.1-.05.02-.03.02-.05.04-.05-.02.07 0 .02.03.02-.13.25-.1.62-.23.87.03.03 0 .08.03.12.02-.07.03-.04.05-.07 0 0-.02-.02 0-.05.02-.02.03-.02.03.02.04-.09-.01-.07 0-.12l.12-.15c0 .05-.01.15.04.1-.05.1-.04.12-.09.2.04.08.07.05.15-.07v-.06c.02.01.05-.04.07-.06.07-.18.12-.36.19-.46-.04 0 .06-.15 0-.07.03-.1.06-.14.11-.24-.01-.05.05-.11.07-.16.07-.04.1-.14.14-.25.03.01.16-.29.13-.17.03-.05.03-.12.07-.14.02 0 0 .04.03.02-.05.07-.05.12-.08.13-.02.22-.24.57-.26.8l-.03.03c.03.01.03.01 0 .06 0 .04.05-.03.02.02-.02.02 0 .02-.02.03-.02 0 0-.03-.02 0 .02 0-.01.05-.01.07l.06-.08v-.05s.02.01.04-.02-.02-.03 0-.1v.02c.07-.12.17-.44.23-.44l-.01.03c.01 0 .01-.05.03-.05.02 0 0 .05.05 0-.07.09 0 .17.02.15 0 0 .08-.05.1-.03 0-.08.1-.13.12-.22.01 0 .03-.03.05-.01 0 .05-.02.06 0 .06a1 1 0 01-.05.09c.05-.1.03 0 .05-.04l.02-.06c.01.01.03-.02.03-.02-.02.03-.05.05-.02.05.09-.15.09-.17.09-.23l.05-.06c-.02-.01-.02-.01 0-.05 0 .02.05-.01.03-.01-.02.05-.02-.04-.05.01l-.02.04v.05c-.06.05 0-.02 0-.07.04-.02.1-.08.12-.07.03-.1.12-.21.17-.3.02-.08.02-.11.08-.16v-.04c.02.02.02-.01.05-.05 0-.03.02-.03.02-.08l.05-.09c.05.02 0-.05.09-.06 0-.07.15-.24.15-.22l.1-.17.08-.01c-.01.03 0 .03-.05.08.02 0 .05.05-.01.07v-.02l-.07.12c.01.03 0 .05.05.06l.13-.15c.05-.08.15-.23.26-.33h.01l-.05.03c.02.05-.07.15-.12.24.43-.64.91-1.23 1.45-1.75l.02-.03h.02l.23-.22a11.79 11.79 0 0119.86 8.51c0 6.47-5.27 11.7-11.77 11.7-1.57 0-3.07-.3-4.43-.85-.07.02-.07.07 0 .12.08.05.27.09.34.15-.4-.1-.93-.37-1.1-.33-.24-.07-.4.03-.24.2.17.12.36.23.48.35-.09 0-.17-.02-.3-.05.33.17.58.23.85.38.09.14.47.17.6.29 0-.02.04.02.1 0 .04.03.04.07.14.1-.03 0 0 .03.05.05 0-.02.02-.02.04-.02-.04.07.07.14.02.17.2.2.62.24.7.42.02.03.05.07.14.1h.1c.12.07.37.05.44.15-.02.02-.05.02-.09.02-.45-.07-.8-.15-1.21-.22-.05.03-.14.03-.27.02 0 .1-.19.01-.22.1-.03.11.39.27.6.37-.04-.02.02.01 0 .03-.08 0-.14 0-.21-.02.15.14.67.22.84.34 0 .03-.08.03-.13.03.27.1.6.17.75.27.19.05.44.08.61.12l.03.01c-.03 0-.05.02-.01.04.18-.04.3.06.5.05-.01.05.14.03.09.08-.14-.02-.44-.02-.54-.05a11.61 11.61 0 01-4.69-1.5c-.33-.17-.65-.4-.99-.64a6.47 6.47 0 01-1.03-.82.87.87 0 01-.25-.24c-.12-.07-.17-.15-.24-.22-.16-.11-.35-.35-.55-.55-.07-.08-.05-.15-.15-.22.01.04-.12-.11-.14-.15.02.02.07.09.05.05a21.29 21.29 0 00-.06-.1.54.54 0 01-.22-.28c-.02 0-.09-.02-.1-.07.06.1.03-.07.05-.03 0-.02-.05-.07-.07-.1-.02.01-.02 0-.05-.02 0 0 .01.02.03 0-.12-.12-.17-.13-.27-.27-.01.02-.01 0-.03-.03l-.02.01-.34-.31v.05c-.05-.05-.1-.14-.06-.05-.05-.09-.05-.04-.09-.1a.76.76 0 01-.27-.2c-.03 0-.01.08-.06.01 0-.01.03-.01.01-.03-.01 0-.03-.05-.05-.04l.02.04-.07-.1c-.03-.02-.01.03-.05.01-.02-.06-.07-.06-.07-.06-.01-.05-.06-.07-.1-.14l-.03.02c-.07-.1-.14-.1-.17-.18.02.05-.05-.04-.03.01-.05-.06-.05-.03-.09-.11-.01.01-.05-.02-.08-.07-.02 0 0 .02 0 .03-.09-.13-.15-.11-.2-.22-.14-.05-.29-.25-.42-.33l.01-.03c-.01.01-.05 0-.05-.05-.05 0-.1-.14-.12-.09-.01-.05-.05-.05-.03-.1-.03.04-.1-.12-.12-.07-.01-.06-.07-.05-.1-.16h-.03c.01-.04-.04-.09-.02-.02-.05-.12-.1-.18-.17-.2.02.08.02.12.07.23-.07.04-.12-.01-.12.05-.05-.05-.1-.11-.1-.05.03 0 .03.1.07.17.07.07.08.12.15.15.08.15.13.19.22.29 0 .05.03.06.07.11-.02 0-.04-.01 0 .04.01-.04.1.22.15.22-.05-.02.05.11 0 .1.01.05.05.06.06.08 0 .02-.03 0-.01.03.01-.01.03-.01.05.02-.02 0 .02.05 0 .05l-.02-.02.04.09c-.02.01-.09 0-.06.05-.08 0-.15-.2-.25-.27.02-.02-.01-.03-.03-.08-.02 0 0 .03-.02.01 0-.01-.02-.01-.03-.05.03.02-.09-.13-.1-.22-.02-.03-.02 0-.04-.03.02-.03-.08-.22-.13-.25-.02-.1-.04-.07-.09-.13.04 0-.03-.09-.03-.09a.18.18 0 00-.05-.12c.03 0-.05-.1 0-.11-.08-.17-.1-.19-.2-.37-.02 0-.02.02-.04-.03-.03-.02.02.06-.01.05-.04-.07-.04 0-.07-.07 0 .05.07.13.02.08.01.07.03.05.05.12-.04.02.1.22.15.4.02.05.03 0 .07.07.01.05-.04 0 .01.07.02 0 .05.06.1.15.04.01 0-.04 0-.05.04.05.02.05.04.08l-.02-.02.1.17c-.01.02.04.13.1.22-.06-.05.05.1.04.13-.02.04-.12-.06-.12-.03-.05-.12-.1-.15-.15-.2.06.1.03.1.03.13.05.04 0 .02.02.05l.05.05c-.05-.05.03.1-.04.02.04.07 0 .02.02.07-.02 0-.07-.05-.05 0 .02 0 .02 0 .03.03-.01-.02-.05-.05-.06-.02.05.09 0 .07.05.15.13.14.4.42.42.59.25.3.13.38.02.28l-.07-.06.03.03-.22-.27c0-.05-.1-.18-.13-.21.02.01.03.01 0-.04-.02 0-.05-.1-.07-.07.14.2.2.46.34.66.03.05.12.15.13.22.02-.02.05.06.09.08-.07-.03.08.12.05.13.01-.01.05.02.08.04.1.15.22.3.29.33.01.05.08.15.13.22-.06-.1-.05 0-.01.02-.02-.02 0-.04.01-.02-.01.03-.06 0-.01.1a.13.13 0 00-.07-.03c.08.08.07.08.13.16 0 0 .02-.01.04.02l.01.02a.26.26 0 01-.11-.12c-.02-.02.01.07-.02.02-.02-.07-.17-.22-.32-.4-.15-.19-.3-.39-.34-.56-.07-.06-.07-.08-.1-.15l.03.04-.01-.06c-.05-.05-.02-.01-.05-.1-.02 0 0 .04-.02.04-.25-.35-.45-.77-.64-1 .02-.07-.12-.34-.18-.33-.06-.08-.04-.06-.06-.15-.01 0-.08-.1-.06-.01v.01c.05.1.08.15.08.22-.03.12.04.3.1.5-.12-.18-.13-.26-.23-.38-.02-.1-.07-.15-.1-.24-.02 0-.05-.05-.09-.08.02-.07-.07-.17-.08-.25-.12-.15-.1-.29-.24-.47-.02-.17-.18-.3-.2-.54-.1-.16-.2-.45-.29-.77-.1-.3-.18-.63-.28-.83l-.02-.17c-.07-.03-.08-.27-.08-.35a4.16 4.16 0 01-.17-.66c-.04-.05-.04-.28-.07-.45-.02 0-.02 0-.02-.05-.05 0-.06.07-.08-.07 0-.06.05-.05 0-.1.03 0 .08.12.08-.03-.01.05-.03-.12-.03-.05.02 0 .02.08 0 .07 0-.07-.03-.02-.03-.07V21c-.06-.08-.1-.08-.14-.2-.05.02-.03.2-.03.35 0 .16 0 .29-.05.17-.02-.12-.04-.12-.02-.2a2.3 2.3 0 01-.08-.7.7.7 0 01-.02-.15c0-.04-.04 0-.04-.05v-.05c0 .06-.01.13-.03.05.02.08 0 .1.02.2-.02 0-.02.03-.04.03.02.3-.03.44.02.74-.07.06-.1-.4-.17-.59.02-.07-.01-.25-.05-.27 0-.2-.07-.52-.07-.77-.01.04-.05-.06-.06.04.01-.09-.02-.07 0-.15-.02.05-.07.05-.09.18 0-.12-.01-.07-.01-.02-.02-.08-.02-.05-.05-.1-.04.05-.02.2-.04.24.04.23-.03.28-.02.5.02.02.02-.03.02 0-.03.03-.03.22-.05.3.02.02.04.12.04.2-.02-.03-.04.1 0 .14-.02 0-.02 0-.04.03.02.13.05.22.04.3 0-.03 0-.07-.02-.08.02.1-.04.08-.02.15-.03-.05-.03 0-.05.07.02.13.03.06.05.1-.02 0-.02.01-.02.03-.01 0-.01-.05-.03-.07-.02.09.05.1.03.19-.03-.07-.03.01-.06.08l.01.02c-.01.01-.01.1-.03.1 0 .08.02.1.03.15-.03.1 0 .32.02.43-.03-.05.02.1-.02.09.02-.02.04.08.05.11-.03-.03 0 .07-.01.05-.02-.08-.04-.23-.05-.2.03.05 0 .1 0 .19.01.03.05.2.01.2l.05.25c-.03-.13.04.12.02.05.02.08 0 .17 0 .22.05.12.07.37.14.55l.03.24c.07.33.22.7.22.88.12.19.1.32.22.57-.02.04-.02.02-.07 0 .02.05.02.09.02.12-.02-.05-.04-.05-.05-.03.01.05.01.11.05.18-.04-.08-.04-.13-.04-.17.05.12-.01.02.04.14.01 0 .01-.02.03.01 0 .02-.03 0-.02.04.04.03.07.13.04.03.08.17.01.08.01.14.02 0 .04.06.04.06-.05-.08.02.07.02.05-.06-.05-.12-.23-.17-.3.01 0 .03.07.03.03-.07-.1-.08-.21-.12-.33-.05-.03-.1-.25-.1-.3-.07-.02-.05-.15-.1-.25.02.03.03.06.02.08-.07-.15-.02-.1-.02-.13l-.03-.1c-.02 0-.02.01-.04-.02l-.18-.64h.01c-.05-.06-.01-.13-.06-.2.03-.02 0-.02-.02-.05.02-.02-.03-.2-.02-.08-.03-.1 0-.07-.01-.14-.04 0 0-.01-.02-.05-.02 0-.02.02-.03-.01h.01c-.01-.1-.03-.02-.03-.07.02-.1-.05-.22-.05-.42-.02 0-.02.02-.04-.02.02-.06-.01-.16-.03-.15l.02-.06c-.04-.19-.09-.3-.1-.47l.01.08-.01-.15c-.04.03-.04-.15-.09-.15.02.08.04.1.05.2-.01.03.02.17-.01.18.03.04.05.12.06.17-.01 0-.01-.06-.03-.05l.05.2c0 .07-.03.05-.02.14.02.01.04 0 .05.05 0 .06.02.03.04.08-.04 0 .03.2.03.22l-.03.02c.01.03.01.1.03.1l-.02-.09c.02.07.02.05.06.1-.02 0-.02.07.01.14l-.01-.09c.01.1.03.09.05.12-.04-.02-.04.03 0 .08-.02 0 0 .05-.04.04.07.08.05.27.1.28-.01.02.02.05.02.09-.05-.07.02.08.02.13-.05-.18-.02.07 0 .05l-.02-.08c.05.16.05.05.08.13.02.08-.05-.07-.03.02.02 0 .05.08.03.1-.03-.12.02.06-.03-.05.02.08.03.05.07.15-.02 0-.05-.1-.05-.02.03.05.05.14.08.17-.02-.03-.02-.07 0-.03.02.06 0 .08.04.16.01 0 .01-.01.03.02l.03.08c-.03-.05.04.12-.03-.01.05.1 0 .08.05.18.03.03.12.25.12.3-.02-.05-.04-.06-.05-.06.03.08.03.1.03.13.02.02.03 0 .05.03 0 .07.05.19.07.17 0 .05 0 .1-.03.1a1.73 1.73 0 01-.12-.35c-.07-.12-.09-.2-.14-.3.07.06-.05-.19.02-.12-.05-.07-.05-.1-.07-.07l-.03-.06c.07.03-.1-.24-.02-.14-.05-.11-.02-.06-.05-.15-.02 0-.02.02-.03-.01-.02-.09-.05-.16-.02-.19-.02-.02-.03-.05-.05-.12.03.05-.03-.13-.03-.15.01.07-.05-.05-.02.04 0 .08.07.28.13.45-.01 0-.01-.03-.03-.02.03.1.05.25.12.35-.02.05.05.17.03.17.04.05.05.17.1.22.02.1.05.2.1.33.02-.01.04.02.05.07-.03.02.07.15.04.17.05.08.03.1.08.2.02 0 .02-.02.04.02-.05 0 .13.31.03.18.07.13.1.15.07.17.01.03.03-.02.06.06 0 .07.07.22.16.37l.01-.06a.66.66 0 01-.08-.24c-.09-.12-.17-.35-.15-.43-.04-.04.01.11-.04.05 0-.05-.01-.07-.01-.02-.09-.17-.07-.22-.14-.3.02-.02.04-.1.09-.04.01.07.03.09-.02.04.03.1.05.03.08.13-.01.05.07.19.09.25l.05.04c0 .05 0 .05-.04.01.04.09.04.02.09.12-.02.07.12.24.13.35.04.04.05.07.1.1v.05l-.06-.08c.03.05.05.07.06.12.02 0 .02-.05.06 0-.04.01-.02.01.01.05l-.01.01c.05.07.08.19.1.17.01-.02-.04-.05-.07-.12.02 0 .02-.01.02-.03 0 .02.05.08.03.1l-.03-.05.08.13c-.03-.03-.02.02.02.06l-.02.01.12.22c.05.05 0-.05-.02-.08.07.08.02.06.05.13.04.02-.02-.07.02-.02l.05.14c-.02 0-.09-.1-.05-.04.03.05.05.04.08.09-.01.01-.03-.04-.05 0 .05.08.04.03.05.08.04.03.04-.02.07.03-.02.02-.07-.03-.03.05 0-.06.13.17.11.12a.6.6 0 01-.08-.13c.05.03.13.18.17.27.07.15.27.38.28.45v.03a.9.9 0 01-.16-.27c0 .04 0 .04-.04 0 .04.07.09.15.15.22.02.07.04.07.05.14.02-.04.09.03.09.01-.03-.06-.03 0-.07-.05.02-.05.1.05.12.12-.02 0-.03-.03-.02.02.04-.02.09.1.12.11-.02 0 0 .04 0 .04 0-.04-.08-.09-.05-.1-.05-.05-.08-.12-.12-.12.05.1.1.15.17.23l-.03-.01c.05.06.23.3.15.15-.02 0 .02.05-.02.01-.05-.06-.08-.11-.07-.15l.16.22c.05.03 0-.03.03.02 0 .03.03.07.05.08l-.03-.02c.05.07.11.12.13.17-.03 0-.02.02-.05 0 .07.07.05.09.02.05.1.12.18.2.2.25 0-.05.07.05.08.04-.05-.05-.06-.09-.1-.14.07.1 0-.03.05.04.04.03.07.11.1.13-.01-.02-.01-.03 0 0 .04.07.04.07 0 .07-.01-.05-.06-.09-.1-.12.05.1-.03.03.02.08-.03-.06.12.12.03 0 .07.07.02.05.05.1-.01-.05.12.1.07.09l-.05-.07c.04.07.19.2.15.24.1.1.1.15.19.23-.07-.05-.09-.03-.17-.12.05.02-.05-.03-.05-.06l-.05-.04c.02.04.07.07.07.09-.04-.04-.07-.09-.09-.09.04.07.07.07.09.12.01 0 .01-.02.03 0-.02.02.07.08-.02.02.26.33.63.8.96 1.12 0 .02.05.05.02.05.6.62 1.31 1.3 2.22 1.96a17.08 17.08 0 0010.45 3.2c1.77-.04 3.52-.3 5.2-.84a16.16 16.16 0 007.16-4.59 17.73 17.73 0 004.32-8.62s-.02 0-.02-.04c.17-.89.28-1.8.28-2.73l.02.04c.04-.29 0-1.04-.02-1.41a17.2 17.2 0 00-2.13-7.67l-.06-.04c.02 0 0-.01 0-.03-.16-.28-.35-.64-.52-.89-.01 0-.01.02-.03-.01.02 0-.02-.04-.02-.05a17.86 17.86 0 00-2.46-3.05c-.06-.09-.15-.15-.17-.2l-.18-.14c.03-.01.02-.05.05-.08-.05-.08-.29-.3-.24-.3-.08-.09-.23-.2-.27-.25l.17.15c.19.1.44.32.66.52.56.43 1.11.95 1.62 1.52.35.37.79.84 1.14 1.34.27.32.44.55.68.9a16.5 16.5 0 012.22 4.86c.19.54.27 1.14.4 1.68 0 .18.09.33.09.6.03.12.08.33.07.52.08.33.11.84.2 1.09.07.01.12.32.13.7l.04 1.1c.06-.01.15-.04.15.27.03-.03.07-.05.1-.05 0-.08.02-.06.02-.11-.04-.02 0 .06-.02.06-.03-.06-.03-.18-.02-.31.05-.1.17-.09.12.06.02.02.02.04.02 0 0 .6-.05 1.1-.07 1.61.07-.02-.05.62.07.47-.02.12.05.05.01.23.05-.11.1-.08.12.02.1-.35.19-.8.24-1.24.01.02.01-.03.03-.07.05.02.05.2.07.3.08-.11.07-.61.12-1.03.03-.24.06-.24.06-.45.05 0 .09-.2.1-.36.06.09.04.29.07.27.02-.47.04-1.2-.01-1.72 0-.09.01-.14.03-.17.05.1.1.2.12.42-.02 0-.02-.05-.02.03l.05.1c.03-.45.02-1 .05-1.24zM26.9 0A2.83 2.83 0 0024 2.91l.05 22.58L5.9 1.9C5.01.65 4.35 0 3.03 0A2.8 2.8 0 00.22 2.81v31.1a2.83 2.83 0 002.88 2.92 2.83 2.83 0 002.88-2.91V11.29L24.22 35.2c.76.97 1.52 1.62 2.72 1.62a2.77 2.77 0 002.83-2.81V2.92A2.83 2.83 0 0026.89 0zm77.67 32.46L91.57 1.94C91.03.65 90.11 0 88.81 0c-1.25 0-2.17.65-2.71 1.94L73.1 32.46a3.72 3.72 0 00-.44 1.62c0 1.51 1.25 2.75 2.83 2.75 1.3 0 2.23-.7 2.72-2l2.12-5.02h16.9l2.22 5.03c.54 1.29 1.41 2 2.71 2a2.78 2.78 0 002.83-2.76c0-.43-.17-.98-.44-1.62z" fill="white"/>
</svg>
