<svg width="16" height="20" fill="none" xmlns="http://www.w3.org/2000/svg"><path d="M7.82268 10.289c2.65432 0 4.81392-2.15946 4.81392-4.81387 0-2.65442-2.1596-4.813875-4.81392-4.813875-2.65435 0-4.81389 2.159505-4.81389 4.813915 0 2.65442 2.15949 4.81383 4.81389 4.81383zm0-7.7522c1.62019 0 2.93832 1.31814 2.93832 2.93837 0 1.62024-1.31809 2.93838-2.93832 2.93838S4.88433 7.09537 4.88433 5.47517c0-1.62019 1.31812-2.93837 2.93835-2.93837zM7.82258 10.8907C3.50919 10.8907 0 14.27 0 18.4236v.8915h15.6452v-.8915c0-4.1536-3.5092-7.5329-7.82262-7.5329zm-5.89947 6.6414c.44607-2.7488 2.92166-4.8584 5.89942-4.8584 2.97777 0 5.45337 2.1096 5.89947 4.8584H1.92311z" fill="#2d7d7d"/></svg>