<svg width="98" height="98" fill="none" xmlns="http://www.w3.org/2000/svg"><path d="M80.615 98c-6.1 0-11.064-4.965-11.064-11.065H91.68c0 6.1-4.964 11.065-11.065 11.065zm-50.582 0c-6.1 0-11.064-4.965-11.064-11.065s4.963-11.064 11.064-11.064 11.065 4.965 11.065 11.064c0 6.1-4.964 11.065-11.065 11.065zm0-14.226a3.164 3.164 0 00-3.161 3.161 3.164 3.164 0 003.161 3.162 3.164 3.164 0 003.162-3.162 3.164 3.164 0 00-3.162-3.16zm44.259-42.677h-9.484a4.748 4.748 0 01-4.742-4.742 4.748 4.748 0 014.742-4.742h9.484v9.484zM34.775 20.548H18.97V1.581h15.806v18.967zm0 25.291H18.97v-9.484h15.806v9.484z" fill="#518B26"/><path d="M30.031 82.194a4.748 4.748 0 00-4.742 4.742 4.748 4.748 0 004.742 4.741 4.748 4.748 0 004.742-4.742 4.748 4.748 0 00-4.742-4.741zm0 6.322c-.87 0-1.58-.708-1.58-1.58 0-.873.71-1.581 1.58-1.581.87 0 1.58.708 1.58 1.58 0 .873-.71 1.581-1.58 1.581z" fill="#2D2C2C"/><path d="M86.61 70.636L83.8 46.763c.963.42 2.02.656 3.135.656h4.741a3.164 3.164 0 003.162-3.16v-9.485a3.164 3.164 0 00-3.162-3.161H72.71v39.84a17.482 17.482 0 00-5.477 4.418h-7.558l-5.419-18.968h5.809v-1.58c0-5.563-4.13-10.167-9.484-10.938V0H3.16v44.549C1.326 45.203 0 46.942 0 49v3.161a4.748 4.748 0 004.742 4.742h5.84c-4.48 3.15-7.42 8.346-7.42 14.226v17.387h12.644v-1.58c0-7.845 6.383-14.226 14.226-14.226 7.843 0 14.226 6.38 14.226 14.226v1.58H98v-1.58c0-7.479-4.753-13.849-11.39-16.3zm5.067-35.862l.002 9.484h-4.743c-1.465 0-2.762-.683-3.633-1.731l-.004-.035-.023.003a4.695 4.695 0 01-1.082-2.979 4.748 4.748 0 014.742-4.742h4.741zm-15.806 0h4.783c-1.004 1.325-1.622 2.956-1.622 4.742 0 1.54.46 2.967 1.225 4.183l3.068 26.082a17.449 17.449 0 00-2.712-.233c-1.644 0-3.234.236-4.742.664V34.774zM6.323 44.258V12.645h41.096v31.613H6.323zM47.419 3.161v6.323H6.323V3.16h41.096zM4.742 53.741c-.87 0-1.58-.708-1.58-1.58V49c0-.872.71-1.58 1.58-1.58H49c3.817 0 7.01 2.72 7.743 6.322H4.742zm42.606 31.614c-.8-8.85-8.26-15.807-17.316-15.807-9.055 0-16.515 6.957-17.316 15.807H6.323V71.129c0-7.845 6.382-14.226 14.225-14.226H50.97l6.322 22.13h7.843a17.214 17.214 0 00-1.837 6.322h-15.95zm19.126 0c.79-7.104 6.828-12.645 14.139-12.645 7.31 0 13.35 5.541 14.138 12.645H66.474z" fill="#2D2C2C"/><path d="M25.29 15.806h3.16v4.742h-3.16v-4.742zm0 20.549h3.16v4.742h-3.16v-4.742zm18.968 23.71h3.161v3.16h-3.161v-3.16zm-6.324 0h3.16v3.16h-3.16v-3.16zm-6.321 0h3.162v3.16h-3.162v-3.16z" fill="#2D2C2C"/></svg>