<svg width="73" height="67" fill="none" xmlns="http://www.w3.org/2000/svg"><path d="M51.92.13H8.744C3.923.13 0 4.053 0 8.875c0 4.822 3.923 8.745 8.745 8.745v-5.523a3.226 3.226 0 01-3.222-3.222 3.226 3.226 0 013.222-3.222h40.413v9.206h5.523V2.892A2.762 2.762 0 0051.919.13z" fill="#2d7d7d"/><path d="M70.238 12.097H8.745a3.226 3.226 0 01-3.222-3.222 2.761 2.761 0 10-5.523 0v49.25c0 4.822 3.923 8.745 8.745 8.745h61.493A2.762 2.762 0 0073 64.11v-49.25a2.761 2.761 0 00-2.762-2.762zm-2.761 49.25H8.745a3.226 3.226 0 01-3.222-3.222v-41.12a8.697 8.697 0 003.222.616h58.732v43.726z" fill="#2d7d7d"/><path d="M57.904 44.5a4.423 4.423 0 01-4.42-4.418 4.424 4.424 0 014.42-4.419h12.243V30.14H57.904c-5.483 0-9.943 4.46-9.943 9.942 0 5.481 4.46 9.942 9.943 9.942h12.335V44.5H57.904z" fill="#2d7d7d"/></svg>