<svg width="73" height="53" fill="none" xmlns="http://www.w3.org/2000/svg"><path d="M65.179.429H7.82A7.821 7.821 0 000 8.25v36.5a7.821 7.821 0 007.821 7.822H65.18A7.821 7.821 0 0073 44.75V8.25A7.821 7.821 0 0065.179.43zm2.607 44.321a2.607 2.607 0 01-2.608 2.607H7.821a2.607 2.607 0 01-2.607-2.607V29.107h62.572V44.75zm0-20.857H5.214v-5.214h62.572v5.214zm0-10.429H5.214V8.25a2.607 2.607 0 012.607-2.607H65.18a2.607 2.607 0 012.607 2.607v5.214z" fill="#2d7d7d"/><path d="M59.965 34.321H49.537a2.607 2.607 0 100 5.215h10.428a2.607 2.607 0 000-5.215z" fill="#2d7d7d"/></svg>