<svg width="75" height="65" fill="none" xmlns="http://www.w3.org/2000/svg"><path d="M74.126 36.41l.003.006s0 0 0 0l-.003-.006zm0 0L60.346 1.811m13.78 34.6l-13.78-34.6m0 0a1.683 1.683 0 00-2.182-.943m2.183.943L58.164.868m0 0a.305.305 0 00-.008.003l-.003.002L2.245 23.135h0l-.007.003c-.251.108-.47.277-.64.49a1.667 1.667 0 00-.848 1.436h0v37.261c0 .93.754 1.683 1.683 1.683h60.186c.93 0 1.683-.753 1.683-1.683v-20.18l8.888-3.539h0a1.683 1.683 0 00.94-2.186s0 0 0 0v-.001L58.164.87zm1.628 15.047l-.005-.013-.006-.012a1.46 1.46 0 00-.108-.173 1.666 1.666 0 00-1.748-1.243h-.003a8.32 8.32 0 01-7.294-3.141l-.002-.003a1.67 1.67 0 00-2.116-.405c-.06.01-.12.021-.18.036l-.016.004-.015.007-29.293 11.664s0 0 0 0a1.666 1.666 0 00-.851.748h-7.437L57.842 4.62l12.54 31.485-6.08 2.424V25.067c0-.88-.674-1.601-1.533-1.677l-2.977-7.475zm1.144 44.727H4.116V26.75h56.82v33.892zM48.841 14.374a11.651 11.651 0 008.108 3.496l2.195 5.52H26.213l22.628-9.016z" fill="#2d7d7d" stroke="#2d7d7d" stroke-width=".5"/><path d="M7.684 51.457h.003a8.318 8.318 0 015.616 5.61h0a1.683 1.683 0 001.612 1.202h.016c.067-.005.134-.014.2-.026.056.013.113.024.17.03l.016.003H49.74l.016-.002c.05-.007.098-.016.147-.027a1.584 1.584 0 001.85-1.179h0l.001-.004a8.317 8.317 0 015.614-5.608h.002c.777-.238 1.267-1.001 1.165-1.802.015-.065.027-.13.035-.196l.002-.015V37.949l-.002-.014a1.541 1.541 0 00-.036-.199 1.663 1.663 0 00-1.165-1.8h-.002a8.31 8.31 0 01-5.614-5.618v-.002a1.666 1.666 0 00-1.814-1.165 1.638 1.638 0 00-.185-.034l-.015-.001H15.318l-.015.002c-.067.008-.134.02-.2.036-.8-.1-1.561.388-1.8 1.165h0v.002a8.318 8.318 0 01-5.616 5.615h0-.003c-.777.238-1.266 1.001-1.164 1.803-.015.065-.027.13-.034.197l-.002.014v11.493l.002.015c.008.062.019.123.034.183a1.669 1.669 0 001.164 1.816zM9.85 38.713a11.62 11.62 0 006.232-6.231h32.892a11.624 11.624 0 006.233 6.231v9.965a11.634 11.634 0 00-6.232 6.232H16.082a11.634 11.634 0 00-6.232-6.231v-9.966z" fill="#2d7d7d" stroke="#2d7d7d" stroke-width=".5"/><path d="M32.528 52.544h0a8.848 8.848 0 10-8.848-8.848h0a8.857 8.857 0 008.848 8.848zm0-14.33a5.482 5.482 0 110 10.964 5.482 5.482 0 010-10.964zM16.763 46.095a2.4 2.4 0 100-4.799 2.4 2.4 0 000 4.8zm0-2.866a.467.467 0 110 .934.467.467 0 010-.934zM48.29 46.095a2.4 2.4 0 100-4.799 2.4 2.4 0 000 4.8zm0-2.866a.466.466 0 110 .933.466.466 0 010-.933z" fill="#2d7d7d" stroke="#2d7d7d" stroke-width=".5"/></svg>