<svg width="24" height="23" fill="none" xmlns="http://www.w3.org/2000/svg"><path d="M23.678 7.267a1.376 1.376 0 00-1.058-.494H20.41L16.904.74a1.493 1.493 0 00-1.287-.74h-1.87a.866.866 0 00-.748 1.297l3.181 5.475H7.713l3.181-5.475A.866.866 0 0010.147 0h-1.87C7.748 0 7.255.284 6.99.741L3.485 6.773H1.379A1.376 1.376 0 00.022 8.394l1.91 10.716a4 4 0 003.943 3.302h12.25a4 4 0 003.942-3.302l1.911-10.716a1.376 1.376 0 00-.3-1.127zm-8.989-5.86h.928c.029 0 .056.016.07.04l3.095 5.326h-.975l-3.118-5.366zm-6.483.04a.082.082 0 01.07-.04h.928L6.086 6.773h-.974l3.094-5.325zm12.477 17.416a2.595 2.595 0 01-2.558 2.142H5.875c-1.26 0-2.336-.901-2.558-2.142L1.945 11.17h20.11l-1.372 7.693zm1.622-9.1H1.695L1.412 8.18h21.176l-.283 1.584z" fill="#fff"/></svg>