<svg width="97" height="97" viewBox="0 0 97 97" fill="none" xmlns="http://www.w3.org/2000/svg">
<circle cx="48.5" cy="48.5" r="48.5" fill="#2D7D7D"/>
<mask id="mask0" mask-type="alpha" maskUnits="userSpaceOnUse" x="0" y="0" width="97" height="97">
<circle cx="48.5" cy="48.5" r="48.5" fill="#2D7D7D"/>
</mask>
<g mask="url(#mask0)">
<path d="M115.823 48.7334C115.769 48.9971 115.716 48.3644 115.61 48.2062C115.663 48.2589 115.663 48.048 115.663 47.9953C115.716 48.048 115.769 48.1007 115.823 48.2062C115.769 47.3099 115.769 46.7826 115.823 46.4136C116.142 46.2027 115.982 43.8828 115.716 42.3011C115.716 42.0902 115.716 41.5629 115.556 40.9302C115.45 38.6631 114.704 36.3959 113.532 33.2325C112.413 30.2272 111.188 27.3801 109.803 24.7438C108.151 21.7386 106.34 19.1023 104.369 16.6243C102.397 14.1462 100.266 11.8791 97.9224 9.66467C96.4839 8.39929 94.939 7.08118 93.3407 5.86852C91.7425 4.65586 90.1442 3.60137 88.7058 2.86323C86.7879 1.59785 84.8168 0.490633 82.8456 -0.51113C80.8212 -1.51289 78.7435 -2.46193 76.4526 -3.41097C76.4526 -3.35825 76.0264 -3.51642 75.8666 -3.56914C74.9077 -3.93821 73.9487 -4.25456 72.8832 -4.62363C69.154 -5.88902 65.1584 -6.83805 61.003 -7.41802C56.9008 -7.99799 52.6921 -8.15616 48.59 -7.83982C44.8075 -7.5762 41.1848 -6.89078 37.7219 -6.09991C36.9761 -5.83629 35.804 -5.62539 34.8451 -5.30905C31.8084 -4.41273 28.5587 -2.98918 25.4155 -1.46017C22.3788 0.0161142 19.6618 1.75602 17.1046 3.39047C16.9981 3.4432 16.9981 3.4432 16.8382 3.54865C13.4819 5.81579 10.2322 8.76836 7.46188 11.7209C4.0523 15.3062 1.1222 19.2605 -0.955515 22.7403C-1.48826 23.7948 -2.18083 25.0075 -2.82013 26.1674C-3.45943 27.3801 -3.9389 28.54 -4.20528 29.5418C-3.99218 28.8036 -3.61925 29.12 -3.40616 28.4345C-3.35288 28.4345 -3.35288 28.4345 -3.29961 28.3818C-3.13978 28.1182 -3.13978 28.0655 -3.13978 27.96C-2.60703 27.2219 -2.44721 26.5892 -2.12756 26.1147C-2.02102 26.2729 -2.02101 25.9038 -1.75464 25.7456C-1.75464 25.6929 -1.80791 25.7456 -1.75464 25.6402C-1.75464 25.7983 -1.16862 24.5857 -1.38171 25.1129C-1.11534 24.6384 -1.00879 24.3221 -0.742419 23.8475C-0.476046 23.6894 -0.689148 24.0057 -0.529324 23.953C-0.742422 24.1639 -0.529322 24.0584 -0.635871 24.2166C-0.742421 24.322 -1.22189 25.1656 -1.27517 25.2711C-1.22189 25.1656 -1.38172 25.5347 -1.32844 25.5874C-1.48827 25.8511 -1.43499 25.6402 -1.59482 25.8511C-1.59482 26.0092 -1.43499 25.7456 -1.38171 25.6402C-1.59481 25.9565 -1.43499 25.8511 -1.54154 26.062C-1.59481 26.062 -1.64809 26.1674 -1.64809 26.1147C-1.59481 26.0092 -1.54154 25.9565 -1.59482 25.9565C-1.70137 26.1147 -1.80791 26.2201 -1.91446 26.3256C-1.96774 26.5892 -2.23411 26.9055 -2.28738 27.2219C-2.34066 27.1164 -2.55376 27.5382 -2.60703 27.6964C-2.60703 27.591 -2.60703 27.591 -2.71358 27.7491C-2.87341 28.1709 -3.0865 28.5927 -3.24633 28.8563C-3.40615 29.1727 -3.0865 28.6982 -3.24633 28.9618C-3.2996 28.9618 -3.40616 29.2254 -3.45943 29.1727C-3.40616 29.0145 -3.35288 29.12 -3.29961 28.9091C-3.51271 29.0145 -3.7258 30.069 -3.9389 30.069C-4.25855 30.7017 -4.7913 31.8089 -4.84457 31.6507C-4.89785 31.8089 -4.89785 31.8616 -4.89785 31.9144C-5.05767 32.0725 -5.27077 32.6525 -5.27077 32.4943C-5.37732 33.0216 -5.53714 33.0216 -5.64369 33.4961C-5.75024 33.6015 -5.75024 33.6543 -5.80352 33.5488C-5.91007 33.707 -5.91006 33.8652 -6.01661 33.9706C-6.01661 34.0761 -6.06989 34.287 -6.06989 34.3397C-6.17644 34.3397 -6.33626 34.656 -6.44281 34.9196C-6.44281 34.9196 -6.38954 34.9724 -6.44281 35.1305C-6.60264 34.9196 -7.08211 36.9759 -7.08211 36.5541C-7.77468 38.874 -8.36071 40.2975 -8.7869 42.5647C-8.7869 42.512 -8.73363 42.3538 -8.73363 42.3538C-8.7869 42.7229 -8.89345 42.8283 -9 43.0919C-8.7869 42.9865 -8.7869 42.7756 -8.5738 42.4592C-8.20088 41.0884 -8.04106 40.7721 -7.66813 39.7176C-7.61486 39.2958 -7.34849 38.8213 -7.18866 38.4522C-7.18866 38.4522 -7.24194 38.3995 -7.18866 38.2413C-7.18866 38.5049 -6.97556 37.714 -7.02884 37.714C-6.92229 37.6613 -6.76246 37.1868 -6.76246 36.9759C-6.65591 37.0286 -6.60264 36.5541 -6.49609 36.3432C-6.38954 36.0796 -6.17644 35.7632 -6.01661 35.3942C-5.80351 34.8669 -5.75024 34.8142 -5.64369 34.4979C-5.64369 34.656 -5.48387 34.287 -5.53714 34.5506C-5.59042 34.4451 -5.64369 34.7087 -5.69697 34.8142C-5.59042 34.8669 -5.75024 35.3414 -5.69697 35.4996C-5.37732 35.2887 -5.4306 35.9214 -5.05767 35.2887C-5.16422 35.6578 -5.11095 35.7105 -5.16422 35.9214C-5.2175 35.8687 -5.53714 37.0286 -5.64369 36.5541C-5.64369 36.7123 -5.53715 36.6595 -5.59042 36.8704C-5.75025 37.0813 -5.59042 37.0286 -5.69697 37.345C-5.80352 37.2922 -5.96334 38.1358 -6.06989 38.0304C-6.06989 38.1886 -6.01661 38.1886 -6.01661 38.2413C-6.17644 38.5049 -6.06989 38.3995 -6.17644 38.874C-6.22971 38.9267 -6.17644 38.7158 -6.22972 38.874C-6.28299 38.9794 -6.22972 39.0849 -6.22972 39.243C-6.12317 38.7685 -6.49609 39.7703 -6.38954 39.6121V39.5067C-6.44282 39.7176 -6.49609 40.0866 -6.60264 40.403C-6.60264 40.4557 -6.60264 40.2448 -6.65592 40.403C-6.76247 40.7193 -6.81574 41.1411 -6.92229 41.5102C-6.97556 41.8265 -7.13539 41.9847 -7.18866 42.3011C-7.34849 42.8283 -7.45503 43.6719 -7.56158 44.3046C-7.66813 44.7264 -7.77468 45.2009 -7.82796 45.4118C-8.09433 46.8881 -8.30743 48.2062 -8.41397 49.208C-8.30743 49.1552 -8.41398 49.7352 -8.36071 49.7879C-8.04106 48.6807 -7.72141 46.7299 -7.29521 44.8318C-7.18866 44.8318 -7.02884 44.0937 -7.02884 43.9355C-6.92229 43.8828 -6.81574 43.5664 -6.76246 43.6192C-6.70919 43.3555 -6.76247 43.1446 -6.65592 43.0919C-6.65592 43.1974 -6.70919 43.3555 -6.65592 43.3555C-6.65592 43.3028 -6.60264 43.1974 -6.60264 43.1974C-6.60264 43.2501 -6.65591 43.3555 -6.60264 43.3555C-6.49609 42.9865 -6.65591 43.0919 -6.54936 42.7229C-6.54936 42.9338 -6.38954 42.4065 -6.38954 42.7756C-6.44282 42.881 -6.44282 42.7229 -6.49609 42.9338C-6.60264 43.3028 -6.49609 43.1974 -6.54936 43.5664C-6.38954 43.3555 -6.33626 43.2501 -6.28299 43.6192C-6.28299 43.6192 -6.33626 43.6192 -6.33626 43.7246C-6.28299 43.8828 -6.33627 43.9355 -6.22972 43.8301C-6.28299 44.0937 -6.22972 44.041 -6.22972 44.1991C-6.33627 44.1991 -6.22971 44.2519 -6.28299 44.4628C-6.33626 44.6209 -6.38954 44.5155 -6.38954 44.7264C-6.28299 44.8318 -6.44281 45.1482 -6.44281 45.4645C-6.38954 45.4645 -6.38954 45.4118 -6.38954 45.4118C-6.44282 45.6754 -6.44281 45.8336 -6.44281 46.0445C-6.49609 46.2554 -6.54936 46.4663 -6.60264 46.5717C-6.44281 46.519 -6.70919 47.2044 -6.60264 47.3099C-6.70919 47.6262 -6.76246 48.1535 -6.86901 48.3644C-6.81574 48.4698 -6.92228 48.6807 -6.81573 48.8389C-6.97556 49.8934 -7.08211 51.1588 -6.97556 51.5805C-7.08211 51.7387 -6.97556 52.4241 -6.97556 52.9514C-6.92228 52.7932 -6.92228 52.6878 -6.81573 52.6878C-6.81573 52.4241 -6.76246 52.4241 -6.76246 52.1605C-6.54936 52.0023 -6.76246 51.0006 -6.49609 50.8951C-6.54936 50.8424 -6.44281 50.6315 -6.44281 50.5261C-6.49609 50.2097 -6.33626 49.8406 -6.28299 49.4188C-6.28299 49.5243 -6.28299 49.6825 -6.28299 49.6825C-6.17644 48.8389 -6.01662 48.2589 -5.96334 47.4153C-5.91007 47.3626 -5.75024 47.099 -5.91006 47.2572C-5.85679 47.2044 -5.85679 46.8881 -5.80352 46.8881C-5.75024 46.9408 -5.85679 47.468 -5.80352 47.5208C-5.85679 47.6262 -5.91007 48.1535 -5.96334 48.2062C-5.91007 48.2062 -5.91006 48.2062 -5.91006 48.3116C-6.22971 49.9461 -6.22972 51.5806 -6.12317 53.0568C-6.01662 53.1096 -5.91006 52.6878 -6.01661 52.266C-5.91006 52.5296 -5.85679 51.9496 -5.80352 51.8969C-5.80352 51.8969 -5.8568 51.7914 -5.8568 51.7387C-5.80352 51.7387 -5.75024 51.4751 -5.69697 51.3697C-5.59042 49.9988 -5.32405 49.1025 -5.16422 47.468C-5.11095 47.2571 -4.95112 47.2571 -4.89785 47.1517C-5.0044 47.4153 -4.84457 47.2572 -4.84457 47.5208C-4.89785 47.6789 -4.95112 47.6262 -4.95112 47.8898C-4.89784 47.8898 -4.89785 47.8898 -4.89785 47.9953C-4.95112 48.048 -4.89784 48.2062 -4.95112 48.3644C-5.00439 48.3644 -5.0044 48.3644 -5.0044 48.4698C-5.0044 48.4698 -5.0044 48.4698 -5.0044 48.5753C-5.0044 48.5753 -5.00439 48.628 -4.95112 48.6807C-4.89784 48.4171 -4.84457 48.1007 -4.84457 47.9953C-4.7913 48.1007 -4.73802 47.6789 -4.68474 47.9426C-4.63147 47.5735 -4.63147 47.5735 -4.5782 47.6789C-4.5782 47.2571 -4.31183 46.7299 -4.47165 46.519C-4.41837 46.5717 -4.25855 46.4136 -4.31182 46.2554C-4.3651 46.519 -4.31182 46.0972 -4.31182 46.0972C-4.20527 46.0445 -4.25855 45.6754 -4.152 45.4118C-4.04545 45.6227 -3.88563 44.8846 -4.04545 45.2536C-3.99218 44.7791 -3.9389 45.0955 -3.88562 44.8318C-3.83235 44.41 -3.77907 44.1991 -3.61925 43.8301C-3.67253 43.8301 -3.56598 43.461 -3.56598 43.3028C-3.29961 42.7229 -2.97996 41.7211 -2.66031 40.7193C-2.34066 39.6648 -1.96774 38.6104 -1.64809 37.7668C-1.38171 37.0286 -0.955518 35.9214 -0.476046 34.8669C-0.476046 34.6033 -0.209674 34.0233 -0.103125 33.9179C0.0034256 33.2325 0.536178 32.5471 0.642727 31.9671C0.802551 31.7035 0.855824 31.4926 1.01565 31.4398C0.962374 31.2817 1.28202 30.9126 1.17547 30.7544C1.17547 30.9126 1.60167 29.8581 1.49512 30.3326C1.60167 30.0163 1.60167 29.9636 1.81477 29.5945C1.76149 29.5945 1.70822 29.5418 1.81477 29.3836C2.29424 28.9618 2.34752 28.2237 2.77372 27.7491C3.04009 27.2219 3.04009 27.1164 3.14664 26.8528C3.19991 26.8528 3.19991 26.9055 3.25318 26.8001C3.30646 26.5892 3.41301 26.5892 3.78593 26.0092C3.78593 25.9565 3.67938 26.0092 3.73265 25.9038C3.8392 25.8511 3.89248 25.6402 3.94576 25.5347C3.99903 25.5347 4.0523 25.482 3.99903 25.5874C4.10558 25.2711 4.37195 25.1129 4.4785 24.8493C4.21213 25.1129 4.85143 24.0584 5.01125 24.0584C5.06453 23.7421 5.22435 23.6894 5.38417 23.2676C5.544 23.1621 5.70382 22.9512 6.02347 22.5294C5.91692 22.5294 6.18329 22.1604 6.39639 21.9495C6.34311 22.1076 7.03569 21.2113 6.98241 21.1586C7.24879 20.895 7.35534 20.7368 7.67499 20.3677C7.56844 20.315 7.78153 20.2095 7.72826 20.1041C7.78153 20.1568 7.88808 19.9459 7.88808 19.8932C7.94136 19.9459 8.20773 19.5769 8.31428 19.5769C8.36756 19.4187 8.84703 18.8914 8.52738 19.2078C8.63393 19.0496 8.68721 18.9969 8.84703 18.786C9.06013 18.7333 9.16668 18.5224 9.37978 18.3115C9.37978 18.3115 9.3265 18.3115 9.27323 18.3115C9.5396 18.1006 9.5396 17.8897 9.85925 17.5733C10.0191 17.5206 10.2854 17.257 10.4985 16.9934C10.4453 17.0988 10.392 17.0461 10.4453 16.9406C10.7116 16.7297 10.8715 16.5188 10.978 16.5188C11.0313 16.3079 11.1378 16.3079 11.3509 16.1498C11.2444 16.1498 11.564 15.8334 11.564 15.7807C11.7771 15.728 12.1501 15.3062 12.3099 15.148C12.2033 15.2007 12.4697 14.8844 12.5763 14.7789C12.8426 14.6208 13.109 14.3571 13.3754 14.199C13.3754 14.0935 13.4819 13.9881 13.5352 13.8826C13.6418 13.9353 13.5352 13.8299 13.7483 13.7245C14.2278 13.4608 14.2811 13.3027 14.7605 12.8809C14.9204 12.8809 15.5064 12.3536 15.5064 12.5645C15.0269 12.8809 14.5474 13.5663 14.068 13.9353C13.8549 14.1462 13.8016 14.1462 13.5885 14.3044C13.3221 14.6208 13.3221 15.0953 14.0147 14.6208C14.4409 14.199 14.7605 13.9881 15.0269 13.8299C15.5596 13.2499 15.8793 13.1972 16.3588 12.8809C16.412 12.7227 17.2112 12.1954 17.0513 12.3536C17.371 12.1427 17.5841 11.9318 17.6906 11.7736C17.6374 11.9318 18.0636 11.51 18.0636 11.5628C17.7439 11.8264 17.8505 11.8264 17.5841 12.0373C17.7972 11.9845 17.5841 12.1954 17.4775 12.3009C18.0103 12.0373 18.0636 11.9318 18.8094 11.3519C18.8094 11.4046 18.8627 11.3519 18.9692 11.3519C18.916 11.4046 18.916 11.4573 18.8627 11.51C18.5963 11.6682 18.7029 11.51 18.4898 11.6682C18.2767 11.9318 18.1701 12.09 18.1701 12.1954L18.0636 12.3009V12.3536C17.8505 12.5118 17.7439 12.6172 17.6374 12.6172C17.6374 12.7227 17.4243 13.039 17.2112 13.3027C17.1046 13.4081 16.9448 13.5136 16.8915 13.5136C16.785 13.7245 16.5719 13.9353 16.5186 14.0935C16.0924 14.4099 15.8793 14.7262 15.6662 15.0953C15.24 15.4116 15.0269 15.7807 14.8671 16.097C14.5474 16.2552 14.281 16.677 14.1212 16.9934C13.9081 17.2043 13.8549 17.2043 13.6418 17.4152C13.4287 17.7315 13.2156 18.1006 12.9492 18.3115C12.7361 18.6278 12.5763 19.1023 12.2566 19.2078C12.1501 19.4187 11.7771 19.9987 11.564 20.2095C11.2444 20.895 10.7649 21.6331 10.2854 22.3712C10.2322 22.5294 10.0724 23.2148 10.2322 22.9512C10.2854 23.0039 10.1789 23.1094 10.1789 23.2148C10.1256 23.2676 10.0191 23.2676 9.85925 23.4785C9.69942 23.8475 9.85925 23.8475 9.91252 23.953C10.0723 23.6894 10.1789 23.4785 10.2322 23.1094C11.0846 22.1076 12.4164 19.9459 13.5885 18.5224C13.9081 18.206 14.1212 18.0478 14.4942 17.5206C14.654 17.3624 14.7605 17.3097 14.9203 17.2043C15.1334 16.7825 15.5596 16.4661 15.7195 16.5188C15.8793 16.3607 15.9858 16.2025 16.0391 16.097C16.412 15.7807 16.6251 15.9389 16.4653 16.1498C16.5186 16.1498 16.6784 15.9389 16.7317 15.8862C16.8382 15.8862 16.6251 16.0443 16.7317 16.0443C16.8382 15.9389 16.8915 15.7807 16.9981 15.7807C17.1046 15.5698 17.0513 15.5698 17.1046 15.4116C17.2644 15.2535 17.3177 15.3062 17.4243 15.148C17.3177 15.5171 18.1168 14.7262 18.0636 14.568C18.2767 14.5153 18.4898 14.2517 18.5963 14.199C18.8094 13.8826 19.0758 13.619 19.3421 13.5663C19.4487 13.4081 19.5552 13.3027 19.6618 13.2499C19.7151 13.039 20.3011 12.7754 20.7806 12.3009C21.26 12.1954 21.6862 11.4573 22.2723 11.2991C22.4854 11.1937 22.3255 11.1937 22.4854 11.0882C23.5509 10.4028 24.5098 9.7174 25.5753 9.08471V9.13743C25.7351 9.03198 26.2679 8.71564 26.2146 8.71564C26.108 8.76836 26.0015 8.82108 25.9482 8.87381L26.2679 8.66291C26.3744 8.66291 26.4277 8.71564 26.3744 8.76836C26.108 8.87381 26.2146 8.82108 26.1613 8.87381C26.0548 8.92653 26.0548 8.87381 25.8949 8.92653C25.6818 9.19016 25.2556 9.5065 25.3089 9.66467C25.6286 9.55923 26.0548 9.61195 26.2679 9.7174C26.8006 9.45378 27.4399 9.2956 27.9726 9.13743C28.0259 9.2956 27.4932 9.55923 27.7063 9.66467C28.0259 9.5065 27.9727 9.77012 28.2923 9.61195C28.3988 9.55923 28.6652 9.34833 28.825 9.19016C28.9316 9.19016 29.198 9.2956 29.0381 9.45378C30.8495 8.66291 32.9805 7.81932 35.1647 7.08118C35.1647 7.1339 35.5909 6.92301 35.4844 7.02846C35.6442 6.97573 35.804 6.87028 35.8573 6.92301C35.1647 7.29208 34.1525 7.66115 34.1525 7.92477C34.1525 7.7666 33.9394 8.08294 34.1525 7.97749C34.3656 7.92477 35.0049 7.7666 35.3246 7.5557C35.804 7.50298 36.1237 7.5557 36.4966 7.3448C36.4966 7.45025 36.8163 7.3448 36.8163 7.39753C37.8285 6.92301 37.9883 7.3448 37.349 7.60842C36.9228 7.66115 36.9761 7.7666 36.7097 7.81932C37.6154 7.71387 38.894 7.23935 39.6398 7.29208C40.7586 7.08118 41.611 6.92301 42.0372 7.08118C42.4101 7.02846 42.5167 6.97573 42.9428 6.92301C43.2092 6.92301 43.4223 6.92301 43.7952 6.92301C44.0616 6.71211 44.5944 6.81756 45.0206 6.76483C45.1271 6.71211 45.3935 6.65939 45.3935 6.60666C45.6066 6.65939 45.9795 6.60666 46.2991 6.60666C46.2991 6.44849 46.7254 6.50121 47.045 6.44849C47.045 6.50121 47.0983 6.50121 47.0983 6.50121C46.7253 6.71211 45.873 6.60666 45.9262 6.87028C45.9262 6.81756 45.9795 6.92301 45.873 6.92301C46.1926 6.92301 46.1393 6.92301 46.3524 6.92301C46.4057 6.81756 46.4057 6.92301 46.5123 6.92301C46.5123 6.87028 46.8319 6.87028 46.8852 6.76483C47.2581 6.76483 47.4179 6.81756 47.7376 6.81756C47.7908 6.71211 48.1105 6.71211 48.1638 6.65938C48.1638 6.76483 48.2703 6.71211 48.4834 6.71211C48.4834 6.76483 48.3769 6.76483 48.4301 6.76483C48.6965 6.71211 48.6965 6.76483 48.9096 6.81756C49.0162 6.65939 49.8686 6.65938 49.762 6.71211C50.2948 6.71211 50.2415 6.71211 50.5079 6.60666C51.2004 6.65939 51.3603 6.71211 51.7865 6.55394C52.2659 6.71211 52.7454 6.60666 53.1716 6.55394C53.4912 6.65939 53.8109 6.65938 54.2371 6.65938C54.3969 6.60666 54.1305 6.60666 54.3969 6.60666C54.4502 6.71211 54.7166 6.65938 54.8231 6.76483C54.9297 6.71211 55.4091 6.81756 55.0362 6.71211L55.4091 6.76483C55.4624 6.71211 55.3026 6.71211 55.4091 6.71211C55.5157 6.76483 55.7821 6.71211 55.8353 6.76483C55.7288 6.76483 55.7288 6.76483 55.6755 6.81756C55.8886 6.87028 56.4214 7.02846 56.3681 6.92301C56.3681 6.97573 56.155 6.92301 56.155 6.92301C56.6344 6.97573 56.5812 6.81756 56.5279 6.76483C56.6344 6.87028 56.7943 6.76483 56.9008 6.87028C56.7943 6.87028 56.741 6.87028 56.741 6.87028C56.9541 6.92301 57.0074 6.97573 57.1139 7.02846C57.5401 7.08118 57.7532 7.02846 58.0196 7.02846C57.8598 7.08118 58.1794 7.1339 58.2327 7.18663C58.6056 7.29208 58.8187 7.18663 59.3515 7.29208C59.3515 7.3448 59.458 7.39753 59.6178 7.45025C60.0973 7.45025 60.4702 7.5557 60.9497 7.71387C61.1628 7.66115 61.7488 7.7666 61.9086 7.92477C62.2283 7.9775 62.3348 7.92477 62.8143 8.08294C62.8676 8.18839 63.1872 8.29384 63.4536 8.34657C63.5602 8.34657 63.5069 8.29384 63.6134 8.29384C63.9331 8.39929 64.306 8.55746 64.5191 8.66291C64.5724 8.61019 64.7855 8.66291 64.8388 8.66291C65.0519 8.76836 65.265 8.92653 65.4248 8.87381C65.4248 8.92653 65.3715 8.92653 65.478 8.97926C65.5313 8.97926 65.6379 9.03198 65.6912 9.03198C66.2239 8.97926 66.1174 9.19016 66.7567 9.40105C66.9165 9.40105 67.1296 9.45378 67.3427 9.5065C67.1828 9.61195 67.7156 9.61195 67.5025 9.66467C67.6623 9.7174 67.7689 9.77012 67.8754 9.82285C67.982 9.82285 68.3549 9.82285 68.6213 10.0337C68.5147 9.98102 68.4082 9.9283 68.4082 9.98102C68.6213 10.0865 68.8344 10.1919 68.9409 10.2974C68.9942 10.1919 69.2606 10.3501 69.4736 10.4028C69.8466 10.6137 70.1662 10.7719 70.5391 10.8246C71.0186 11.141 71.3383 11.2464 71.8177 11.3519C72.1374 11.6155 72.457 11.6682 72.8832 11.8264C73.2029 12.1427 73.6291 12.1427 74.002 12.3536C74.1086 12.4063 74.2151 12.5645 74.3216 12.6172C74.5348 12.7227 75.3871 12.9863 75.3871 13.1972C75.7068 13.3554 76.3994 13.619 76.6125 13.9881C76.8256 14.0935 76.9321 14.0935 77.1985 14.2517C77.3583 14.3571 77.4116 14.4626 77.4649 14.568C77.7312 14.7789 77.9443 14.7789 78.4771 15.148C78.4238 15.2007 78.4238 15.2007 78.5303 15.3062C78.9033 15.5171 79.3828 15.728 79.4893 15.9916C79.809 16.2552 79.9688 16.3079 80.1286 16.4134C80.3417 16.6243 80.4482 16.7825 80.6081 16.9406C80.8212 17.0461 81.0875 17.2043 81.3539 17.3624C81.3006 17.4152 81.3006 17.4152 81.3539 17.4679C81.5137 17.5733 81.6203 17.7315 81.6203 17.7315C81.567 17.6788 81.9399 17.9424 82.2063 18.1006C82.3129 18.206 82.2596 18.2587 82.3129 18.3115C82.6325 18.6278 82.7391 18.5751 83.0054 18.786C83.2185 18.9969 83.2718 19.1551 83.4316 19.3132C83.5915 19.366 83.698 19.4714 83.9111 19.5769C84.1242 19.9459 84.4971 20.315 84.7102 20.3677C85.0831 20.895 85.243 21.0531 85.7224 21.4222C85.5093 21.3695 86.1486 21.8967 85.7757 21.6858C86.0954 22.0022 86.2552 22.1604 86.4683 22.2658C86.4683 22.6349 86.8945 22.8458 87.374 23.373C87.3207 23.5312 87.6936 23.9003 87.9067 24.0057C88.2263 24.3748 88.0665 24.3748 88.3862 24.7966C88.4927 24.8493 88.6526 25.0075 88.8657 25.2711C88.7591 25.3238 88.9722 25.5347 89.0255 25.6929C89.1853 25.7456 89.2386 25.8511 89.4517 26.1147C89.5582 26.5365 89.9312 26.8001 90.1975 27.1692C90.0377 27.1164 90.3573 27.4328 90.2508 27.4328C90.4639 27.7491 90.5704 27.8019 90.7303 28.0128C90.8368 28.1709 90.9434 28.3818 90.9434 28.54C90.091 27.2219 89.2918 26.1147 88.3862 24.9547C87.4805 23.8475 86.5216 22.6876 85.2962 21.4749C85.1897 21.3168 85.0831 21.1586 84.9233 21.0004C84.7635 20.8422 84.6037 20.7895 84.4971 20.6841C84.2308 20.2623 83.7513 19.9459 83.3783 19.6296L83.4316 19.5769C83.1653 19.3132 83.0054 19.2078 82.8456 19.1023C82.7923 19.1023 82.8989 19.2078 82.8456 19.2605C82.526 18.9969 82.2596 18.7333 82.4727 18.786C82.4194 18.6805 82.3129 18.5751 82.153 18.4696C81.9932 18.4696 82.2063 18.5751 82.0465 18.5751C81.8334 18.3642 81.7801 18.3642 81.6203 18.2587C81.8334 18.5751 81.8334 18.5224 82.0465 18.8387C81.7268 18.5224 81.567 18.5751 81.3006 18.1533C81.0875 18.0478 80.7679 17.7315 80.6613 17.7315C80.7679 17.8897 80.981 17.9951 80.8212 17.9951C81.0343 18.0478 81.3007 18.3115 81.6736 18.6278C81.6736 18.6805 81.6203 18.6805 81.6736 18.7333C81.9932 18.8914 82.3129 19.3132 82.3661 19.1023C82.2063 18.9442 82.0998 18.9442 82.0998 18.8387C82.3129 19.0496 82.3129 18.9442 82.4727 19.1023C82.4727 19.2078 82.7391 19.366 82.8456 19.5769C82.6325 19.4187 82.5792 19.366 82.4194 19.2605C82.5792 19.6823 83.4316 20.0514 83.5382 20.4732C83.5382 20.315 83.9644 20.8422 84.284 21.0004C84.1242 20.895 84.3373 21.1059 84.284 21.1059C84.5504 21.4222 84.9233 21.7386 85.1364 21.844C85.0299 21.7913 85.1364 21.8967 85.0299 21.844C85.243 22.1076 85.243 22.1604 85.5626 22.4767C85.6159 22.4767 85.8823 22.5821 85.9355 22.7403C85.7757 22.5294 85.9355 22.8985 85.9888 23.0039C86.0421 23.0039 85.9355 22.8985 86.0421 22.9512C85.9888 22.9512 86.1486 23.1094 86.1486 23.1621C85.8823 22.8985 85.9888 23.1094 85.7757 22.9512C85.6692 22.8458 85.4561 22.5294 85.3495 22.424C85.4028 22.4767 85.4028 22.4767 85.3495 22.424C85.2962 22.3185 85.4028 22.3185 85.3495 22.2131C84.9233 21.6858 85.243 22.3185 85.1364 22.0022C85.243 22.1604 85.243 22.2131 85.2962 22.2658C84.7635 21.7913 83.4849 20.4204 82.4727 19.4714C82.2063 19.3132 82.4727 19.6823 82.2596 19.5769C82.3661 19.5241 82.153 19.366 82.3129 19.4187C82.153 19.2605 82.153 19.2078 82.0998 19.1023C81.7801 18.9442 81.1408 18.206 80.4482 17.7842C80.3417 17.6788 80.2884 17.5733 80.2351 17.4679C80.1819 17.4152 79.436 17.0461 79.3295 16.7825C78.85 16.4661 78.9566 16.5188 78.4771 16.2552C78.3173 15.9389 77.8911 15.728 77.5714 15.6225C77.4116 15.3062 76.5592 15.0426 76.3461 14.7262C76.2928 14.6208 76.133 14.6735 75.9732 14.4626C75.6535 14.4099 75.0142 13.9881 74.9077 13.8299C74.8544 13.8826 74.6946 13.7772 74.5347 13.7245C74.588 13.6717 73.8422 13.2499 73.416 13.0918C73.3627 12.9863 73.2029 12.9863 73.2562 12.9336C72.9365 12.8809 72.5636 12.5645 72.2439 12.4591C71.7112 12.0373 70.4326 11.6682 70.0064 11.2991C69.2073 11.0355 68.8876 10.8773 68.1951 10.6137C68.1951 10.7192 68.4082 10.7192 68.1418 10.7192C68.2483 10.7719 68.3016 10.8246 68.3549 10.8246C68.0885 10.6137 68.3016 10.8773 67.9287 10.7192C68.0885 10.7192 67.7689 10.561 68.0885 10.6664C67.7156 10.5083 68.0352 10.6137 68.0352 10.561C67.8221 10.5083 67.7156 10.4028 67.3959 10.2974C67.2361 10.2974 67.1296 10.3501 66.9697 10.3501C66.9697 10.2974 66.5968 10.1919 66.6501 10.1392C66.7566 10.1919 66.8632 10.1919 66.8632 10.1919C66.7566 10.1392 66.4903 10.0865 66.5435 10.0337C66.7034 10.0865 66.8099 10.1392 66.7567 10.0337L66.0641 9.77012C65.9575 9.82285 66.1173 9.87557 66.1706 9.9283C66.0108 9.9283 66.2239 9.98102 65.9575 9.87557C65.851 9.9283 66.1706 9.98102 66.0641 10.0337C65.9575 9.9283 65.6379 9.87557 65.5313 9.77012C65.6379 9.82285 65.7444 9.82285 65.7444 9.82285C65.478 9.7174 65.5846 9.66467 65.478 9.61195C65.2117 9.55923 64.9453 9.45378 64.9453 9.55923C64.8387 9.40105 64.9453 9.5065 64.7322 9.5065C64.4126 9.34833 64.306 9.24288 64.1462 9.2956C64.1995 9.24288 63.9331 9.19016 63.7733 9.19016C63.8265 9.24288 63.8798 9.24288 63.8798 9.2956C63.7733 9.24288 63.5602 9.19016 63.5069 9.24288C63.6667 9.2956 63.7733 9.24288 63.7733 9.34833C63.5069 9.34833 63.4003 9.24288 63.1872 9.13743C63.2938 9.13743 63.4003 9.19016 63.4003 9.19016C63.1872 9.13743 63.2405 9.08471 63.0807 9.03198C62.9209 9.03198 63.0274 9.03198 62.8676 8.97926C62.8143 9.03198 62.4947 8.97926 62.3348 8.97926C62.1217 8.92653 62.0152 8.82108 61.6956 8.76836C61.5357 8.76836 61.8021 8.87381 61.589 8.82108C61.589 8.76836 61.5357 8.76836 61.4824 8.71564C61.5357 8.82108 61.2694 8.61019 61.1628 8.71564L61.3759 8.82108C61.1095 8.76836 61.0563 8.87381 61.1095 8.92653C61.1095 8.87381 61.2161 8.87381 61.2693 8.92653C61.2161 8.92653 61.1628 8.92653 61.0563 8.92653C61.003 8.92653 60.9497 8.87381 60.8964 8.87381C60.9497 8.82108 61.003 8.82108 61.0563 8.76836C60.7366 8.66291 60.8964 8.66291 61.0563 8.66291C60.8964 8.61019 60.8432 8.55746 60.6301 8.55746C60.417 8.55746 60.7366 8.66291 60.5235 8.61019C60.6301 8.55746 60.3637 8.55746 60.2571 8.50474C60.044 8.50474 60.1506 8.66291 59.9375 8.61019C59.7777 8.66291 60.2039 8.76836 59.9908 8.71564C59.9908 8.66291 59.7244 8.76836 59.6711 8.66291C59.9375 8.61019 59.5113 8.61019 59.8309 8.55746C59.5113 8.50474 59.7244 8.50474 59.6178 8.39929C59.3515 8.34657 59.0851 8.34657 58.872 8.34657C58.7654 8.45201 58.9253 8.50474 58.6056 8.45201C58.872 8.45201 58.1794 8.34657 58.4991 8.29384C57.9663 8.13567 58.286 8.29384 57.7532 8.18839C57.6999 8.29384 57.913 8.29384 57.5934 8.24112C57.4868 8.29384 57.7 8.29384 57.7 8.34657L57.327 8.29384C57.327 8.24112 57.1672 8.18839 57.2205 8.13567C56.7943 8.08294 56.4746 8.08294 56.3148 8.13567C56.155 8.08294 56.0484 8.03022 55.8886 8.03022C55.0362 8.08294 54.5567 7.87205 54.024 7.97749C53.4912 7.92477 53.1183 7.87205 52.8519 7.97749C51.9463 7.87205 50.4013 8.08294 49.6022 7.92477C49.3891 7.92477 49.4956 7.97749 49.176 7.97749C49.3891 7.92477 49.0694 7.9775 49.0162 7.92477C49.3358 7.92477 48.9629 7.87205 48.9629 7.81932C48.6965 7.87205 48.3769 7.7666 48.0572 7.87205C48.0572 7.81932 47.9507 7.81932 47.8974 7.81932C47.6843 7.87205 47.5245 7.81932 47.3114 7.81932C47.3114 7.81932 47.3114 7.87205 47.2581 7.87205C46.2992 7.87205 44.9673 7.97749 43.6887 8.13567C42.3568 8.29384 41.1315 8.50474 40.2791 8.55746C39.4267 8.61019 38.2014 8.92653 37.4556 8.97926C36.0171 9.34833 34.7918 9.61195 33.6198 9.9283C32.4477 10.2446 31.2757 10.6137 29.9971 11.1937C29.8905 11.2464 29.9438 11.141 29.784 11.2464C29.784 11.2464 29.7307 11.2991 29.6774 11.3519C29.7307 11.4573 29.784 11.4573 29.9438 11.4573C29.9438 11.4573 29.9971 11.4046 30.0504 11.3519C30.6364 11.3519 31.4355 11.0882 32.1281 10.9828C32.1281 10.9301 32.3945 10.8246 32.5543 10.7719C32.7141 10.7719 32.9805 10.6664 33.087 10.7192C33.8861 10.3501 33.673 10.7719 34.4722 10.4028C34.632 10.561 35.5909 10.0865 35.804 10.1919C35.4844 10.4028 35.4311 10.561 35.1647 10.7719C33.0337 11.51 30.4766 12.6172 28.825 13.2499C28.4521 13.4608 28.239 13.5663 28.0792 13.6717C28.0259 13.619 27.8128 13.7772 27.8128 13.7772C27.4399 14.0408 27.067 14.3044 26.6941 14.4099C26.3744 14.6735 26.1613 14.8844 25.6818 15.148C25.7884 15.148 25.522 15.3062 25.522 15.3589C26.0015 15.2535 26.8539 14.8844 27.3334 14.6735L27.3866 14.7262C26.9072 15.0953 26.6941 15.4116 26.108 15.8334C24.9893 16.6243 23.6574 17.4152 22.805 18.2587C21.9526 19.1023 21.4199 19.8405 20.5142 20.7368C19.3954 21.844 18.4365 23.1094 17.4243 24.1639C16.9981 24.7438 16.5719 25.3765 15.9858 26.1147C14.9736 27.6437 14.1212 29.0145 13.2156 30.7544C13.2156 31.018 13.0025 31.2817 12.7894 31.7035C12.7894 31.8089 12.8426 31.8089 12.7894 31.9144C12.3632 32.6525 12.523 32.8634 12.0968 33.6015C12.0968 33.707 12.0435 33.9706 12.2033 33.8652C12.2033 33.9706 12.0435 34.1815 11.9902 34.3924C12.0435 34.3397 12.0968 34.2342 12.0968 34.2342C11.9902 34.4979 12.0435 34.3924 12.0968 34.3924C11.8837 34.9196 11.6706 35.8687 11.8304 35.9214C11.7771 35.7105 12.1501 35.6578 12.2033 35.2887C12.1501 35.3942 12.2566 35.1305 12.3099 34.9724C12.4697 34.9196 12.523 34.7087 12.6295 34.5506C12.6295 34.3924 12.6828 34.287 12.7361 34.1288C12.8959 33.9179 13.0557 33.707 13.109 33.8124C13.1623 33.6543 13.109 33.7597 13.1623 33.5488C13.109 33.6015 13.0557 33.707 13.0557 33.707C13.1623 33.4961 13.109 33.3379 13.3221 33.127C13.2156 33.3906 13.695 32.9688 13.8016 32.7579C13.695 32.7052 14.1745 32.1253 14.1212 32.0198C14.281 31.8616 14.4941 31.2289 14.8138 30.9653C14.9736 30.4381 15.5064 29.8054 15.7195 29.3836C15.8793 29.3836 15.9326 29.2254 16.0391 29.2781C15.826 29.489 15.9326 29.489 15.826 29.6999C15.7727 29.6999 15.7195 29.8581 15.5064 30.1217C15.5596 30.069 15.2933 30.7017 15.3998 30.5435C14.9736 31.0708 14.8138 31.6507 14.3343 32.178C14.3343 32.2834 14.4409 32.2834 14.3343 32.3889C14.2278 32.4943 14.2278 32.7579 14.068 32.7579C13.8549 33.2325 13.9081 33.3906 13.9081 33.6543C13.8016 33.707 13.8016 33.8652 13.695 33.9706C13.8016 33.9706 13.5885 34.3397 13.695 34.3924C13.5885 34.6033 13.5885 34.7088 13.4287 34.9196C13.4819 34.9724 13.3754 35.1833 13.4287 35.2887C13.4819 35.1833 13.5352 35.2887 13.5885 35.236C13.5352 35.3414 13.4819 35.3942 13.4287 35.4469C13.5352 35.4469 13.695 35.1833 13.7483 35.2887C13.8016 35.1833 13.8016 35.1305 13.8548 35.1305C13.8016 35.3414 13.8549 35.1833 13.9614 35.1833C13.5352 35.9741 13.6418 37.1341 13.2156 37.9249C13.3221 38.0304 13.2156 38.1886 13.3221 38.294C13.3754 38.0831 13.4287 38.1886 13.4819 38.0831C13.4819 38.0831 13.4287 38.0304 13.4819 37.9249C13.5352 37.8722 13.5885 37.8722 13.5885 37.9777C13.695 37.714 13.5352 37.7668 13.5885 37.6086C13.7483 37.4504 13.8016 37.2922 13.9614 37.1341C13.9614 37.2922 13.9081 37.6086 14.068 37.4504C13.9081 37.7668 13.9614 37.8195 13.8016 38.0831C13.9081 38.3467 14.0147 38.2413 14.281 37.8722C14.281 37.8195 14.2278 37.8195 14.281 37.6613C14.3343 37.714 14.4409 37.5559 14.4942 37.5031C14.7073 36.9232 14.8671 36.3432 15.0802 36.0269C14.9736 36.0269 15.2933 35.5523 15.0802 35.816C15.1867 35.4996 15.2933 35.3942 15.4531 35.0778C15.3998 34.9196 15.6129 34.7087 15.6662 34.5506C15.8793 34.4451 15.9858 34.1288 16.0924 33.7597C16.1989 33.8124 16.6251 32.8634 16.5186 33.2325C16.6251 33.0743 16.6251 32.8634 16.7317 32.8107C16.785 32.8107 16.7317 32.9161 16.8382 32.8634C16.6784 33.0743 16.6784 33.2325 16.5719 33.2852C16.5186 33.9706 15.826 35.0778 15.7727 35.816C15.7195 35.816 15.7195 35.7632 15.6662 35.8687C15.7727 35.9214 15.7727 35.9214 15.6662 36.0796C15.6662 36.185 15.826 35.9741 15.7195 36.1323C15.6662 36.185 15.7195 36.185 15.6662 36.2378C15.6129 36.2378 15.6662 36.1323 15.6129 36.2378C15.6662 36.2378 15.5596 36.3959 15.5596 36.4487C15.6662 36.2905 15.7195 36.2905 15.7727 36.185C15.7195 36.185 15.7195 36.1323 15.7727 36.0269C15.7727 36.0269 15.826 36.0796 15.8793 35.9741C15.9326 35.8687 15.826 35.8687 15.8793 35.6578V35.7105C16.0924 35.3414 16.412 34.3397 16.6251 34.3397C16.6251 34.3397 16.5719 34.4979 16.5719 34.4451C16.6251 34.4451 16.6251 34.287 16.6784 34.287C16.7317 34.287 16.6784 34.4451 16.8382 34.287C16.6251 34.5506 16.8382 34.8142 16.8915 34.7615C16.8915 34.7615 17.1579 34.6033 17.2112 34.656C17.2112 34.3924 17.5308 34.2342 17.5841 33.9706C17.6374 33.9706 17.6906 33.8652 17.7439 33.9179C17.7439 34.0761 17.6906 34.1288 17.7439 34.1288C17.6906 34.2342 17.5841 34.3924 17.5841 34.3924C17.7439 34.0761 17.6906 34.3924 17.7439 34.287L17.7972 34.0761C17.8505 34.1288 17.9037 34.0233 17.9037 34.0233C17.8505 34.1288 17.7439 34.1815 17.8505 34.1815C18.1168 33.707 18.1168 33.6543 18.1168 33.4434C18.1701 33.3906 18.1701 33.4434 18.2767 33.2852C18.2234 33.2325 18.2234 33.2325 18.2767 33.127C18.2767 33.1797 18.4365 33.0743 18.3832 33.0743C18.3299 33.2325 18.3299 32.9688 18.2234 33.127C18.2234 33.127 18.1701 33.1797 18.1701 33.2325C18.1168 33.3906 18.1701 33.2852 18.1701 33.3906C17.957 33.5488 18.1701 33.3379 18.1701 33.1797C18.2767 33.127 18.4898 32.9161 18.543 32.9688C18.6496 32.6525 18.9159 32.2834 19.0758 32.0198C19.129 31.7562 19.129 31.6507 19.3421 31.4926C19.3421 31.4926 19.2889 31.4398 19.3421 31.3871C19.3954 31.4398 19.3954 31.3344 19.502 31.2289C19.502 31.1235 19.5553 31.1235 19.5553 30.9653L19.7151 30.7017C19.8749 30.7544 19.7151 30.5435 19.9814 30.4908C19.9814 30.2799 20.4609 29.7527 20.4609 29.8054C20.5675 29.5945 20.6207 29.489 20.7806 29.2781C20.8338 29.2781 20.9404 29.2254 21.0469 29.2254C20.9937 29.3309 21.0469 29.3309 20.8871 29.489C20.9404 29.489 21.0469 29.6472 20.8338 29.6999C20.8871 29.6472 20.8871 29.5418 20.8338 29.6472C20.7806 29.8054 20.7273 29.8581 20.6207 30.0163C20.674 30.1217 20.6207 30.1745 20.7806 30.2272C20.8338 30.1745 21.0469 29.9108 21.2068 29.7527C21.3666 29.489 21.6862 29.0145 22.0059 28.6982H22.0592C22.0059 28.7509 22.0059 28.7509 21.8993 28.8036C21.9526 28.9618 21.6862 29.2781 21.5264 29.5418C22.8583 27.5382 24.4032 25.6929 26.108 24.0584C26.108 24.0584 26.108 24.0057 26.1613 23.953C26.1613 23.953 26.1613 23.953 26.2146 23.953C26.481 23.6894 26.6941 23.4785 26.9604 23.2676C33.6198 17.0461 42.6232 13.1972 52.5323 13.1972C73.0963 13.1972 89.7713 29.6999 89.7713 50.0515C89.7713 70.4032 73.0963 86.9059 52.5323 86.9059C47.5777 86.9059 42.8363 85.9568 38.5211 84.2169C38.308 84.2697 38.308 84.4278 38.5211 84.586C38.7874 84.7442 39.3734 84.8496 39.5865 85.0605C38.3612 84.7442 36.6564 83.9006 36.1237 84.006C35.3778 83.7951 34.8451 84.1115 35.3778 84.6387C35.9106 85.0078 36.4966 85.3769 36.8695 85.7459C36.6032 85.7459 36.3368 85.6932 35.9639 85.5878C36.9761 86.115 37.7752 86.3259 38.6276 86.8004C38.894 87.2222 40.1193 87.3277 40.5455 87.6967C40.5455 87.644 40.652 87.7495 40.8119 87.6967C40.9717 87.8022 40.9717 87.9076 41.2913 88.0131C41.1848 88.0131 41.2913 88.1185 41.4512 88.1713C41.4512 88.1185 41.5044 88.1185 41.5577 88.1185C41.4512 88.3294 41.7708 88.5403 41.611 88.6458C42.2503 89.2785 43.5821 89.3839 43.8485 89.9639C43.9018 90.0693 44.0083 90.1748 44.2747 90.2802C44.3813 90.2802 44.4878 90.2802 44.5944 90.2802C44.9673 90.4911 45.7664 90.4384 45.9795 90.7548C45.9262 90.8075 45.8197 90.8075 45.7131 90.8075C44.2747 90.5966 43.1559 90.333 41.8774 90.1221C41.7175 90.2275 41.4512 90.2275 41.025 90.1748C41.025 90.4911 40.4389 90.2275 40.3324 90.4911C40.2258 90.8602 41.5577 91.3347 42.2503 91.6511C42.0905 91.5984 42.3036 91.7038 42.2503 91.7565C41.9839 91.7565 41.7708 91.7565 41.5577 91.7038C42.0372 92.1256 43.6887 92.3892 44.2214 92.7583C44.2214 92.8637 43.9551 92.8637 43.7952 92.8637C44.6476 93.1801 45.7131 93.391 46.1926 93.7073C46.7786 93.8655 47.5778 93.971 48.1105 94.0764C48.1105 94.1291 48.217 94.1291 48.217 94.1291C48.1105 94.1291 48.0572 94.1818 48.1638 94.2346C48.7498 94.1291 49.1227 94.4455 49.762 94.3927C49.7087 94.5509 50.1882 94.4982 50.0284 94.6564C49.6022 94.6036 48.6432 94.6036 48.3236 94.4982C45.6599 94.2346 42.783 93.6546 40.1726 92.7583C37.5621 91.9147 35.218 90.8075 33.5132 89.753C32.4477 89.2258 31.4355 88.4876 30.37 87.7495C29.198 86.9586 27.9726 86.0623 27.1203 85.166C26.7473 84.9024 26.3744 84.586 26.3211 84.4278C25.9482 84.2169 25.7884 83.9533 25.5753 83.7424C25.0425 83.3734 24.4565 82.6352 23.8172 82.0025C23.6041 81.7389 23.6574 81.528 23.3378 81.3171C23.391 81.4225 22.9648 80.948 22.9116 80.8426C22.9648 80.8953 23.1247 81.1062 23.0714 81.0008C23.0181 80.948 22.9115 80.8426 22.8583 80.7899C22.9115 80.8426 22.9648 80.7899 22.8583 80.6844C22.4321 80.4208 22.2723 80.0517 22.1657 79.7881C22.1124 79.7881 21.8993 79.7354 21.8461 79.5772C22.0592 79.8935 21.9526 79.3663 22.0059 79.4717C22.0059 79.419 21.8461 79.2608 21.7928 79.1554C21.7395 79.2081 21.7395 79.1554 21.633 79.1027C21.633 79.1027 21.6862 79.1554 21.7395 79.1027C21.3666 78.7336 21.2068 78.6809 20.8871 78.2591C20.8338 78.3118 20.8338 78.2591 20.7806 78.1536L20.7273 78.2064C20.2478 77.7318 19.9814 77.5737 19.6618 77.2046C19.6085 77.2046 19.6618 77.31 19.6618 77.3628C19.502 77.2046 19.3421 76.941 19.4487 77.2046C19.2889 76.941 19.2889 77.0992 19.1823 76.8883C18.9692 76.7828 18.4898 76.5192 18.3299 76.2556C18.2234 76.2556 18.2767 76.5192 18.1168 76.3083C18.1168 76.2556 18.2234 76.2556 18.1701 76.2028C18.1168 76.2028 18.0636 76.0447 18.0103 76.0974C18.0103 76.1501 18.0636 76.2028 18.0636 76.2028L17.8505 75.8865C17.7439 75.8338 17.7972 75.9919 17.6906 75.9392C17.6374 75.7283 17.4775 75.7283 17.4775 75.7283C17.4243 75.5701 17.2644 75.5174 17.1579 75.3065L17.0513 75.3592C16.8382 75.0429 16.6251 75.0429 16.5186 74.7793C16.5719 74.9375 16.3588 74.6738 16.412 74.832C16.2522 74.6211 16.2522 74.7265 16.1457 74.4629C16.0924 74.5157 15.9858 74.4102 15.8793 74.252C15.826 74.252 15.8793 74.3048 15.8793 74.3575C15.6129 73.9357 15.3998 73.9884 15.24 73.6721C14.8138 73.5139 14.3343 72.8812 13.9081 72.6176C13.9081 72.6176 13.9614 72.6176 13.9614 72.5121C13.9081 72.5648 13.8016 72.5121 13.8016 72.354C13.6418 72.354 13.4819 71.9322 13.4287 72.0903C13.3754 71.9322 13.2688 71.9322 13.3221 71.774C13.2156 71.8794 13.0025 71.4049 12.9492 71.5631C12.8959 71.3522 12.7361 71.4049 12.6295 71.0358C12.5763 71.0358 12.5763 71.0886 12.523 71.0358C12.5763 70.9304 12.4164 70.7722 12.4697 70.9831C12.3099 70.6141 12.1501 70.4032 11.937 70.3504C11.9902 70.6141 11.9902 70.7195 12.1501 71.0886C11.937 71.194 11.7771 71.0359 11.7771 71.2467C11.6173 71.0886 11.4575 70.8777 11.4575 71.0886C11.564 71.0886 11.564 71.4049 11.6706 71.6158C11.8837 71.8267 11.937 71.9849 12.1501 72.0903C12.4164 72.5648 12.5763 72.6703 12.8426 72.9866C12.8426 73.1448 12.9492 73.1975 13.0557 73.3557C13.0025 73.3557 12.9492 73.303 13.0557 73.4612C13.109 73.3557 13.3754 74.1466 13.5352 74.1466C13.3754 74.0939 13.695 74.5157 13.5352 74.4629C13.5885 74.6211 13.695 74.6738 13.7483 74.7265C13.7483 74.7793 13.6418 74.7266 13.695 74.832C13.7483 74.7793 13.8016 74.7793 13.8548 74.8847C13.8016 74.8847 13.9081 75.0429 13.8548 75.0429C13.8016 74.9375 13.7483 74.8847 13.8016 74.9902C13.8016 74.9374 13.9081 75.2011 13.9081 75.2538C13.8549 75.3065 13.6418 75.2538 13.7483 75.412C13.4819 75.412 13.2688 74.7793 12.9492 74.5684C13.0025 74.5157 12.8959 74.4629 12.8426 74.3048C12.7894 74.3048 12.8426 74.4102 12.7894 74.3575C12.7894 74.3048 12.7361 74.3048 12.6828 74.1993C12.7894 74.252 12.4164 73.7775 12.3632 73.5139C12.3099 73.4084 12.3099 73.5139 12.2566 73.4084C12.3099 73.303 11.9902 72.723 11.8304 72.6176C11.7771 72.3012 11.7239 72.4067 11.564 72.1958C11.6706 72.1958 11.4575 71.9322 11.4575 71.9322C11.4575 71.8267 11.4042 71.6685 11.2977 71.5631C11.4042 71.5631 11.1378 71.2467 11.2977 71.194C11.0313 70.6668 10.978 70.6141 10.6584 70.0341C10.6051 70.0341 10.6051 70.0868 10.5518 69.9286C10.4453 69.8759 10.6051 70.1395 10.4985 70.0868C10.392 69.8759 10.392 70.0868 10.2854 69.8759C10.2854 70.0341 10.4985 70.2977 10.3387 70.1395C10.392 70.3504 10.4453 70.2977 10.4985 70.5086C10.392 70.5613 10.8182 71.194 10.978 71.774C11.0313 71.9322 11.0846 71.774 11.1911 71.9849C11.2444 72.1431 11.0846 71.9849 11.2444 72.1958C11.2977 72.1958 11.4042 72.4067 11.564 72.6703C11.6706 72.723 11.564 72.5648 11.564 72.5121C11.6706 72.6703 11.6173 72.6703 11.6706 72.7757L11.6173 72.723C11.7239 72.9339 11.8304 73.0921 11.937 73.2503C11.8837 73.303 12.0435 73.6721 12.2566 73.9357C12.0435 73.7775 12.4164 74.252 12.3632 74.3575C12.3099 74.4629 11.9902 74.1466 11.9902 74.252C11.8304 73.883 11.6706 73.7775 11.5108 73.6193C11.7239 73.9357 11.6173 73.9357 11.6173 74.0411C11.7771 74.1466 11.6173 74.0939 11.6706 74.1993C11.7239 74.1993 11.7771 74.3048 11.8304 74.3575C11.6706 74.1993 11.937 74.6738 11.7239 74.4102C11.8304 74.6211 11.7239 74.4629 11.7771 74.6211C11.7239 74.6211 11.564 74.4629 11.6173 74.6211C11.6706 74.6211 11.6706 74.6211 11.7239 74.7265C11.6706 74.6738 11.564 74.5684 11.5108 74.6738C11.6706 74.9375 11.5108 74.8847 11.6706 75.1483C12.0968 75.5701 12.9492 76.4665 13.0025 76.9937C13.8016 77.9427 13.4287 78.2064 13.0557 77.89C13.2156 77.9955 12.8959 77.7318 12.8426 77.6791L12.9492 77.7846C12.7361 77.5209 12.6295 77.3628 12.2566 76.941C12.2566 76.7828 11.937 76.361 11.8304 76.2556C11.8837 76.3083 11.937 76.3083 11.8304 76.1501C11.7771 76.1501 11.6706 75.8338 11.6173 75.9392C12.0435 76.5719 12.2566 77.3628 12.6828 77.9955C12.7894 78.1536 13.0557 78.47 13.109 78.6809C13.1623 78.6282 13.2688 78.8918 13.3754 78.9445C13.1623 78.8391 13.6418 79.3136 13.5352 79.3663C13.5885 79.3136 13.695 79.419 13.8016 79.4717C14.1212 79.9463 14.4942 80.4208 14.7072 80.5262C14.7605 80.6844 14.9736 81.0008 15.1334 81.2116C14.9203 80.8953 14.9736 81.2117 15.0802 81.2644C15.0269 81.2117 15.0802 81.1589 15.1334 81.2116C15.0802 81.3171 14.9203 81.2117 15.0802 81.528C15.0269 81.4753 14.9203 81.4226 14.8671 81.4226C15.1334 81.6862 15.0802 81.6862 15.2933 81.9498C15.2933 81.9498 15.3465 81.8971 15.3998 82.0025C15.3998 82.0025 15.3998 82.0025 15.4531 82.0552C15.3465 82.0025 15.1867 81.8971 15.0802 81.6862C15.0269 81.6334 15.1334 81.8971 15.0269 81.7389C14.9736 81.528 14.4941 81.0535 14.0147 80.4735C13.5352 79.8935 13.0557 79.2608 12.9492 78.7336C12.7361 78.5227 12.7361 78.47 12.6295 78.2591C12.6828 78.3118 12.7361 78.3645 12.7361 78.3645C12.6828 78.3118 12.6828 78.2591 12.6828 78.2064C12.523 78.0482 12.6295 78.1536 12.523 77.89C12.4697 77.89 12.523 77.9955 12.4697 77.9955C11.6706 76.8883 11.0313 75.5701 10.4453 74.832C10.4985 74.6211 10.0723 73.7775 9.85925 73.8302C9.69942 73.5666 9.7527 73.6193 9.69943 73.3557C9.64615 73.3557 9.43305 73.0394 9.48632 73.303C9.48632 73.303 9.5396 73.3557 9.48632 73.3557C9.64615 73.6721 9.7527 73.8302 9.7527 74.0411C9.64615 74.4102 9.85925 74.9902 10.0723 75.6229C9.69943 75.0429 9.64615 74.7793 9.3265 74.4102C9.27322 74.0939 9.11341 73.9357 9.00686 73.6721C8.95358 73.6721 8.84703 73.5139 8.74048 73.4084C8.79376 73.1975 8.52738 72.8812 8.47411 72.6176C8.10118 72.1431 8.15446 71.7213 7.72826 71.1413C7.67498 70.6141 7.14224 70.1923 7.08896 69.4541C6.76931 68.9269 6.44967 68.0306 6.18329 67.0288C5.86365 66.0798 5.59727 65.0253 5.27763 64.3926C5.27763 64.2344 5.22435 64.0235 5.22435 63.8653C5.01125 63.7599 4.95797 63.0217 4.95797 62.7581C4.74487 62.2836 4.4785 61.0182 4.42523 60.7019C4.31868 60.5437 4.31868 59.8055 4.21213 59.2783C4.15886 59.2783 4.15885 59.2783 4.15885 59.1201C3.99903 59.1201 3.94575 59.331 3.89248 58.9092C3.89248 58.6983 4.0523 58.7511 3.89248 58.5929C3.99903 58.5929 4.15885 58.962 4.15885 58.4874C4.10558 58.6456 4.05231 58.1184 4.05231 58.3293C4.10558 58.3293 4.10558 58.5929 4.05231 58.5402C4.05231 58.3293 3.94576 58.4874 3.94576 58.3293C3.94576 58.2238 3.94576 58.2238 3.94576 58.1184C3.78593 57.8548 3.62611 57.8548 3.51956 57.4857C3.35973 57.5384 3.41301 58.1184 3.41301 58.5929C3.41301 59.0674 3.41301 59.4892 3.25318 59.1201C3.19991 58.7511 3.14663 58.7511 3.19991 58.4874C2.98681 58.2238 2.93353 56.6948 2.93353 56.273C2.93353 56.3257 2.88026 56.0094 2.88026 55.7985C2.88026 55.6931 2.77372 55.7985 2.77372 55.6403V55.4822C2.77372 55.6931 2.72043 55.9039 2.66716 55.6403C2.72043 55.9039 2.66716 55.9567 2.72044 56.273C2.66716 56.273 2.66716 56.3785 2.61389 56.3785C2.66716 57.3275 2.50733 57.7493 2.66716 58.6983C2.45406 58.9092 2.34751 57.433 2.13441 56.853C2.18769 56.6421 2.08114 56.0621 1.97459 56.0094C1.97459 55.3767 1.76149 54.3749 1.76149 53.5841C1.70822 53.6895 1.60167 53.3732 1.5484 53.6895C1.60167 53.4259 1.49512 53.4786 1.5484 53.215C1.49512 53.3732 1.3353 53.3732 1.28202 53.795C1.28202 53.4259 1.22874 53.5841 1.22874 53.7422C1.17547 53.4786 1.17547 53.5841 1.06892 53.4259C0.962368 53.5841 1.01565 54.0586 0.96237 54.164C1.06892 54.9022 0.855825 55.0604 0.909101 55.7458C0.962375 55.7985 0.96237 55.6403 0.96237 55.7458C0.855821 55.8512 0.855819 56.4312 0.802545 56.6948C0.855819 56.7475 0.909101 57.0639 0.909101 57.3275C0.855825 57.2221 0.802551 57.6439 0.909101 57.7493C0.855825 57.7493 0.855819 57.7493 0.802545 57.8548C0.855819 58.2765 0.962375 58.5402 0.909101 58.8038C0.909101 58.6983 0.909097 58.5929 0.855823 58.5402C0.909097 58.8565 0.749269 58.8038 0.802545 59.0147C0.695995 58.8565 0.696001 59.0147 0.642727 59.2256C0.696001 59.6474 0.749269 59.4365 0.802545 59.5419C0.749269 59.5419 0.749274 59.5947 0.749274 59.6474C0.696 59.6474 0.696001 59.4892 0.642727 59.4365C0.589452 59.7001 0.802549 59.7528 0.749274 60.0165C0.642725 59.8056 0.64272 60.0692 0.536171 60.2801C0.536171 60.2801 0.589449 60.2801 0.589449 60.3328C0.536174 60.3855 0.536176 60.6491 0.482901 60.6491C0.482901 60.9128 0.536174 60.9655 0.589449 61.1237C0.4829 61.44 0.589452 62.1254 0.642727 62.4945C0.536178 62.3363 0.695998 62.8108 0.589449 62.7581C0.642723 62.7054 0.696 63.0217 0.749274 63.1272C0.642725 63.0217 0.749271 63.3381 0.695996 63.2854C0.642722 63.0217 0.589445 62.5472 0.536171 62.6527C0.64272 62.8108 0.536171 62.969 0.536171 63.2326C0.589445 63.3381 0.695998 63.8653 0.589449 63.8653C0.642723 64.1817 0.696 64.3926 0.749274 64.6562C0.642725 64.2344 0.855819 65.0253 0.802545 64.8144C0.855819 65.078 0.802545 65.3416 0.802545 65.4998C0.962368 65.8689 1.01565 66.6597 1.22874 67.2397C1.28202 67.5033 1.28202 67.6615 1.33529 67.9778C1.54839 69.0323 2.02786 70.1923 2.02786 70.7722C2.40079 71.3522 2.34751 71.774 2.72044 72.5649C2.66716 72.6703 2.66717 72.6176 2.50734 72.5649C2.56062 72.723 2.56061 72.8285 2.56061 72.9339C2.50734 72.7757 2.45406 72.7757 2.40079 72.8285C2.45406 72.9866 2.45406 73.1975 2.56061 73.4084C2.45406 73.1448 2.45406 72.9866 2.45406 72.8812C2.61389 73.2503 2.40079 72.9339 2.56061 73.303C2.61389 73.303 2.61388 73.2503 2.66716 73.3557C2.66716 73.4084 2.56061 73.3557 2.61389 73.4612C2.72044 73.5666 2.82699 73.883 2.72044 73.5666C2.98681 74.0939 2.77372 73.8302 2.77372 73.9884C2.82699 73.9884 2.88026 74.1993 2.88026 74.1993C2.72044 73.9357 2.93353 74.4102 2.93353 74.3575C2.77371 74.1993 2.56061 73.6193 2.40079 73.4084C2.45406 73.4084 2.50734 73.6193 2.50734 73.5139C2.29424 73.1975 2.24096 72.8285 2.13441 72.4594C1.97459 72.354 1.81477 71.6685 1.81477 71.5104C1.60167 71.4576 1.65494 71.0359 1.49512 70.7195C1.54839 70.825 1.60167 70.9304 1.5484 70.9831C1.3353 70.5086 1.49512 70.6668 1.49512 70.5613C1.38857 70.2977 1.44184 70.4032 1.38857 70.245C1.33529 70.245 1.3353 70.2977 1.28202 70.1923L0.695996 68.1887H0.749274C0.58945 67.9778 0.695995 67.7669 0.536171 67.556C0.64272 67.5033 0.536176 67.5033 0.482901 67.3979C0.536176 67.3451 0.376348 66.7652 0.429623 67.1342C0.323073 66.8179 0.429627 66.9233 0.376353 66.7124C0.269804 66.7124 0.376349 66.6597 0.323075 66.5543C0.2698 66.5543 0.269802 66.607 0.216527 66.5015H0.269797C0.216522 66.1852 0.163249 66.4488 0.163249 66.2906C0.216524 65.9743 0.00342369 65.6052 0.00342369 64.9725C-0.0498514 64.9725 -0.0498495 65.0253 -0.103125 64.9198C-0.0498495 64.7089 -0.156397 64.3926 -0.209672 64.4453C-0.209672 64.3399 -0.156394 64.3399 -0.156394 64.2344C-0.262943 63.6544 -0.422771 63.2854 -0.476046 62.7581C-0.476046 62.8636 -0.422768 62.969 -0.422768 63.0217C-0.422768 62.8108 -0.476046 62.7054 -0.476046 62.5472C-0.582595 62.6527 -0.582595 62.0727 -0.742419 62.0727C-0.689144 62.3363 -0.635868 62.3891 -0.582593 62.7054C-0.635868 62.8108 -0.529322 63.2326 -0.635871 63.2854C-0.529322 63.3908 -0.476043 63.6544 -0.422768 63.8126C-0.476043 63.8126 -0.476048 63.6017 -0.529324 63.6544C-0.476048 63.9708 -0.476048 64.0235 -0.369498 64.2871C-0.369498 64.498 -0.476043 64.4453 -0.422768 64.7089C-0.369493 64.7616 -0.316225 64.7089 -0.26295 64.8671C-0.26295 65.078 -0.209669 64.9725 -0.156394 65.1307C-0.262943 65.1307 -0.0498466 65.7634 -0.0498466 65.8161L-0.156394 65.8689C-0.103119 65.9743 -0.103121 66.1852 -0.0498466 66.1852C-0.0498466 66.0798 -0.103125 65.9743 -0.103125 65.9216C-0.0498495 66.1325 -0.0498476 66.0798 0.0567017 66.2379C0.00342655 66.2379 0.00343037 66.4488 0.10998 66.6597C0.10998 66.5543 0.0567017 66.4488 0.0567017 66.3961C0.109976 66.7124 0.163253 66.6597 0.216527 66.7652C0.109978 66.7124 0.109978 66.8706 0.216527 67.0288C0.163253 67.0288 0.216529 67.187 0.10998 67.1342C0.323078 67.3979 0.269799 67.9778 0.429623 68.0306C0.376348 68.0833 0.482901 68.1887 0.482901 68.2942C0.323077 68.0833 0.536171 68.5578 0.536171 68.716C0.376347 68.136 0.482896 68.9269 0.536171 68.8741C0.536171 68.7687 0.482901 68.6633 0.482901 68.6105C0.642725 69.1378 0.642725 68.7687 0.749274 69.0323C0.802549 69.2959 0.589452 68.8214 0.642727 69.085C0.696001 69.085 0.802549 69.3487 0.749274 69.4014C0.642725 69.0323 0.802551 69.6123 0.642727 69.2432C0.696001 69.5068 0.749273 69.4014 0.855823 69.7177C0.802547 69.7177 0.695996 69.4014 0.695996 69.665C0.802546 69.8232 0.855821 70.0868 0.96237 70.1923C0.909096 70.0868 0.909096 69.9814 0.96237 70.0868C1.01565 70.2977 0.962368 70.3504 1.06892 70.6141C1.12219 70.6141 1.1222 70.5613 1.17547 70.6668C1.17547 70.7195 1.22875 70.825 1.28202 70.9304C1.17547 70.7722 1.38857 71.2995 1.17547 70.8777C1.3353 71.194 1.17547 71.1413 1.33529 71.4576C1.44184 71.5631 1.70822 72.2485 1.70822 72.4067C1.65495 72.2485 1.60167 72.1958 1.5484 72.1958C1.65494 72.4594 1.65494 72.5121 1.65494 72.6176C1.70822 72.6703 1.76149 72.6176 1.81477 72.723C1.81477 72.9339 1.97459 73.303 2.02786 73.2503C2.02786 73.4084 2.02787 73.5666 1.92132 73.5666C1.86804 73.4612 1.49512 72.5121 1.5484 72.4594C1.3353 72.0903 1.28202 71.8267 1.1222 71.5104C1.33529 71.7213 0.962375 70.9304 1.17547 71.1413C1.01565 70.9304 1.01565 70.825 0.96237 70.9304C0.909096 70.825 0.909097 70.7722 0.855823 70.7195C1.06892 70.825 0.536171 69.9814 0.802545 70.2977C0.64272 69.9286 0.749276 70.0868 0.642727 69.8232C0.589452 69.8232 0.589445 69.8759 0.536171 69.7705C0.482896 69.5068 0.376351 69.2959 0.482901 69.1905C0.429626 69.1378 0.376349 69.0323 0.323075 68.8214C0.429625 68.9796 0.216527 68.3996 0.216527 68.3469C0.269802 68.5578 0.0566998 68.1887 0.163249 68.4524C0.163249 68.716 0.376349 69.3487 0.589449 69.8759C0.536174 69.8759 0.536176 69.7705 0.482901 69.8232C0.58945 70.1395 0.642723 70.6141 0.855823 70.9304C0.802547 71.0886 1.01565 71.4576 0.96237 71.4576C1.06892 71.6158 1.1222 71.9849 1.28202 72.1431C1.3353 72.4594 1.44184 72.7757 1.60167 73.1975C1.65494 73.1448 1.70822 73.2503 1.76149 73.4084C1.65494 73.4612 1.97459 73.883 1.86804 73.9357C2.02786 74.1993 1.97459 74.252 2.13441 74.5684C2.18769 74.5684 2.18769 74.5157 2.24097 74.6211C2.08114 74.6211 2.66716 75.6229 2.34752 75.2011C2.56061 75.6229 2.66716 75.6756 2.56061 75.7283C2.61389 75.8338 2.66717 75.6756 2.77372 75.9392C2.77372 76.1501 2.98681 76.6246 3.25318 77.0991C3.30646 77.0464 3.25319 77.0464 3.30646 76.8883C3.14664 76.6246 3.09336 76.4137 3.04009 76.1501C2.77372 75.781 2.50734 75.0429 2.56061 74.7793C2.45406 74.6738 2.61389 75.1483 2.45406 74.9375C2.45406 74.7793 2.40079 74.7266 2.40079 74.8847C2.13441 74.3575 2.18769 74.1993 1.97459 73.9357C2.02787 73.883 2.08114 73.6193 2.24097 73.8302C2.29424 74.0411 2.34751 74.0939 2.18769 73.9357C2.29424 74.252 2.34751 74.0411 2.45406 74.3575C2.40079 74.5157 2.66716 74.9374 2.72044 75.1483C2.82699 75.2011 2.82699 75.2011 2.88026 75.2538C2.88026 75.412 2.88026 75.412 2.77372 75.3065C2.88026 75.5701 2.88026 75.3592 3.04009 75.6756C2.98681 75.8865 3.413 76.4137 3.46628 76.7828C3.57283 76.8883 3.62611 76.9937 3.78593 77.0991C3.73266 77.0991 3.78593 77.2046 3.78593 77.2573C3.73266 77.2573 3.62611 76.9937 3.57284 76.9937C3.67939 77.1519 3.73266 77.2046 3.78593 77.3628C3.83921 77.3628 3.83921 77.2046 3.94576 77.3628C3.83921 77.4155 3.89248 77.4155 3.99903 77.5209L3.94576 77.5737C4.10558 77.7846 4.21213 78.1536 4.2654 78.1009C4.31868 78.0482 4.15885 77.9427 4.05231 77.7318C4.10558 77.7318 4.10558 77.6791 4.10558 77.6264C4.10558 77.6791 4.26541 77.89 4.21213 77.9427C4.15886 77.89 4.10558 77.7846 4.10558 77.7846C4.21213 77.9427 4.26541 77.9955 4.37196 78.2064C4.26541 78.1009 4.31868 78.2591 4.42523 78.3645L4.37196 78.4173C4.53178 78.6809 4.63833 78.8391 4.74488 79.1027C4.9047 79.2608 4.74487 78.9445 4.6916 78.8391C4.9047 79.1027 4.74488 79.0499 4.85143 79.2608C4.95798 79.3136 4.79815 79.0499 4.9047 79.2081C4.9047 79.2608 5.06452 79.5772 5.06452 79.6299C5.01125 79.6299 4.79815 79.3136 4.9047 79.5245C5.01125 79.6826 5.06453 79.6299 5.17108 79.7881C5.1178 79.8408 5.06453 79.6826 5.01125 79.7881C5.17108 80.0517 5.1178 79.8935 5.17108 80.0517C5.27763 80.1572 5.27762 79.999 5.38417 80.1572C5.3309 80.2099 5.17108 80.0517 5.27763 80.3153C5.27763 80.1044 5.70382 80.8426 5.65055 80.6844C5.59727 80.6317 5.38417 80.3153 5.38417 80.2626C5.544 80.3681 5.81037 80.8426 5.91692 81.1062C6.13002 81.5807 6.76931 82.3189 6.82259 82.5298C6.82259 82.477 6.76931 82.5825 6.82259 82.6352C6.66276 82.5298 6.34312 81.9498 6.28984 81.7916C6.28984 81.8971 6.28984 81.8971 6.18329 81.7916C6.28984 82.0025 6.44966 82.2661 6.66276 82.477C6.71604 82.6879 6.76931 82.6879 6.82259 82.8988C6.87586 82.7934 7.08896 83.0043 7.08896 82.9516C6.98241 82.7407 6.98242 82.9516 6.87587 82.7934C6.92914 82.6352 7.19551 82.9516 7.24879 83.1625C7.19551 83.1625 7.14223 83.057 7.19551 83.2152C7.30206 83.1625 7.46189 83.5315 7.56844 83.5842C7.51517 83.5842 7.56844 83.6897 7.56844 83.6897C7.56844 83.5842 7.30206 83.4261 7.40861 83.3734C7.24879 83.2152 7.14224 83.0043 7.03569 83.0043C7.19552 83.3206 7.35534 83.4788 7.56844 83.7424C7.56844 83.7424 7.51516 83.7424 7.46188 83.6897C7.62171 83.9006 8.20774 84.6387 7.94136 84.1642C7.88809 84.1642 7.99463 84.3224 7.88808 84.2169C7.72826 84.006 7.62171 83.8479 7.67499 83.7424C7.94136 84.1115 7.99463 84.1642 8.15446 84.4278C8.31428 84.5333 8.15446 84.3224 8.261 84.4806C8.261 84.586 8.36756 84.6915 8.42083 84.7442C8.42083 84.7442 8.36756 84.6915 8.31428 84.6915C8.47411 84.9024 8.68721 85.0605 8.74048 85.2187C8.63393 85.2187 8.68721 85.2714 8.58066 85.2187C8.79375 85.4296 8.74048 85.4823 8.63393 85.3769C8.95358 85.7459 9.21995 86.0096 9.27323 86.1677C9.27323 86.0096 9.48633 86.3259 9.5396 86.2732C9.37978 86.115 9.3265 86.0096 9.21995 85.8514C9.43305 86.1677 9.21995 85.7459 9.37978 85.9568C9.48633 86.0623 9.59288 86.3259 9.69943 86.3786C9.64615 86.2732 9.64615 86.3259 9.69943 86.3786C9.80598 86.5895 9.80598 86.5895 9.69943 86.5895C9.64615 86.4314 9.48633 86.3259 9.37978 86.2205C9.5396 86.5368 9.27323 86.3259 9.43305 86.4841C9.32651 86.2732 9.80598 86.8532 9.5396 86.4841C9.7527 86.695 9.59288 86.6423 9.69943 86.8004C9.64615 86.6423 10.0723 87.1168 9.91252 87.0641C9.85925 87.0113 9.80597 86.9059 9.7527 86.8532C9.85925 87.0641 10.3387 87.4859 10.2322 87.5913C10.5518 87.9076 10.5518 88.0658 10.8182 88.3294C10.6051 88.1713 10.5518 88.224 10.2854 87.9604C10.4453 88.0131 10.1256 87.8549 10.1256 87.7495C10.1256 87.8022 10.0191 87.6967 9.9658 87.644C10.0191 87.7495 10.1789 87.8549 10.1789 87.9076C10.0723 87.8022 9.9658 87.644 9.91252 87.644C10.0191 87.8549 10.1256 87.8549 10.1789 88.0131C10.2322 88.0131 10.2322 87.9604 10.2854 88.0131C10.2322 88.0658 10.4985 88.2767 10.2322 88.0658C11.0313 89.1203 12.2033 90.5966 13.2688 91.5984C13.2688 91.6511 13.4287 91.7565 13.3221 91.7565C15.24 93.7073 17.4775 95.869 20.3544 97.9253C25.7884 101.774 32.2346 104.938 39.3202 106.572C43.9018 107.627 48.59 108.048 53.3847 107.996C58.9785 107.89 64.5191 107.047 69.8466 105.359C75.174 103.672 80.2352 101.194 84.8168 97.8198C87.5338 95.8163 90.2508 93.391 92.4883 90.9129C95.7914 87.3277 98.828 83.057 101.172 78.4173C103.516 73.7775 105.221 68.716 106.127 63.7599C106.127 63.7599 106.073 63.7599 106.073 63.6544C106.606 60.86 106.979 57.9602 106.979 55.0604L107.032 55.1658C107.139 54.2695 107.032 51.8969 106.979 50.737C106.873 47.099 106.286 42.9338 105.168 38.7158C104.049 34.5506 102.291 30.3326 100.213 26.5892C100.16 26.5365 100.107 26.5365 100.053 26.4837C100.107 26.4837 100.053 26.431 100.053 26.3783C99.5206 25.482 98.9346 24.3748 98.4018 23.5839C98.3485 23.5839 98.3485 23.6366 98.2953 23.5312C98.3485 23.5312 98.242 23.4257 98.242 23.373C97.1232 21.6331 95.8446 19.8405 94.4595 18.1533C93.0744 16.4661 91.6892 14.9371 90.4639 13.7772C90.2508 13.5136 89.9844 13.3027 89.9312 13.1445C89.6648 12.9336 89.6115 12.9336 89.3451 12.7227C89.4517 12.67 89.3984 12.5645 89.5049 12.4591C89.3451 12.1954 88.5993 11.51 88.7591 11.51C88.4927 11.2464 88.0133 10.8773 87.9067 10.7192L88.4395 11.1937C89.0255 11.51 89.8246 12.1954 90.5172 12.8281C92.2752 14.199 94.0333 15.8334 95.6315 17.6261C96.7503 18.786 98.1355 20.2623 99.2542 21.844C100.107 22.8458 100.639 23.5839 101.385 24.6911C102.664 26.6419 103.836 28.5927 104.848 30.5962C105.86 32.5998 106.766 34.7615 107.565 37.0813C107.885 37.8722 108.258 39.0849 108.417 39.9812C109.003 41.6684 109.27 43.5664 109.696 45.2536C109.696 45.8336 109.962 46.3081 109.962 47.1517C110.069 47.5208 110.229 48.2062 110.176 48.7862C110.442 49.8406 110.548 51.4224 110.815 52.2132C111.028 52.266 111.188 53.215 111.241 54.4277C111.294 55.6403 111.294 57.0112 111.348 57.9075C111.561 57.8548 111.827 57.7493 111.827 58.7511C111.934 58.6456 112.04 58.5929 112.147 58.5929C112.147 58.3293 112.2 58.382 112.2 58.2238C112.093 58.1711 112.2 58.4347 112.147 58.4347C112.04 58.2238 112.04 57.8548 112.093 57.433C112.253 57.1166 112.626 57.1693 112.466 57.6439C112.52 57.6966 112.52 57.7493 112.52 57.6439C112.52 59.5419 112.36 61.1237 112.307 62.7054C112.52 62.6527 112.147 64.6562 112.52 64.1817C112.466 64.5507 112.679 64.3399 112.573 64.9198C112.733 64.5508 112.893 64.6562 112.946 64.9725C113.265 63.8653 113.532 62.4418 113.692 61.0709C113.745 61.1237 113.745 60.9655 113.798 60.86C113.958 60.9128 113.958 61.4927 114.011 61.8091C114.278 61.44 114.224 59.8583 114.384 58.5402C114.491 57.802 114.597 57.802 114.597 57.1166C114.757 57.1166 114.864 56.4839 114.917 56.0094C115.077 56.273 115.024 56.9057 115.13 56.853C115.183 55.3767 115.237 53.0568 115.077 51.4224C115.077 51.1588 115.13 51.0006 115.183 50.8951C115.343 51.2115 115.503 51.5278 115.556 52.2132C115.503 52.2132 115.503 52.0551 115.503 52.3187C115.503 52.3714 115.61 52.4769 115.663 52.635C115.769 51.2115 115.716 49.4716 115.823 48.7334Z" fill="#147070"/>
</g>
</svg>
