<svg width="200" height="255" fill="none" xmlns="http://www.w3.org/2000/svg"><path d="M.612176 17.2894C-4.91934 14.5261-11.683 18.1312-11.6487 23.7641-11.3471 40.0869-9.07952 56.5843.892825 63.659 6.20889 67.4885 12.6422 70.7218 13.41 76.2842c.2005 2.7988-.8277 5.4886-.7595 7.9365.1818 4.3233 3.1481 8.5038 7.7495 10.8793 1.8035.9401 3.5994 1.6083 4.6089 2.6475 2.1515 2.4295-2.6498 8.2775-1.9747 11.6105 2.4656 9.308 14.8818 8.409 19.0088 12.455 3.6203 3.458 2.3916 3.349 5.8721 8.389 2.4918 3.647 8.0818 5.212 13.1367 4.066 5.0549-1.145 9.5822-4.728 10.2625-8.907.9279-5.191.58-6.681 1.5079-11.872 1.1547-5.85 5.0205-6.778 7.9127-8.556 5.3894-3.439 6.0486-11.6729 1.5663-15.2758-2.4785-2.0683-5.8983-2.728-9.0629-4.1281-4.6014-2.3755-3.2933-3.8195-4.2086-8.0723-1.1023-3.2688-.3218-7.1506-2.2464-10.2382-1.8565-2.844-5.5638-5.0215-10.3994-4.8063-2.5181-.1896-10.0911-1.4384-11.9948-2.6757-.9018-.4701-1.5767-1.5983-2.1515-2.4294-2.7792-5.1644 7.5099-13.1198.9576-15.1258-3.9946-1.4908-19.2937-1.7805-23.6474-2.964C6.9822 38.0512 6.51473 28.9713 4.73356 22.2338c-.5162-2.0299-2.00405-3.739-4.024969-4.7832.028351-.0823-.064282-.1075-.096415-.1612z" fill="#009C00"/><path d="M182.216 176.886c-3.26.576-10.684 3.556-11.883 4.166-1.199.611-2.32.932-3.439-.3-.476-.542-1.178-.626-1.861-.395-1.875.429-5.351 3.742-5.719 3.955-.49.282-.973.153-1.256-.337-.282-.49-.603-1.611-1.008-2.03-.644-.69-1.127-.82-1.958-.421-1.392.559-7.749 4.963-8.561 5.677-.69.644-1.404-.169-2.196-.691-.361-.201-.818-.427-1.159-.311-5.787 2.28-8.41 8.203-8.593 10.431-.183 2.229-1.335 1.506-1.489.533-.108-.753-.255-2.139-1.315-3.976-1.061-1.837-3.945-3.438-5.446-3.633-1.526-.098-4.973 5.811-5.794 8.49-.485 1.423-.706 3.02-.998 4.495-.498 2.247-2.084 2.754-4.031 4.614-4.34 4.22-4.532 8.413-3.563 11.365.924 2.732 3.599 6.658 5.581 8.535 1.744 1.606 3.158 4.055 3.799 6.298.847 3.022 3.376 5.563 6.215 6.945 2.214 1.007 2.337.937 3.802-1.052.47-.598.812-.714 1.507-.217.863.645 1.699 1.387 2.806 1.891 4.79 2.215 9.784.965 10.262-.046 1.156-2.382-3.166-7.888-2.74-8.706.426-.818 2.549 1.304 4.184 2.157 1.635.852 3.767 1.009 5.301.695.56-.16 1.128-.733 1.476-1.261.175-.264.497-.695.787-.617 1.333.047 6.042-.141 8.758-2.933.445-.502.6-1.082.44-1.642-.307-1.946-1.625-4.37-1.696-4.492-.257-.587-.179-.877.549-.889.412.007 3.8.501 7.241-.751 3.1-1.136 6.441-5.107 6.733-6.582.162-.991-1.4-3.274-1.754-3.886-.257-.587-.153-.973.459-1.326 1.811-.965 3.159-1.742 5.403-3.936 5.675-5.726 8.08-13.157 7.901-14.033-.083-.851-.933-.768-.926-1.18.129-.483 4.815-7.924 11.406-14.751.021-1.237-10.898-1.056-17.225.147z" fill="#5D3287"/></svg>