<svg width="122" height="218" fill="none" xmlns="http://www.w3.org/2000/svg"><path d="M11.2027 148.105c-4.33857-4.406-2.08342-10.988 3.9771-11.858 17.6614-2.498 35.8971-3.323 45.9284 4.281 5.4082 4.067 10.5027 9.122 16.6155 8.898 3.0341-.307 5.6929-1.664 8.3825-2.003 4.7269-.602 9.9706 1.273 13.6483 4.93 1.4685 1.475 2.5915 2.919 4.0365 3.63 3.154 1.493 8.248-3.745 11.965-3.676 10.57.552 12.756 11.695 18.082 14.666 4.644 2.596 4.203 1.528 10.488 3.751 4.561 1.499 7.618 6.249 7.61 10.857-.023 4.666-2.765 9.221-7.043 10.578-5.348 1.695-7.034 1.676-12.368 3.313-5.993 2.024-6.098 5.595-7.222 8.445-2.36 5.291-11.021 7.281-16.047 3.949-2.854-1.853-4.398-4.738-6.666-7.252-3.678-3.657-4.9439-2.235-9.7085-2.338-3.7755-.4-7.7611.91-11.5743-.195-3.4541-1.134-6.7495-4.055-7.7308-8.365-.8023-2.176-3.9931-8.669-5.8204-10.115-.7414-.708-2.1273-1.087-3.1541-1.494-6.2328-1.577-12.2498 8.839-16.0621 3.44-2.7169-3.268-6.7905-16.758-9.0754-20.35-4.3556-10.915-14.2859-9.777-22.071-10.2-2.2944-.122-4.5168-1.108-6.0879-2.737.0146-.06-.0514-.078-.1028-.155z" fill="#50CF12"/><path d="M18.0077 34.3448c-.8-.8-1.4-1.5-2.1-2.2l-1-1c-.7-.7-.6-1.9.3-2.4l4.6-2.5c-.8-1-1.5-2.1-2.3-3-1.2-1.4-.7-2.3.8-2.8 1.2-.4 2.4-.5 3.8-.8l-1.1-4.5c-.2-.9.5-1.8 1.4-1.8h4.5c-.2-1.3-.4-2.6-.6-4.00001-.2-1.1.9-2.1 2-1.8l4.5 1c0-1.2.1-2.4.1-3.5.1-1.7 1-2.2 2.5-1.7 1.2.5 2.4 1.1 4.2 2-.1-1.1-.3-2.1-.1-3 .2-.9.8-2 1.5-2.3.7-.2 1.9.3 2.5.9 3.4 3.3 5.6 7.4 6.7 11.90001.8 3.5 1.3 7.1 1.4 10.7.1 2.6.5 5.7 2.5 6.9 1.8 1.1 3.9-.5 5.1-.9 1.4-.6 2.7-1.4 4.2-1.8 4.7-1.3 8-2 11.5-.9 2.8.8 5.2 1.6 8.1 2.4.7.2 1.7.8 1.8 1.3.1.6-.6 1.5-1.1 2-.7.8-1.5 1.4-2.5 2.2.9 1 1.7 2 2.6 3 1.3 1.3.8 2.2-.7 2.8-1 .4-2.1.7-3.3 1.1l2.6 4c.6.9.1 2.1-.9 2.3l-4.3.9c.6 1.5 1.2 3.1 1.9 4.6.7 1.5.1 2.1-1.3 2.2-1.5 0-3-.1-4.8-.1l.8 4.1c.2.9-.7 1.7-1.6 1.4l-5-1.5c0 1.5-.2 3.1-.1 4.7 0 2-1 2.1-2.4 1.3s-2.8-1.6-4.2-2.5c-.4 1.9-.8 3.8-1.1 5.7-.3 1.5-1.2 1.8-2.2.7-6.5-6.9-12.4-14.1-10.7-24.6-.3-1.4-.1-3.5-.9-4.1-.9-.6-3-.1-4.1.6-2.9 1.8-6.1 2.5-9.4 2.4-6.2-.2-12.4-.3-18.2-3.1-2.4-1.2-2.5-1.9-.5-3.5 1.6-1 3-1.8 4.6-2.8z" fill="#FF941F"/><path d="M38.709 93.5448h-5.1c-1.2 0-2.1-1-1.8-2.1l1.5-5.5c-1.4-.2-2.9-.4-4.3-.5-2.1-.2-2.4-1.3-1.6-2.8.6-1.2 1.5-2.3 2.3-3.6l-4.6-2.6c-.9-.5-1.1-1.7-.4-2.4l3.5-3.5c-1.2-.8-2.4-1.7-3.8-2.7-1.1-.7-1-2.3 0-2.9l4.3-2.7c-1-.9-1.9-1.8-2.9-2.8-1.4-1.4-1-2.5.6-3.2 1.3-.6 2.8-1 4.9-1.7-1-.8-2-1.3-2.6-2.2-.5-.8-1.1-2.2-.7-2.9.3-.7 1.7-1.3 2.7-1.3 5.4-.1 10.5 1.3 15 3.9 3.5 2 6.9 4.4 10 7.1 2.2 2 5.2 3.9 7.7 3.3 2.3-.6 2.7-3.4 3.2-4.6.6-1.5 1-3.2 1.8-4.7 2.5-4.7 4.6-7.7 8.2-9.6 2.9-1.5 5.4-2.8 8.3-4.4.7-.4 2-.8 2.5-.4.6.4.8 1.6.8 2.4.1 1.1-.1 2.2-.1 3.6l4.5.3c2.1 0 2.5 1 1.8 2.7-.5 1.1-1.1 2.1-1.7 3.3l5.4 1c1.2.2 1.8 1.5 1.2 2.5l-2.6 4c1.7.7 3.5 1.4 5.4 2 1.8.6 1.9 1.5.8 2.7-1.1 1.2-2.4 2.3-3.8 3.6l4.1 2.5c.9.6.9 1.8 0 2.3l-5.1 2.7c1.2 1.2 2.4 2.5 3.8 3.7 1.7 1.5 1 2.3-.8 2.9-1.7.5-3.5.9-5.3 1.4 1.3 1.8 2.6 3.5 3.8 5.2 1 1.4.5 2.3-1.1 2.3-10.8-.3-21.4-1.2-28.7-10.5-1.4-.9-3-2.6-4.2-2.4-1.2.2-2.4 2.2-2.7 3.7-.8 3.7-2.7 6.6-5.3 9.1-5 4.7-10 9.4-16.8 11.7002-2.8.9-3.6.5-3.2-2.3002.2-2 .7-3.6 1.1-5.6z" fill="#FCD759"/></svg>